<svg width="403" height="650" viewBox="0 0 403 650" fill="none" xmlns="http://www.w3.org/2000/svg">
<g clip-path="url(#clip0_255_2594)">
<path d="M-70.1154 189.529L189.709 225.718L193.764 221.936L180.989 220.063L14.5935 41.6147L-49.2564 31.5363L-267.523 235.062L-262.296 299.803L-207.289 358.794L-24.1396 384.456L-19.7152 380.33L-145.008 362.754L-230.957 270.581L-116.662 164.005L7.79144 297.472L12.5845 293.003L-111.869 159.536L-16.7455 70.8371L113.552 210.572L-65.691 185.404L-70.1154 189.529Z" fill="#D7B47F"/>
<path d="M170.415 583.046L277.418 822.563L282.774 823.998L277.593 812.171L340.742 576.495L315.452 517.007L27.1869 439.767L-24.9457 478.509L-45.8215 556.419L29.4754 725.335L35.3186 726.9L-16.1747 611.333L16.4437 489.6L167.393 530.047L120.162 706.317L126.492 708.013L173.724 531.743L299.353 565.405L249.903 749.953L176.258 584.611L170.415 583.046Z" fill="#D7B47F"/>
<path d="M384.378 360.131L456.161 612.451L461.258 614.635L457.815 602.191L553.901 377.917L537.346 315.433L263.028 197.906L205.907 228.824L174.143 302.964L224.602 480.886L230.163 483.268L195.662 361.543L245.293 245.699L388.94 307.242L317.073 474.984L323.097 477.565L394.964 309.823L514.514 361.043L439.273 536.662L389.939 362.513L384.378 360.131Z" fill="#D7B47F"/>
<path d="M295.431 60.7101L182.803 -176.214L177.415 -177.523L182.874 -165.822L125.305 71.2793L151.993 130.154L442.001 200.568L493.204 160.606L512.235 82.225L432.972 -84.8663L427.093 -86.2937L481.3 28.0257L451.565 150.495L299.702 113.623L342.76 -63.7131L336.391 -65.2593L293.334 112.077L166.945 81.3895L212.025 -104.275L289.552 59.2827L295.431 60.7101Z" fill="#D7B47F"/>
</g>
<defs>
<clipPath id="clip0_255_2594">
<rect width="402.589" height="649.394" fill="white" transform="translate(0.266602 0.0151367)"/>
</clipPath>
</defs>
</svg>
