<svg width="404" height="650" viewBox="0 0 404 650" fill="none" xmlns="http://www.w3.org/2000/svg">
<g clip-path="url(#clip0_255_2627)">
<path d="M-69.5265 189.529L190.297 225.718L194.353 221.936L181.578 220.063L15.1824 41.6147L-48.6675 31.5363L-266.934 235.062L-261.707 299.803L-206.7 358.794L-23.5507 384.456L-19.1264 380.33L-144.42 362.754L-230.368 270.581L-116.073 164.005L8.38031 297.472L13.1733 293.003L-111.28 159.536L-16.1566 70.8371L114.141 210.572L-65.1022 185.404L-69.5265 189.529Z" fill="#222222"/>
<path d="M171.004 583.046L278.007 822.563L283.363 823.998L278.182 812.171L341.331 576.495L316.041 517.007L27.7758 439.767L-24.3569 478.509L-45.2326 556.419L30.0642 725.335L35.9074 726.9L-15.5859 611.333L17.0326 489.6L167.982 530.047L120.751 706.317L127.081 708.013L174.312 531.743L299.942 565.405L250.492 749.953L176.847 584.611L171.004 583.046Z" fill="#222222"/>
<path d="M384.967 360.131L456.75 612.451L461.847 614.635L458.403 602.191L554.49 377.917L537.934 315.433L263.617 197.906L206.496 228.824L174.731 302.964L225.191 480.886L230.752 483.268L196.251 361.543L245.882 245.699L389.529 307.242L317.662 474.984L323.686 477.565L395.552 309.823L515.103 361.043L439.862 536.662L390.528 362.513L384.967 360.131Z" fill="#222222"/>
<path d="M296.017 60.7101L183.39 -176.214L178.002 -177.523L183.461 -165.822L125.892 71.2793L152.579 130.154L442.588 200.568L493.791 160.606L512.822 82.225L433.559 -84.8663L427.68 -86.2937L481.887 28.0257L452.152 150.495L300.289 113.623L343.347 -63.7131L336.978 -65.2593L293.921 112.077L167.532 81.3895L212.611 -104.275L290.139 59.2827L296.017 60.7101Z" fill="#222222"/>
</g>
<defs>
<clipPath id="clip0_255_2627">
<rect width="402.589" height="649.394" fill="white" transform="translate(0.855469 0.0151367)"/>
</clipPath>
</defs>
</svg>
