<svg width="404" height="650" viewBox="0 0 404 650" fill="none" xmlns="http://www.w3.org/2000/svg">
<g clip-path="url(#clip0_255_2660)">
<path d="M-69.9396 189.529L189.884 225.718L193.94 221.936L181.165 220.063L14.7693 41.6147L-49.0806 31.5363L-267.347 235.062L-262.12 299.803L-207.113 358.794L-23.9638 384.456L-19.5395 380.33L-144.833 362.754L-230.781 270.581L-116.486 164.005L7.96722 297.472L12.7602 293.003L-111.693 159.536L-16.5697 70.8371L113.728 210.572L-65.5152 185.404L-69.9396 189.529Z" fill="#9FA49F"/>
<path d="M170.592 583.046L277.595 822.563L282.951 823.998L277.77 812.171L340.919 576.495L315.629 517.007L27.3637 439.767L-24.769 478.509L-45.6448 556.419L29.6521 725.335L35.4953 726.9L-15.998 611.333L16.6205 489.6L167.57 530.047L120.339 706.317L126.669 708.013L173.9 531.743L299.529 565.405L250.08 749.953L176.435 584.611L170.592 583.046Z" fill="#9FA49F"/>
<path d="M384.554 360.131L456.337 612.451L461.434 614.635L457.99 602.191L554.077 377.917L537.521 315.433L263.204 197.906L206.082 228.824L174.318 302.964L224.778 480.886L230.339 483.268L195.838 361.543L245.469 245.699L389.115 307.242L317.249 474.984L323.273 477.565L395.139 309.823L514.69 361.043L439.449 536.662L390.115 362.513L384.554 360.131Z" fill="#9FA49F"/>
<path d="M295.606 60.7101L182.979 -176.214L177.59 -177.523L183.05 -165.822L125.481 71.2793L152.168 130.154L442.177 200.568L493.38 160.606L512.411 82.225L433.148 -84.8663L427.269 -86.2937L481.476 28.0257L451.74 150.495L299.878 113.623L342.935 -63.7131L336.567 -65.2593L293.51 112.077L167.121 81.3895L212.2 -104.275L289.728 59.2827L295.606 60.7101Z" fill="#9FA49F"/>
</g>
<defs>
<clipPath id="clip0_255_2660">
<rect width="402.589" height="649.394" fill="white" transform="translate(0.444336 0.0151367)"/>
</clipPath>
</defs>
</svg>
