<svg width="403" height="650" viewBox="0 0 403 650" fill="none" xmlns="http://www.w3.org/2000/svg">
<g clip-path="url(#clip0_255_2225)">
<path d="M-240.409 239.199C-283.177 279.079 -271.125 301.614 -197.897 380.146C-144.265 437.662 -91.7001 464.467 -60.7298 435.588C-46.7194 422.524 -46.6101 398.987 -62.4246 382.027C-99.898 341.84 -142.9 408.819 -185.187 363.47C-239.162 305.585 -198.362 270.986 -143.058 219.417L-67.8441 149.284L-66.4689 150.758C-73.9424 160.484 -94.6479 252.854 -62.6752 287.142C-52.7052 297.834 -34.2802 301.332 -19.1637 287.236C30.2413 241.168 -116.143 194.32 -28.7625 112.842C-4.06004 89.8074 29.1578 88.4716 52.1919 113.174C115.794 181.382 17.5707 226.101 49.5435 260.39C63.2952 275.138 83.2946 274.41 99.5172 259.283C145.235 216.653 118.19 153.645 63.8704 95.3916C5.08183 32.345 -13.8067 21.6978 -45.5144 51.264C-76.8534 80.4864 -91.4212 129.912 -124.579 160.141C-158.842 191.401 -206.145 207.939 -240.409 239.199Z" fill="#222222"/>
<path d="M37.9644 465.105C-18.52 449.97 -31.2433 472.134 -59.0342 575.851C-79.3881 651.813 -74.2629 710.595 -33.3604 721.554C-14.8569 726.512 5.16118 714.132 11.163 691.733C25.3846 638.657 -54.2049 637.685 -38.1566 577.792C-17.6722 501.343 33.2905 517.608 106.331 537.179L205.665 563.796L205.143 565.743C192.935 564.56 103.63 595.951 91.496 641.236C87.7122 655.357 94.5106 672.836 114.475 678.185C179.724 695.669 141.877 546.704 257.28 577.626C289.905 586.368 308.641 613.83 299.9 646.454C275.762 736.537 185.786 676.939 173.652 722.224C168.433 741.702 179.649 758.276 201.074 764.017C261.454 780.196 300.554 723.87 321.169 646.934C343.48 563.668 342.499 542.008 300.623 530.787C259.233 519.697 209.598 533.536 166.392 521.437C121.724 508.946 82.632 477.596 37.9644 465.105Z" fill="#222222"/>
<path d="M270.082 224.547C216.331 201.518 200.579 221.642 158.293 320.341C127.323 392.627 124.02 451.54 162.944 468.216C180.552 475.76 202.13 466.358 211.262 445.043C232.901 394.535 154.262 382.232 178.681 325.237C209.85 252.487 257.975 275.848 327.481 305.627L422.009 346.126L421.215 347.979C409.3 345.068 316.433 363.414 297.97 406.508C292.213 419.946 296.452 438.215 315.45 446.354C377.542 472.957 361.307 320.119 471.127 367.17C502.173 380.471 516.805 410.322 503.504 441.368C466.777 527.093 386.211 455.282 367.749 498.376C359.808 516.911 368.547 534.915 388.936 543.65C446.394 568.267 493.121 518.087 524.488 444.874C558.436 365.637 560.551 344.058 520.701 326.985C481.314 310.11 430.214 316.735 389.172 298.603C346.74 279.875 312.514 243.274 270.082 224.547Z" fill="#222222"/>
<path d="M424.25 222.563C481.076 236.36 493.272 213.902 518.607 109.558C537.162 33.1369 530.651 -25.5075 489.501 -35.4987C470.886 -40.0185 451.165 -27.1688 445.694 -4.63439C432.729 48.7624 512.319 47.8554 497.689 108.111C479.015 185.021 427.683 169.964 354.201 152.123L254.266 127.858L254.742 125.899C266.975 126.794 355.514 93.3029 366.575 47.7442C370.025 33.5377 362.816 16.2246 342.731 11.3479C277.087 -4.59046 318.44 143.44 202.339 115.25C169.517 107.281 150.137 80.2692 158.107 47.4473C180.111 -43.1803 271.468 14.2769 282.53 -31.2818C287.288 -50.877 275.684 -67.1821 254.129 -72.4156C193.384 -87.1646 155.625 -29.9314 136.832 47.4694C116.493 131.239 117.985 152.87 160.114 163.099C201.754 173.209 251.048 158.203 294.529 169.278C339.478 180.711 379.3 211.13 424.25 222.563Z" fill="#222222"/>
</g>
<defs>
<clipPath id="clip0_255_2225">
<rect width="402.589" height="649.394" fill="white" transform="translate(0.0888672 0.0151367)"/>
</clipPath>
</defs>
</svg>
