<svg width="404" height="650" viewBox="0 0 404 650" fill="none" xmlns="http://www.w3.org/2000/svg">
<g clip-path="url(#clip0_255_2258)">
<path d="M-239.821 239.199C-282.59 279.079 -270.537 301.614 -197.309 380.146C-143.677 437.662 -91.1122 464.467 -60.1419 435.588C-46.1315 422.524 -46.0223 398.987 -61.8367 382.027C-99.3101 341.84 -142.312 408.819 -184.599 363.47C-238.574 305.585 -197.774 270.986 -142.47 219.417L-67.2562 149.284L-65.881 150.758C-73.3545 160.484 -94.06 252.854 -62.0873 287.142C-52.1173 297.834 -33.6923 301.332 -18.5758 287.236C30.8292 241.168 -115.555 194.32 -28.1747 112.842C-3.47215 89.8074 29.7456 88.4716 52.7798 113.174C116.381 181.382 18.1586 226.101 50.1314 260.39C63.8831 275.138 83.8825 274.41 100.105 259.283C145.823 216.653 118.778 153.645 64.4583 95.3916C5.66972 32.345 -13.2188 21.6978 -44.9265 51.264C-76.2655 80.4864 -90.8333 129.912 -123.991 160.141C-158.255 191.401 -205.557 207.939 -239.821 239.199Z" fill="#9FA49F"/>
<path d="M38.5523 465.105C-17.9321 449.97 -30.6554 472.134 -58.4463 575.851C-78.8002 651.813 -73.675 710.595 -32.7725 721.554C-14.269 726.512 5.74907 714.132 11.7509 691.733C25.9725 638.657 -53.617 637.685 -37.5687 577.792C-17.0843 501.343 33.8783 517.608 106.919 537.179L206.253 563.796L205.731 565.743C193.523 564.56 104.218 595.951 92.0839 641.236C88.3001 655.357 95.0985 672.836 115.063 678.185C180.312 695.669 142.465 546.704 257.868 577.626C290.493 586.368 309.229 613.83 300.488 646.454C276.35 736.537 186.374 676.939 174.24 722.224C169.021 741.702 180.237 758.276 201.662 764.017C262.042 780.196 301.142 723.87 321.757 646.934C344.068 563.668 343.087 542.008 301.21 530.787C259.821 519.697 210.186 533.536 166.979 521.437C122.312 508.946 83.2198 477.596 38.5523 465.105Z" fill="#9FA49F"/>
<path d="M270.67 224.547C216.919 201.518 201.167 221.642 158.881 320.341C127.911 392.627 124.608 451.54 163.531 468.216C181.14 475.76 202.718 466.358 211.85 445.043C233.489 394.535 154.85 382.232 179.269 325.237C210.437 252.487 258.563 275.848 328.069 305.627L422.597 346.126L421.803 347.979C409.888 345.068 317.021 363.414 298.558 406.508C292.801 419.946 297.04 438.215 316.038 446.354C378.13 472.957 361.895 320.119 471.715 367.17C502.761 380.471 517.393 410.322 504.092 441.368C467.365 527.093 386.799 455.282 368.336 498.376C360.395 516.911 369.135 534.915 389.523 543.65C446.982 568.267 493.709 518.087 525.076 444.874C559.024 365.637 561.139 344.058 521.289 326.985C481.902 310.11 430.802 316.735 389.76 298.603C347.328 279.875 313.102 243.274 270.67 224.547Z" fill="#9FA49F"/>
<path d="M424.838 222.563C481.664 236.36 493.861 213.902 519.196 109.558C537.751 33.1369 531.24 -25.5075 490.09 -35.4987C471.474 -40.0185 451.754 -27.1688 446.283 -4.63439C433.318 48.7624 512.908 47.8554 498.278 108.111C479.604 185.021 428.272 169.964 354.79 152.123L254.855 127.858L255.33 125.899C267.563 126.794 356.103 93.3029 367.164 47.7442C370.614 33.5377 363.405 16.2246 343.32 11.3479C277.676 -4.59046 319.029 143.44 202.928 115.25C170.106 107.281 150.726 80.2692 158.695 47.4473C180.7 -43.1803 272.057 14.2769 283.119 -31.2818C287.877 -50.877 276.273 -67.1821 254.718 -72.4156C193.973 -87.1646 156.214 -29.9314 137.421 47.4694C117.082 131.239 118.574 152.87 160.703 163.099C202.343 173.209 251.637 158.203 295.117 169.278C340.067 180.711 379.889 211.13 424.838 222.563Z" fill="#9FA49F"/>
</g>
<defs>
<clipPath id="clip0_255_2258">
<rect width="402.589" height="649.394" fill="white" transform="translate(0.677734 0.0151367)"/>
</clipPath>
</defs>
</svg>
