<svg width="404" height="650" viewBox="0 0 404 650" fill="none" xmlns="http://www.w3.org/2000/svg">
<g clip-path="url(#clip0_255_2192)">
<path d="M-239.997 239.199C-282.765 279.079 -270.712 301.614 -197.485 380.146C-143.853 437.662 -91.288 464.467 -60.3177 435.588C-46.3073 422.524 -46.198 398.987 -62.0125 382.027C-99.4859 341.84 -142.488 408.819 -184.775 363.47C-238.75 305.585 -197.95 270.986 -142.646 219.417L-67.432 149.284L-66.0568 150.758C-73.5303 160.484 -94.2358 252.854 -62.2631 287.142C-52.2931 297.834 -33.8681 301.332 -18.7516 287.236C30.6534 241.168 -115.731 194.32 -28.3504 112.842C-3.64793 89.8074 29.5699 88.4716 52.604 113.174C116.206 181.382 17.9829 226.101 49.9556 260.39C63.7073 275.138 83.7067 274.41 99.9293 259.283C145.647 216.653 118.602 153.645 64.2825 95.3916C5.49394 32.345 -13.3946 21.6978 -45.1023 51.264C-76.4413 80.4864 -91.0091 129.912 -124.167 160.141C-158.43 191.401 -205.733 207.939 -239.997 239.199Z" fill="#D7B47F"/>
<path d="M38.3756 465.105C-18.1088 449.97 -30.8322 472.134 -58.6231 575.851C-78.977 651.813 -73.8517 710.595 -32.9492 721.554C-14.4457 726.512 5.57231 714.132 11.5741 691.733C25.7957 638.657 -53.7937 637.685 -37.7455 577.792C-17.2611 501.343 33.7016 517.608 106.742 537.179L206.076 563.796L205.555 565.743C193.346 564.56 104.041 595.951 91.9071 641.236C88.1234 655.357 94.9217 672.836 114.886 678.185C180.135 695.669 142.288 546.704 257.691 577.626C290.316 586.368 309.052 613.83 300.311 646.454C276.173 736.537 186.198 676.939 174.064 722.224C168.845 741.702 180.06 758.276 201.485 764.017C261.865 780.196 300.965 723.87 321.58 646.934C343.891 563.668 342.91 542.008 301.034 530.787C259.644 519.697 210.009 533.536 166.803 521.437C122.135 508.946 83.0431 477.596 38.3756 465.105Z" fill="#D7B47F"/>
<path d="M270.493 224.547C216.742 201.518 200.99 221.642 158.704 320.341C127.734 392.627 124.431 451.54 163.355 468.216C180.963 475.76 202.541 466.358 211.673 445.043C233.312 394.535 154.673 382.232 179.092 325.237C210.261 252.487 258.386 275.848 327.892 305.627L422.42 346.126L421.626 347.979C409.711 345.068 316.844 363.414 298.382 406.508C292.624 419.946 296.863 438.215 315.861 446.354C377.953 472.957 361.718 320.119 471.538 367.17C502.584 380.471 517.216 410.322 503.915 441.368C467.188 527.093 386.623 455.282 368.16 498.376C360.219 516.911 368.958 534.915 389.347 543.65C446.805 568.267 493.532 518.087 524.899 444.874C558.847 365.637 560.962 344.058 521.112 326.985C481.725 310.11 430.625 316.735 389.583 298.603C347.151 279.875 312.925 243.274 270.493 224.547Z" fill="#D7B47F"/>
<path d="M424.662 222.563C481.488 236.36 493.684 213.902 519.019 109.558C537.574 33.1369 531.063 -25.5075 489.913 -35.4987C471.298 -40.0185 451.577 -27.1688 446.106 -4.63439C433.141 48.7624 512.732 47.8554 498.102 108.111C479.427 185.021 428.095 169.964 354.613 152.123L254.678 127.858L255.154 125.899C267.387 126.794 355.926 93.3029 366.987 47.7442C370.437 33.5377 363.228 16.2246 343.143 11.3479C277.499 -4.59046 318.852 143.44 202.751 115.25C169.929 107.281 150.55 80.2692 158.519 47.4473C180.523 -43.1803 271.88 14.2769 282.942 -31.2818C287.7 -50.877 276.096 -67.1821 254.541 -72.4156C193.796 -87.1646 156.037 -29.9314 137.244 47.4694C116.905 131.239 118.397 152.87 160.526 163.099C202.166 173.209 251.46 158.203 294.941 169.278C339.891 180.711 379.712 211.13 424.662 222.563Z" fill="#D7B47F"/>
</g>
<defs>
<clipPath id="clip0_255_2192">
<rect width="402.589" height="649.394" fill="white" transform="translate(0.5 0.0151367)"/>
</clipPath>
</defs>
</svg>
