<svg width="404" height="651" viewBox="0 0 404 651" fill="none" xmlns="http://www.w3.org/2000/svg">
<g clip-path="url(#clip0_255_2560)">
<path d="M708.802 355.124C716.816 342.299 715.693 323.169 703.295 315.422L702.868 315.155C688.333 306.072 683.95 290.255 690.842 277.323L690.415 277.056C682.668 289.453 665.675 291.913 650.712 282.562L651.14 282.83C638.742 275.082 620.788 282.885 613.041 295.283L577.777 351.713C570.03 364.111 573.558 379.393 585.955 387.14C596.215 393.552 597.606 407.499 589.858 419.896L584.515 428.446C576.768 440.844 580.295 456.126 592.693 463.874C580.295 456.126 562.342 463.929 554.594 476.327L551.923 480.602C544.175 492.999 530.603 497.596 520.77 491.451C508.373 483.704 490.419 491.507 482.672 503.904L480 508.179C472.253 520.577 456.97 524.105 444.573 516.357L440.298 513.686C427.9 505.938 412.618 509.466 404.87 521.864L402.199 526.139C411.015 512.031 409.09 494.184 396.692 486.436C386.86 480.292 385.469 466.345 393.217 453.948L395.888 449.673C404.704 435.565 402.779 417.718 390.382 409.97C402.779 417.718 418.062 414.19 425.809 401.792L430.618 394.097C438.365 381.7 451.938 377.103 461.77 383.248C472.885 390.194 486.672 388.109 494.9 377.795C489.664 389.979 493.833 403.284 504.948 410.23C492.551 402.482 475.665 408.575 466.849 422.683L450.553 448.761L476.631 465.057C489.028 472.804 504.311 469.276 512.058 456.879L514.997 452.176C523.813 438.069 539.362 434.113 553.096 439.723L553.363 439.296C541.499 430.693 538.506 414.556 547.589 400.021L547.322 400.448C556.138 386.341 554.213 368.493 541.816 360.746L490.088 328.421C477.69 320.673 460.805 326.766 451.989 340.874L449.852 344.294C442.104 356.691 428.532 361.288 418.699 355.143C406.302 347.396 389.416 353.489 380.6 367.596L377.662 372.299C368.044 382.933 354.685 385.285 343.463 379.461L343.196 379.889C352.815 388.278 356.289 401.743 351.481 414.194L345.336 424.027C337.589 436.424 341.117 451.707 353.514 459.454C363.347 465.599 364.737 479.545 356.99 491.943L351.647 500.493C343.899 512.89 347.427 528.173 359.825 535.92L411.98 568.513C423.523 575.726 442.065 568.885 450.079 556.06L447.408 560.335C439.66 572.732 443.188 588.015 455.586 595.762L456.013 596.029C470.976 605.379 476.213 621.73 468.466 634.128L468.894 634.395C477.496 622.532 493.633 619.538 508.168 628.622L507.741 628.354C520.139 636.102 535.421 632.574 543.168 620.176L562.136 589.824L536.058 573.527C523.661 565.78 505.707 573.583 497.959 585.98C505.974 573.155 504.851 554.025 492.453 546.278C504.851 554.025 520.133 550.498 527.88 538.1L533.223 529.55C540.971 517.152 554.543 512.556 564.376 518.701C576.773 526.448 592.056 522.92 599.803 510.523L635.067 454.092C643.082 441.267 641.958 422.137 629.561 414.39C619.3 407.978 617.91 394.031 625.658 381.634L628.329 377.359C636.344 364.534 635.22 345.404 622.823 337.656C635.22 345.404 650.503 341.876 658.25 329.478C650.503 341.876 654.03 357.158 666.428 364.906L692.506 381.202L708.802 355.124Z" fill="#9FA49F"/>
<path d="M521.908 -19.8703C529.923 -32.6954 528.799 -51.8253 516.402 -59.5727L515.974 -59.8399C501.439 -68.923 497.056 -84.7397 503.949 -97.6716L503.521 -97.9388C495.774 -85.5412 478.782 -83.082 463.819 -92.4323L464.246 -92.1651C451.849 -99.9125 433.895 -92.1097 426.148 -79.7121L390.884 -23.2817C383.136 -10.8841 386.664 4.39834 399.062 12.1457C409.322 18.5573 410.712 32.5039 402.965 44.9015L397.622 53.4516C389.874 65.8492 393.402 81.1316 405.8 88.879C393.402 81.1316 375.448 88.9344 367.701 101.332L365.029 105.607C357.282 118.005 343.709 122.601 333.877 116.457C321.479 108.709 303.525 116.512 295.778 128.91L293.106 133.185C285.359 145.582 270.077 149.11 257.679 141.363L253.404 138.691C241.006 130.944 225.724 134.471 217.977 146.869L215.305 151.144C224.121 137.036 222.196 119.189 209.799 111.442C199.966 105.297 198.576 91.3505 206.323 78.9529L208.995 74.6779C217.811 60.5703 215.886 42.7229 203.488 34.9755C215.886 42.7229 231.168 39.1951 238.916 26.7975L243.724 19.1025C251.472 6.70487 265.044 2.1085 274.877 8.25297C285.992 15.1989 299.778 13.114 308.007 2.80036C302.771 14.9841 306.939 28.2893 318.055 35.2352C305.657 27.4878 288.772 33.5806 279.956 47.6882L263.659 73.7659L289.737 90.0621C302.135 97.8095 317.417 94.2818 325.165 81.8842L328.103 77.1816C336.919 63.074 352.469 59.1187 366.202 64.7286L366.469 64.3011C354.606 55.6987 351.612 39.5613 360.696 25.0262L360.428 25.4537C369.244 11.3461 367.32 -6.5013 354.922 -14.2487L303.194 -46.5739C290.796 -54.3213 273.911 -48.2285 265.095 -34.1209L262.958 -30.7009C255.211 -18.3033 241.638 -13.7069 231.806 -19.8514C219.408 -27.5988 202.523 -21.506 193.707 -7.3984L190.768 -2.69585C181.15 7.93849 167.792 10.2905 156.57 4.46677L156.303 4.89427C165.922 13.283 169.396 26.7486 164.587 39.1995L158.443 49.032C150.696 61.4296 154.223 76.712 166.621 84.4594C176.453 90.6039 177.844 104.551 170.096 116.948L164.753 125.498C157.006 137.896 160.534 153.178 172.931 160.926L225.087 193.518C236.629 200.731 255.171 193.89 263.186 181.065L260.514 185.34C252.767 197.738 256.294 213.02 268.692 220.767L269.12 221.034C284.082 230.385 289.32 246.736 281.573 259.133L282 259.401C290.602 247.537 306.74 244.544 321.275 253.627L320.847 253.36C333.245 261.107 348.527 257.579 356.275 245.182L375.242 214.829L349.165 198.533C336.767 190.785 318.813 198.588 311.066 210.986C319.08 198.161 317.957 179.031 305.559 171.283C317.957 179.031 333.239 175.503 340.987 163.105L346.33 154.555C354.077 142.158 367.65 137.561 377.482 143.706C389.88 151.453 405.162 147.926 412.91 135.528L448.173 79.0975C456.188 66.2724 455.065 47.1425 442.667 39.3951C432.407 32.9835 431.017 19.0368 438.764 6.63923L441.436 2.36421C449.45 -10.4609 448.327 -29.5908 435.929 -37.3382C448.327 -29.5908 463.609 -33.1186 471.356 -45.5162C463.609 -33.1186 467.137 -17.8362 479.534 -10.0888L505.612 6.20739L521.908 -19.8703Z" fill="#9FA49F"/>
<path d="M124.387 232.689C139.356 234.844 156.404 226.094 158.487 211.623L158.559 211.124C161.001 194.16 173.702 183.765 188.316 184.85L188.388 184.351C173.918 182.268 164.808 167.714 167.322 150.25L167.25 150.749C169.334 136.279 154.947 123.003 140.477 120.92L74.6131 111.439C60.143 109.356 47.5854 118.753 45.5023 133.223C43.7784 145.198 31.58 152.1 17.1099 150.017L7.13052 148.58C-7.33954 146.497 -19.8971 155.894 -21.9802 170.364C-19.8971 155.894 -34.2838 142.618 -48.7539 140.535L-53.7436 139.817C-68.2136 137.734 -77.898 127.172 -76.2459 115.696C-74.1628 101.226 -88.5495 87.9499 -103.02 85.8668L-108.009 85.1485C-122.479 83.0654 -131.876 70.5078 -129.793 56.0377L-129.075 51.0481C-126.992 36.578 -136.389 24.0204 -150.859 21.9373L-155.849 21.219C-139.383 23.5894 -123.831 14.6234 -121.748 0.153331C-120.096 -11.3229 -107.898 -18.2251 -93.4275 -16.142L-88.4378 -15.4237C-71.9719 -13.0533 -56.4205 -22.0193 -54.3374 -36.4894C-56.4205 -22.0193 -47.0235 -9.46171 -32.5534 -7.37861L-23.572 -6.08566C-9.10192 -4.00256 0.582413 6.55911 -1.0697 18.0354C-2.93731 31.0086 4.53567 42.7799 17.2934 46.1444C4.03285 46.2726 -6.45703 55.458 -8.32463 68.4312C-6.24154 53.9611 -18.6323 40.9725 -35.0983 38.6021L-65.5353 34.2204L-69.917 64.6574C-72.0001 79.1275 -62.6031 91.6851 -48.133 93.7682L-42.6444 94.5583C-26.1784 96.9288 -16.2825 109.558 -15.8707 124.387L-15.3718 124.459C-12.2907 110.133 1.2648 100.879 18.2297 103.322L17.7307 103.25C34.1967 105.62 49.748 96.6543 51.8311 82.1842L60.5227 21.8091C62.6058 7.33901 50.215 -5.64953 33.749 -8.01995L29.7573 -8.5946C15.2872 -10.6777 5.6029 -21.2394 7.25501 -32.7157C9.33811 -47.1857 -3.05272 -60.1743 -19.5187 -62.5447L-25.0073 -63.3349C-38.6193 -67.841 -46.1641 -79.1133 -45.3662 -91.7311L-45.8652 -91.8029C-49.6568 -79.6161 -60.5739 -71.0015 -73.9062 -70.3743L-85.3824 -72.0264C-99.8525 -74.1095 -112.41 -64.7125 -114.493 -50.2424C-116.145 -38.7662 -128.344 -31.864 -142.814 -33.9471L-152.793 -35.3837C-167.263 -37.4668 -179.821 -28.0698 -181.904 -13.5997L-190.667 47.2743C-192.607 60.7465 -178.863 74.9485 -163.894 77.1034L-168.883 76.3851C-183.353 74.302 -195.911 83.699 -197.994 98.1691L-198.066 98.668C-200.58 116.132 -213.425 127.525 -227.895 125.442L-227.967 125.941C-213.64 129.022 -204.387 142.577 -206.829 159.542L-206.757 159.043C-208.841 173.513 -199.444 186.071 -184.973 188.154L-149.547 193.254L-145.165 162.817C-143.082 148.347 -157.469 135.071 -171.939 132.988C-156.97 135.143 -139.921 126.392 -137.838 111.922C-139.921 126.392 -130.524 138.95 -116.054 141.033L-106.075 142.47C-91.6048 144.553 -81.9205 155.114 -83.5726 166.591C-85.6557 181.061 -76.2587 193.618 -61.7886 195.701L4.07515 205.183C19.0442 207.338 36.0924 198.587 38.1755 184.117C39.8995 172.142 52.0979 165.24 66.568 167.323L71.5577 168.041C86.5267 170.196 103.575 161.446 105.658 146.976C103.575 161.446 112.972 174.003 127.442 176.086C112.972 174.003 100.414 183.4 98.3313 197.87L93.9496 228.307L124.387 232.689Z" fill="#9FA49F"/>
<path d="M-69.7211 247.024C-84.7897 245.738 -101.303 255.461 -102.546 270.027L-102.589 270.529C-104.045 287.607 -116.124 298.719 -130.776 298.481L-130.819 298.984C-116.253 300.226 -106.316 314.228 -107.816 331.808L-107.773 331.306C-109.015 345.872 -93.8848 358.294 -79.3184 359.536L-13.0164 365.192C1.54991 366.434 13.5428 356.327 14.7854 341.76C15.8136 329.705 27.5923 322.109 42.1587 323.352L52.2044 324.208C66.7708 325.451 78.7637 315.343 80.0062 300.777C78.7637 315.343 93.8943 327.765 108.461 329.007L113.484 329.436C128.05 330.678 138.329 340.662 137.344 352.214C136.101 366.781 151.232 379.202 165.798 380.445L170.821 380.873C185.387 382.116 195.495 394.109 194.252 408.675L193.824 413.698C192.581 428.264 202.689 440.257 217.256 441.5L222.278 441.928C205.703 440.514 190.696 450.365 189.454 464.931C188.468 476.484 176.69 484.08 162.123 482.838L157.1 482.409C140.525 480.995 125.518 490.846 124.276 505.412C125.518 490.846 115.411 478.853 100.844 477.61L91.803 476.839C77.2366 475.597 66.9575 465.613 67.943 454.06C69.0569 441.001 60.9155 429.682 47.9846 427.061C61.2154 426.166 71.1564 416.389 72.2703 403.329C71.0278 417.896 84.1493 430.146 100.725 431.559L131.364 434.173L133.978 403.533C135.22 388.967 125.113 376.974 110.546 375.732L105.021 375.26C88.4457 373.846 77.8356 361.811 76.5667 347.03L76.0644 346.987C73.8173 361.468 60.8198 371.49 43.7421 370.033L44.2443 370.076C27.6689 368.662 12.6622 378.513 11.4197 393.079L6.23542 453.856C4.99291 468.422 18.1144 480.672 34.6899 482.086L38.7082 482.429C53.2745 483.672 63.5536 493.655 62.5682 505.208C61.3257 519.774 74.4471 532.024 91.0226 533.438L96.5478 533.909C110.398 537.621 118.582 548.438 118.515 561.08L119.018 561.123C122.098 548.737 132.498 539.506 145.772 538.108L157.325 539.094C171.891 540.336 183.884 530.229 185.126 515.662C186.112 504.11 197.891 496.513 212.457 497.756L222.503 498.613C237.069 499.855 249.062 489.747 250.304 475.181L255.532 413.902C256.688 400.34 242.146 386.957 227.077 385.672L232.1 386.1C246.666 387.343 258.659 377.235 259.902 362.669L259.945 362.166C261.444 344.586 273.608 332.469 288.175 333.712L288.218 333.21C273.737 330.963 263.715 317.965 265.172 300.887L265.129 301.39C266.371 286.823 256.264 274.83 241.697 273.588L206.035 270.546L203.421 301.185C202.179 315.752 217.309 328.173 231.876 329.416C216.807 328.13 200.294 337.852 199.051 352.419C200.294 337.852 190.186 325.859 175.62 324.617L165.574 323.76C151.007 322.517 140.728 312.534 141.714 300.981C142.956 286.415 132.849 274.422 118.282 273.179L51.9802 267.524C36.9116 266.238 20.3981 275.96 19.1556 290.527C18.1273 302.582 6.34858 310.178 -8.21778 308.936L-13.2406 308.507C-28.3093 307.222 -44.8228 316.944 -46.0653 331.51C-44.8228 316.944 -54.9305 304.951 -69.4969 303.708C-54.9305 304.951 -42.9376 294.843 -41.6951 280.277L-39.0815 249.637L-69.7211 247.024Z" fill="#9FA49F"/>
<path d="M19.3485 579.477C4.2294 579.834 -11.1319 591.29 -10.7868 605.905L-10.7749 606.409C-10.3703 623.544 -21.1721 635.901 -35.7635 637.255L-35.7516 637.758C-21.1364 637.413 -9.73963 650.255 -9.32314 667.894L-9.33504 667.39C-8.98994 682.005 7.39894 692.712 22.0141 692.366L88.5383 690.796C103.153 690.451 113.979 679.101 113.634 664.486C113.348 652.391 124.233 643.562 138.849 643.217L148.928 642.979C163.543 642.633 174.369 631.284 174.024 616.669C174.369 631.284 190.758 641.991 205.373 641.646L210.413 641.527C225.028 641.182 236.329 649.991 236.603 661.583C236.948 676.198 253.337 686.904 267.952 686.559L272.992 686.44C287.607 686.095 298.956 696.921 299.301 711.536L299.42 716.576C299.765 731.191 311.114 742.016 325.73 741.671L330.769 741.552C314.138 741.945 300.289 753.366 300.634 767.981C300.908 779.572 290.023 788.401 275.407 788.747L270.368 788.866C253.737 789.258 239.887 800.679 240.232 815.294C239.887 800.679 228.538 789.853 213.923 790.198L204.851 790.413C190.236 790.758 178.935 781.948 178.661 770.357C178.352 757.253 169.03 746.884 155.891 745.682C168.947 743.356 177.769 732.559 177.459 719.456C177.804 734.071 192.177 744.825 208.808 744.432L239.551 743.706L238.825 712.964C238.48 698.349 227.13 687.523 212.515 687.868L206.972 687.999C190.34 688.392 178.487 677.578 175.622 663.023L175.118 663.035C174.456 677.673 162.622 689.046 145.487 689.451L145.991 689.439C129.36 689.832 115.511 701.252 115.856 715.868L117.296 776.848C117.641 791.463 132.014 802.217 148.645 801.825L152.676 801.73C167.292 801.384 178.593 810.194 178.867 821.785C179.212 836.401 193.585 847.155 210.216 846.762L215.76 846.631C229.93 848.818 239.24 858.683 240.545 871.259L241.049 871.247C242.768 858.6 252.105 848.294 265.149 845.465L276.74 845.191C291.355 844.846 302.181 833.497 301.836 818.882C301.562 807.291 312.447 798.461 327.062 798.116L337.142 797.878C351.757 797.533 362.583 786.184 362.238 771.569L360.786 710.084C360.464 696.477 344.556 684.751 329.437 685.108L334.476 684.989C349.091 684.644 359.917 673.294 359.572 658.679L359.56 658.175C359.144 640.536 369.922 627.171 384.537 626.826L384.525 626.322C369.886 625.659 358.513 613.826 358.108 596.691L358.12 597.195C357.775 582.58 346.426 571.754 331.811 572.099L296.029 572.944L296.755 603.686C297.1 618.301 313.489 629.008 328.104 628.663C312.985 629.02 297.623 640.476 297.968 655.091C297.623 640.476 286.274 629.651 271.659 629.996L261.58 630.234C246.964 630.579 235.663 621.769 235.389 610.178C235.044 595.562 223.695 584.737 209.08 585.082L142.556 586.653C127.436 587.01 112.075 598.466 112.42 613.081C112.706 625.177 101.821 634.006 87.2055 634.351L82.1658 634.47C67.0467 634.827 51.6854 646.283 52.0305 660.898C51.6854 646.283 40.3362 635.458 25.721 635.803C40.3362 635.458 51.1618 624.108 50.8167 609.493L50.0908 578.751L19.3485 579.477Z" fill="#9FA49F"/>
</g>
<defs>
<clipPath id="clip0_255_2560">
<rect width="402.589" height="649.394" fill="white" transform="translate(0.444336 0.621094)"/>
</clipPath>
</defs>
</svg>
