<svg width="404" height="651" viewBox="0 0 404 651" fill="none" xmlns="http://www.w3.org/2000/svg">
<g clip-path="url(#clip0_255_2492)">
<path d="M709.213 355.124C717.228 342.299 716.104 323.169 703.707 315.422L703.279 315.155C688.744 306.072 684.361 290.255 691.254 277.323L690.826 277.056C683.079 289.453 666.086 291.913 651.124 282.562L651.551 282.83C639.154 275.082 621.2 282.885 613.452 295.283L578.188 351.713C570.441 364.111 573.969 379.393 586.366 387.14C596.626 393.552 598.017 407.499 590.269 419.896L584.926 428.446C577.179 440.844 580.707 456.126 593.104 463.874C580.707 456.126 562.753 463.929 555.005 476.327L552.334 480.602C544.586 492.999 531.014 497.596 521.181 491.451C508.784 483.704 490.83 491.507 483.083 503.904L480.411 508.179C472.664 520.577 457.381 524.105 444.984 516.357L440.709 513.686C428.311 505.938 413.029 509.466 405.281 521.864L402.61 526.139C411.426 512.031 409.501 494.184 397.103 486.436C387.271 480.292 385.881 466.345 393.628 453.948L396.299 449.673C405.115 435.565 403.191 417.718 390.793 409.97C403.191 417.718 418.473 414.19 426.22 401.792L431.029 394.097C438.776 381.7 452.349 377.103 462.181 383.248C473.296 390.194 487.083 388.109 495.311 377.795C490.075 389.979 494.244 403.284 505.359 410.23C492.962 402.482 476.076 408.575 467.26 422.683L450.964 448.761L477.042 465.057C489.439 472.804 504.722 469.276 512.469 456.879L515.408 452.176C524.224 438.069 539.773 434.113 553.507 439.723L553.774 439.296C541.911 430.693 538.917 414.556 548 400.021L547.733 400.448C556.549 386.341 554.624 368.493 542.227 360.746L490.499 328.421C478.101 320.673 461.216 326.766 452.4 340.874L450.263 344.294C442.515 356.691 428.943 361.288 419.11 355.143C406.713 347.396 389.827 353.489 381.011 367.596L378.073 372.299C368.455 382.933 355.096 385.285 343.874 379.461L343.607 379.889C353.226 388.278 356.7 401.743 351.892 414.194L345.748 424.027C338 436.424 341.528 451.707 353.926 459.454C363.758 465.599 365.148 479.545 357.401 491.943L352.058 500.493C344.311 512.89 347.838 528.173 360.236 535.92L412.391 568.513C423.934 575.726 442.476 568.885 450.49 556.06L447.819 560.335C440.071 572.732 443.599 588.015 455.997 595.762L456.424 596.029C471.387 605.379 476.625 621.73 468.877 634.128L469.305 634.395C477.907 622.532 494.044 619.538 508.58 628.622L508.152 628.354C520.55 636.102 535.832 632.574 543.579 620.176L562.547 589.824L536.469 573.527C524.072 565.78 506.118 573.583 498.371 585.98C506.385 573.155 505.262 554.025 492.864 546.278C505.262 554.025 520.544 550.498 528.292 538.1L533.635 529.55C541.382 517.152 554.954 512.556 564.787 518.701C577.184 526.448 592.467 522.92 600.214 510.523L635.478 454.092C643.493 441.267 642.369 422.137 629.972 414.39C619.712 407.978 618.321 394.031 626.069 381.634L628.74 377.359C636.755 364.534 635.631 345.404 623.234 337.656C635.631 345.404 650.914 341.876 658.661 329.478C650.914 341.876 654.441 357.158 666.839 364.906L692.917 381.202L709.213 355.124Z" fill="#222222"/>
<path d="M522.32 -19.8703C530.335 -32.6954 529.212 -51.8253 516.814 -59.5727L516.386 -59.8399C501.851 -68.923 497.469 -84.7397 504.361 -97.6716L503.933 -97.9388C496.186 -85.5412 479.194 -83.082 464.231 -92.4323L464.659 -92.1651C452.261 -99.9125 434.307 -92.1097 426.56 -79.7121L391.296 -23.2817C383.548 -10.8841 387.076 4.39834 399.474 12.1457C409.734 18.5573 411.124 32.5039 403.377 44.9015L398.034 53.4516C390.286 65.8492 393.814 81.1316 406.212 88.879C393.814 81.1316 375.86 88.9344 368.113 101.332L365.441 105.607C357.694 118.005 344.121 122.601 334.289 116.457C321.891 108.709 303.937 116.512 296.19 128.91L293.519 133.185C285.771 145.582 270.489 149.11 258.091 141.363L253.816 138.691C241.419 130.944 226.136 134.471 218.389 146.869L215.717 151.144C224.533 137.036 222.608 119.189 210.211 111.442C200.378 105.297 198.988 91.3505 206.735 78.9529L209.407 74.6779C218.223 60.5703 216.298 42.7229 203.9 34.9755C216.298 42.7229 231.58 39.1951 239.328 26.7975L244.136 19.1025C251.884 6.70487 265.456 2.1085 275.289 8.25297C286.404 15.1989 300.19 13.114 308.419 2.80036C303.183 14.9841 307.352 28.2893 318.467 35.2352C306.069 27.4878 289.184 33.5806 280.368 47.6882L264.072 73.7659L290.149 90.0621C302.547 97.8095 317.829 94.2818 325.577 81.8842L328.515 77.1816C337.331 63.074 352.881 59.1187 366.614 64.7286L366.881 64.3011C355.018 55.6987 352.025 39.5613 361.108 25.0262L360.841 25.4537C369.657 11.3461 367.732 -6.5013 355.334 -14.2487L303.606 -46.5739C291.209 -54.3213 274.323 -48.2285 265.507 -34.1209L263.37 -30.7009C255.623 -18.3033 242.05 -13.7069 232.218 -19.8514C219.82 -27.5988 202.935 -21.506 194.119 -7.3984L191.18 -2.69585C181.563 7.93849 168.204 10.2905 156.982 4.46677L156.715 4.89427C166.334 13.283 169.808 26.7486 164.999 39.1995L158.855 49.032C151.108 61.4296 154.635 76.712 167.033 84.4594C176.866 90.6039 178.256 104.551 170.508 116.948L165.165 125.498C157.418 137.896 160.946 153.178 173.343 160.926L225.499 193.518C237.041 200.731 255.583 193.89 263.598 181.065L260.926 185.34C253.179 197.738 256.707 213.02 269.104 220.767L269.532 221.034C284.494 230.385 289.732 246.736 281.985 259.133L282.412 259.401C291.015 247.537 307.152 244.544 321.687 253.627L321.26 253.36C333.657 261.107 348.94 257.579 356.687 245.182L375.655 214.829L349.577 198.533C337.179 190.785 319.225 198.588 311.478 210.986C319.493 198.161 318.369 179.031 305.972 171.283C318.369 179.031 333.652 175.503 341.399 163.105L346.742 154.555C354.489 142.158 368.062 137.561 377.894 143.706C390.292 151.453 405.574 147.926 413.322 135.528L448.586 79.0975C456.6 66.2724 455.477 47.1425 443.079 39.3951C432.819 32.9835 431.429 19.0368 439.176 6.63923L441.848 2.36421C449.862 -10.4609 448.739 -29.5908 436.341 -37.3382C448.739 -29.5908 464.021 -33.1186 471.769 -45.5162C464.021 -33.1186 467.549 -17.8362 479.947 -10.0888L506.024 6.20739L522.32 -19.8703Z" fill="#222222"/>
<path d="M124.799 232.689C139.768 234.844 156.816 226.094 158.899 211.623L158.971 211.124C161.413 194.16 174.115 183.765 188.728 184.85L188.8 184.351C174.33 182.268 165.22 167.714 167.734 150.25L167.663 150.749C169.746 136.279 155.359 123.003 140.889 120.92L75.0252 111.439C60.5551 109.356 47.9975 118.753 45.9144 133.223C44.1905 145.198 31.9921 152.1 17.522 150.017L7.54263 148.58C-6.92743 146.497 -19.485 155.894 -21.5681 170.364C-19.485 155.894 -33.8717 142.618 -48.3418 140.535L-53.3314 139.817C-67.8015 137.734 -77.4859 127.172 -75.8338 115.696C-73.7507 101.226 -88.1373 87.9499 -102.607 85.8668L-107.597 85.1485C-122.067 83.0654 -131.464 70.5078 -129.381 56.0377L-128.663 51.0481C-126.58 36.578 -135.977 24.0204 -150.447 21.9373L-155.436 21.219C-138.97 23.5894 -123.419 14.6234 -121.336 0.153331C-119.684 -11.3229 -107.485 -18.2251 -93.0154 -16.142L-88.0257 -15.4237C-71.5598 -13.0533 -56.0084 -22.0193 -53.9253 -36.4894C-56.0084 -22.0193 -46.6114 -9.46171 -32.1413 -7.37861L-23.1599 -6.08566C-8.68981 -4.00256 0.994522 6.55911 -0.657591 18.0354C-2.5252 31.0086 4.94778 42.7799 17.7055 46.1444C4.44496 46.2726 -6.04492 55.458 -7.91252 68.4312C-5.82943 53.9611 -18.2202 40.9725 -34.6862 38.6021L-65.1232 34.2204L-69.5049 64.6574C-71.588 79.1275 -62.191 91.6851 -47.7209 93.7682L-42.2323 94.5583C-25.7663 96.9288 -15.8704 109.558 -15.4586 124.387L-14.9596 124.459C-11.8786 110.133 1.67691 100.879 18.6418 103.322L18.1428 103.25C34.6088 105.62 50.1601 96.6543 52.2432 82.1842L60.9348 21.8091C63.0179 7.33901 50.6271 -5.64953 34.1611 -8.01995L30.1694 -8.5946C15.6993 -10.6777 6.01501 -21.2394 7.66712 -32.7157C9.75022 -47.1857 -2.64061 -60.1743 -19.1065 -62.5447L-24.5952 -63.3349C-38.2072 -67.841 -45.7519 -79.1133 -44.9541 -91.7311L-45.4531 -91.8029C-49.2447 -79.6161 -60.1617 -71.0015 -73.494 -70.3743L-84.9703 -72.0264C-99.4404 -74.1095 -111.998 -64.7125 -114.081 -50.2424C-115.733 -38.7662 -127.932 -31.864 -142.402 -33.9471L-152.381 -35.3837C-166.851 -37.4668 -179.409 -28.0698 -181.492 -13.5997L-190.255 47.2743C-192.195 60.7465 -178.451 74.9485 -163.481 77.1034L-168.471 76.3851C-182.941 74.302 -195.499 83.699 -197.582 98.1691L-197.654 98.668C-200.168 116.132 -213.013 127.525 -227.483 125.442L-227.555 125.941C-213.228 129.022 -203.975 142.577 -206.417 159.542L-206.345 159.043C-208.428 173.513 -199.031 186.071 -184.561 188.154L-149.135 193.254L-144.753 162.817C-142.67 148.347 -157.056 135.071 -171.527 132.988C-156.558 135.143 -139.509 126.392 -137.426 111.922C-139.509 126.392 -130.112 138.95 -115.642 141.033L-105.663 142.47C-91.1927 144.553 -81.5084 155.114 -83.1605 166.591C-85.2436 181.061 -75.8466 193.618 -61.3765 195.701L4.48726 205.183C19.4563 207.338 36.5045 198.587 38.5876 184.117C40.3116 172.142 52.51 165.24 66.9801 167.323L71.9698 168.041C86.9388 170.196 103.987 161.446 106.07 146.976C103.987 161.446 113.384 174.003 127.854 176.086C113.384 174.003 100.827 183.4 98.7434 197.87L94.3617 228.307L124.799 232.689Z" fill="#222222"/>
<path d="M-69.31 247.024C-84.3786 245.738 -100.892 255.461 -102.135 270.027L-102.177 270.529C-103.634 287.607 -115.713 298.719 -130.365 298.481L-130.408 298.984C-115.841 300.226 -105.905 314.228 -107.405 331.808L-107.362 331.306C-108.604 345.872 -93.4736 358.294 -78.9073 359.536L-12.6053 365.192C1.96104 366.434 13.954 356.327 15.1965 341.76C16.2248 329.705 28.0034 322.109 42.5698 323.352L52.6156 324.208C67.1819 325.451 79.1748 315.343 80.4173 300.777C79.1748 315.343 94.3054 327.765 108.872 329.007L113.895 329.436C128.461 330.678 138.74 340.662 137.755 352.214C136.512 366.781 151.643 379.202 166.209 380.445L171.232 380.873C185.798 382.116 195.906 394.109 194.664 408.675L194.235 413.698C192.993 428.264 203.1 440.257 217.667 441.5L222.69 441.928C206.114 440.514 191.107 450.365 189.865 464.931C188.879 476.484 177.101 484.08 162.534 482.838L157.512 482.409C140.936 480.995 125.929 490.846 124.687 505.412C125.929 490.846 115.822 478.853 101.255 477.61L92.2141 476.839C77.6478 475.597 67.3687 465.613 68.3541 454.06C69.4681 441.001 61.3266 429.682 48.3957 427.061C61.6266 426.166 71.5675 416.389 72.6815 403.329C71.439 417.896 84.5604 430.146 101.136 431.559L131.775 434.173L134.389 403.533C135.632 388.967 125.524 376.974 110.957 375.732L105.432 375.26C88.8568 373.846 78.2468 361.811 76.9778 347.03L76.4756 346.987C74.2285 361.468 61.231 371.49 44.1532 370.033L44.6555 370.076C28.08 368.662 13.0733 378.513 11.8308 393.079L6.64656 453.856C5.40404 468.422 18.5255 480.672 35.101 482.086L39.1193 482.429C53.6856 483.672 63.9647 493.655 62.9793 505.208C61.7368 519.774 74.8583 532.024 91.4337 533.438L96.9589 533.909C110.809 537.621 118.993 548.438 118.926 561.08L119.429 561.123C122.509 548.737 132.909 539.506 146.183 538.108L157.736 539.094C172.302 540.336 184.295 530.229 185.538 515.662C186.523 504.11 198.302 496.513 212.868 497.756L222.914 498.613C237.48 499.855 249.473 489.747 250.716 475.181L255.943 413.902C257.1 400.34 242.557 386.957 227.488 385.672L232.511 386.1C247.077 387.343 259.07 377.235 260.313 362.669L260.356 362.166C261.855 344.586 274.02 332.469 288.586 333.712L288.629 333.21C274.148 330.963 264.126 317.965 265.583 300.887L265.54 301.39C266.783 286.823 256.675 274.83 242.108 273.588L206.446 270.546L203.832 301.185C202.59 315.752 217.721 328.173 232.287 329.416C217.218 328.13 200.705 337.852 199.462 352.419C200.705 337.852 190.597 325.859 176.031 324.617L165.985 323.76C151.419 322.517 141.139 312.534 142.125 300.981C143.367 286.415 133.26 274.422 118.693 273.179L52.3913 267.524C37.3227 266.238 20.8092 275.96 19.5667 290.527C18.5384 302.582 6.75971 310.178 -7.80664 308.936L-12.8295 308.507C-27.8981 307.222 -44.4117 316.944 -45.6542 331.51C-44.4117 316.944 -54.5194 304.951 -69.0858 303.708C-54.5194 304.951 -42.5265 294.843 -41.284 280.277L-38.6704 249.637L-69.31 247.024Z" fill="#222222"/>
<path d="M19.7597 579.477C4.64054 579.834 -10.7208 591.29 -10.3757 605.905L-10.3638 606.409C-9.95919 623.544 -20.761 635.901 -35.3523 637.255L-35.3404 637.758C-20.7253 637.413 -9.3285 650.255 -8.91201 667.894L-8.92391 667.39C-8.57881 682.005 7.81007 692.712 22.4252 692.366L88.9494 690.796C103.565 690.451 114.39 679.101 114.045 664.486C113.76 652.391 124.645 643.562 139.26 643.217L149.339 642.979C163.954 642.633 174.78 631.284 174.435 616.669C174.78 631.284 191.169 641.991 205.784 641.646L210.824 641.527C225.439 641.182 236.74 649.991 237.014 661.583C237.359 676.198 253.748 686.904 268.363 686.559L273.403 686.44C288.018 686.095 299.367 696.921 299.712 711.536L299.831 716.576C300.176 731.191 311.526 742.016 326.141 741.671L331.18 741.552C314.549 741.945 300.7 753.366 301.045 767.981C301.319 779.572 290.434 788.401 275.819 788.747L270.779 788.866C254.148 789.258 240.298 800.679 240.644 815.294C240.298 800.679 228.949 789.853 214.334 790.198L205.263 790.413C190.647 790.758 179.346 781.948 179.072 770.357C178.763 757.253 169.441 746.884 156.302 745.682C169.358 743.356 178.18 732.559 177.87 719.456C178.215 734.071 192.588 744.825 209.219 744.432L239.962 743.706L239.236 712.964C238.891 698.349 227.542 687.523 212.926 687.868L207.383 687.999C190.752 688.392 178.898 677.578 176.034 663.023L175.53 663.035C174.867 677.673 163.033 689.046 145.898 689.451L146.402 689.439C129.771 689.832 115.922 701.252 116.267 715.868L117.707 776.848C118.052 791.463 132.425 802.217 149.056 801.825L153.088 801.73C167.703 801.384 179.004 810.194 179.278 821.785C179.623 836.401 193.996 847.155 210.627 846.762L216.171 846.631C230.342 848.818 239.651 858.683 240.956 871.259L241.46 871.247C243.179 858.6 252.516 848.294 265.56 845.465L277.151 845.191C291.767 844.846 302.592 833.497 302.247 818.882C301.973 807.291 312.858 798.461 327.474 798.116L337.553 797.878C352.168 797.533 362.994 786.184 362.649 771.569L361.197 710.084C360.876 696.477 344.967 684.751 329.848 685.108L334.887 684.989C349.503 684.644 360.328 673.294 359.983 658.679L359.971 658.175C359.555 640.536 370.333 627.171 384.948 626.826L384.936 626.322C370.297 625.659 358.924 613.826 358.519 596.691L358.531 597.195C358.186 582.58 346.837 571.754 332.222 572.099L296.44 572.944L297.166 603.686C297.511 618.301 313.9 629.008 328.515 628.663C313.396 629.02 298.034 640.476 298.38 655.091C298.034 640.476 286.685 629.651 272.07 629.996L261.991 630.234C247.376 630.579 236.074 621.769 235.8 610.178C235.455 595.562 224.106 584.737 209.491 585.082L142.967 586.653C127.848 587.01 112.486 598.466 112.831 613.081C113.117 625.177 102.232 634.006 87.6167 634.351L82.577 634.47C67.4578 634.827 52.0965 646.283 52.4416 660.898C52.0965 646.283 40.7473 635.458 26.1322 635.803C40.7473 635.458 51.5729 624.108 51.2278 609.493L50.5019 578.751L19.7597 579.477Z" fill="#222222"/>
</g>
<defs>
<clipPath id="clip0_255_2492">
<rect width="402.589" height="649.394" fill="white" transform="translate(0.855469 0.621094)"/>
</clipPath>
</defs>
</svg>
