<svg width="403" height="651" viewBox="0 0 403 651" fill="none" xmlns="http://www.w3.org/2000/svg">
<g clip-path="url(#clip0_255_2526)">
<path d="M708.625 355.124C716.64 342.299 715.516 323.169 703.119 315.422L702.691 315.155C688.156 306.072 683.773 290.255 690.666 277.323L690.238 277.056C682.491 289.453 665.498 291.913 650.536 282.562L650.963 282.83C638.566 275.082 620.612 282.885 612.864 295.283L577.6 351.713C569.853 364.111 573.381 379.393 585.778 387.14C596.038 393.552 597.429 407.499 589.681 419.896L584.338 428.446C576.591 440.844 580.119 456.126 592.516 463.874C580.119 456.126 562.165 463.929 554.417 476.327L551.746 480.602C543.999 492.999 530.426 497.596 520.594 491.451C508.196 483.704 490.242 491.507 482.495 503.904L479.823 508.179C472.076 520.577 456.793 524.105 444.396 516.357L440.121 513.686C427.723 505.938 412.441 509.466 404.693 521.864L402.022 526.139C410.838 512.031 408.913 494.184 396.515 486.436C386.683 480.292 385.293 466.345 393.04 453.948L395.712 449.673C404.528 435.565 402.603 417.718 390.205 409.97C402.603 417.718 417.885 414.19 425.632 401.792L430.441 394.097C438.189 381.7 451.761 377.103 461.593 383.248C472.709 390.194 486.495 388.109 494.723 377.795C489.487 389.979 493.656 403.284 504.771 410.23C492.374 402.482 475.488 408.575 466.672 422.683L450.376 448.761L476.454 465.057C488.852 472.804 504.134 469.276 511.881 456.879L514.82 452.176C523.636 438.069 539.186 434.113 552.919 439.723L553.186 439.296C541.323 430.693 538.329 414.556 547.412 400.021L547.145 400.448C555.961 386.341 554.036 368.493 541.639 360.746L489.911 328.421C477.513 320.673 460.628 326.766 451.812 340.874L449.675 344.294C441.927 356.691 428.355 361.288 418.522 355.143C406.125 347.396 389.24 353.489 380.424 367.596L377.485 372.299C367.867 382.933 354.508 385.285 343.287 379.461L343.019 379.889C352.638 388.278 356.113 401.743 351.304 414.194L345.16 424.027C337.412 436.424 340.94 451.707 353.338 459.454C363.17 465.599 364.56 479.545 356.813 491.943L351.47 500.493C343.723 512.89 347.25 528.173 359.648 535.92L411.803 568.513C423.346 575.726 441.888 568.885 449.902 556.06L447.231 560.335C439.483 572.732 443.011 588.015 455.409 595.762L455.836 596.029C470.799 605.379 476.037 621.73 468.289 634.128L468.717 634.395C477.319 622.532 493.457 619.538 507.992 628.622L507.564 628.354C519.962 636.102 535.244 632.574 542.992 620.176L561.959 589.824L535.882 573.527C523.484 565.78 505.53 573.583 497.783 585.98C505.797 573.155 504.674 554.025 492.276 546.278C504.674 554.025 519.956 550.498 527.704 538.1L533.047 529.55C540.794 517.152 554.366 512.556 564.199 518.701C576.597 526.448 591.879 522.92 599.626 510.523L634.89 454.092C642.905 441.267 641.781 422.137 629.384 414.39C619.124 407.978 617.733 394.031 625.481 381.634L628.152 377.359C636.167 364.534 635.043 345.404 622.646 337.656C635.043 345.404 650.326 341.876 658.073 329.478C650.326 341.876 653.854 357.158 666.251 364.906L692.329 381.202L708.625 355.124Z" fill="#D7B47F"/>
<path d="M521.732 -19.8703C529.746 -32.6954 528.623 -51.8253 516.225 -59.5727L515.798 -59.8399C501.262 -68.923 496.88 -84.7397 503.772 -97.6716L503.345 -97.9388C495.597 -85.5412 478.605 -83.082 463.642 -92.4323L464.07 -92.1651C451.672 -99.9125 433.718 -92.1097 425.971 -79.7121L390.707 -23.2817C382.96 -10.8841 386.487 4.39834 398.885 12.1457C409.145 18.5573 410.535 32.5039 402.788 44.9015L397.445 53.4516C389.697 65.8492 393.225 81.1316 405.623 88.879C393.225 81.1316 375.271 88.9344 367.524 101.332L364.852 105.607C357.105 118.005 343.533 122.601 333.7 116.457C321.302 108.709 303.349 116.512 295.601 128.91L292.93 133.185C285.182 145.582 269.9 149.11 257.502 141.363L253.227 138.691C240.83 130.944 225.547 134.471 217.8 146.869L215.128 151.144C223.944 137.036 222.02 119.189 209.622 111.442C199.789 105.297 198.399 91.3505 206.147 78.9529L208.818 74.6779C217.634 60.5703 215.709 42.7229 203.312 34.9755C215.709 42.7229 230.992 39.1951 238.739 26.7975L243.548 19.1025C251.295 6.70487 264.867 2.1085 274.7 8.25297C285.815 15.1989 299.601 13.114 307.83 2.80036C302.594 14.9841 306.763 28.2893 317.878 35.2352C305.48 27.4878 288.595 33.5806 279.779 47.6882L263.483 73.7659L289.56 90.0621C301.958 97.8095 317.24 94.2818 324.988 81.8842L327.926 77.1816C336.742 63.074 352.292 59.1187 366.025 64.7286L366.292 64.3011C354.429 55.6987 351.436 39.5613 360.519 25.0262L360.252 25.4537C369.068 11.3461 367.143 -6.5013 354.745 -14.2487L303.017 -46.5739C290.62 -54.3213 273.734 -48.2285 264.918 -34.1209L262.781 -30.7009C255.034 -18.3033 241.461 -13.7069 231.629 -19.8514C219.231 -27.5988 202.346 -21.506 193.53 -7.3984L190.591 -2.69585C180.974 7.93849 167.615 10.2905 156.393 4.46677L156.126 4.89427C165.745 13.283 169.219 26.7486 164.411 39.1995L158.266 49.032C150.519 61.4296 154.046 76.712 166.444 84.4594C176.277 90.6039 177.667 104.551 169.92 116.948L164.577 125.498C156.829 137.896 160.357 153.178 172.755 160.926L224.91 193.518C236.452 200.731 254.994 193.89 263.009 181.065L260.337 185.34C252.59 197.738 256.118 213.02 268.515 220.767L268.943 221.034C283.905 230.385 289.143 246.736 281.396 259.133L281.823 259.401C290.426 247.537 306.563 244.544 321.098 253.627L320.671 253.36C333.068 261.107 348.351 257.579 356.098 245.182L375.066 214.829L348.988 198.533C336.59 190.785 318.637 198.588 310.889 210.986C318.904 198.161 317.78 179.031 305.383 171.283C317.78 179.031 333.063 175.503 340.81 163.105L346.153 154.555C353.9 142.158 367.473 137.561 377.305 143.706C389.703 151.453 404.985 147.926 412.733 135.528L447.997 79.0975C456.011 66.2724 454.888 47.1425 442.49 39.3951C432.23 32.9835 430.84 19.0368 438.587 6.63923L441.259 2.36421C449.273 -10.4609 448.15 -29.5908 435.752 -37.3382C448.15 -29.5908 463.432 -33.1186 471.18 -45.5162C463.432 -33.1186 466.96 -17.8362 479.358 -10.0888L505.435 6.20739L521.732 -19.8703Z" fill="#D7B47F"/>
<path d="M124.211 232.689C139.18 234.844 156.228 226.094 158.311 211.623L158.383 211.124C160.825 194.16 173.527 183.765 188.14 184.85L188.212 184.351C173.742 182.268 164.632 167.714 167.147 150.25L167.075 150.749C169.158 136.279 154.771 123.003 140.301 120.92L74.4373 111.439C59.9672 109.356 47.4096 118.753 45.3265 133.223C43.6026 145.198 31.4042 152.1 16.9341 150.017L6.95474 148.58C-7.51532 146.497 -20.0729 155.894 -22.156 170.364C-20.0729 155.894 -34.4596 142.618 -48.9297 140.535L-53.9193 139.817C-68.3894 137.734 -78.0738 127.172 -76.4216 115.696C-74.3385 101.226 -88.7252 87.9499 -103.195 85.8668L-108.185 85.1485C-122.655 83.0654 -132.052 70.5078 -129.969 56.0377L-129.251 51.0481C-127.168 36.578 -136.565 24.0204 -151.035 21.9373L-156.024 21.219C-139.558 23.5894 -124.007 14.6234 -121.924 0.153331C-120.272 -11.3229 -108.073 -18.2251 -93.6033 -16.142L-88.6136 -15.4237C-72.1477 -13.0533 -56.5963 -22.0193 -54.5132 -36.4894C-56.5963 -22.0193 -47.1993 -9.46171 -32.7292 -7.37861L-23.7478 -6.08566C-9.2777 -4.00256 0.406632 6.55911 -1.24548 18.0354C-3.11309 31.0086 4.35989 42.7799 17.1176 46.1444C3.85707 46.2726 -6.63281 55.458 -8.50041 68.4312C-6.41732 53.9611 -18.8081 40.9725 -35.2741 38.6021L-65.7111 34.2204L-70.0928 64.6574C-72.1759 79.1275 -62.7789 91.6851 -48.3088 93.7682L-42.8202 94.5583C-26.3542 96.9288 -16.4582 109.558 -16.0465 124.387L-15.5475 124.459C-12.4665 110.133 1.08902 100.879 18.0539 103.322L17.5549 103.25C34.0209 105.62 49.5723 96.6543 51.6554 82.1842L60.3469 21.8091C62.43 7.33901 50.0392 -5.64953 33.5733 -8.01995L29.5815 -8.5946C15.1114 -10.6777 5.42711 -21.2394 7.07923 -32.7157C9.16233 -47.1857 -3.2285 -60.1743 -19.6944 -62.5447L-25.1831 -63.3349C-38.795 -67.841 -46.3398 -79.1133 -45.542 -91.7311L-46.041 -91.8029C-49.8326 -79.6161 -60.7496 -71.0015 -74.0819 -70.3743L-85.5582 -72.0264C-100.028 -74.1095 -112.586 -64.7125 -114.669 -50.2424C-116.321 -38.7662 -128.519 -31.864 -142.99 -33.9471L-152.969 -35.3837C-167.439 -37.4668 -179.997 -28.0698 -182.08 -13.5997L-190.843 47.2743C-192.782 60.7465 -179.038 74.9485 -164.069 77.1034L-169.059 76.3851C-183.529 74.302 -196.087 83.699 -198.17 98.1691L-198.242 98.668C-200.756 116.132 -213.601 127.525 -228.071 125.442L-228.143 125.941C-213.816 129.022 -204.563 142.577 -207.005 159.542L-206.933 159.043C-209.016 173.513 -199.619 186.071 -185.149 188.154L-149.722 193.254L-145.341 162.817C-143.258 148.347 -157.644 135.071 -172.114 132.988C-157.145 135.143 -140.097 126.392 -138.014 111.922C-140.097 126.392 -130.7 138.95 -116.23 141.033L-106.251 142.47C-91.7806 144.553 -82.0963 155.114 -83.7484 166.591C-85.8315 181.061 -76.4345 193.618 -61.9644 195.701L3.89937 205.183C18.8684 207.338 35.9167 198.587 37.9998 184.117C39.7237 172.142 51.9221 165.24 66.3922 167.323L71.3819 168.041C86.3509 170.196 103.399 161.446 105.482 146.976C103.399 161.446 112.796 174.003 127.266 176.086C112.796 174.003 100.239 183.4 98.1555 197.87L93.7738 228.307L124.211 232.689Z" fill="#D7B47F"/>
<path d="M-69.8978 247.024C-84.9665 245.738 -101.48 255.461 -102.723 270.027L-102.765 270.529C-104.222 287.607 -116.301 298.719 -130.953 298.481L-130.996 298.984C-116.429 300.226 -106.493 314.228 -107.992 331.808L-107.95 331.306C-109.192 345.872 -94.0615 358.294 -79.4952 359.536L-13.1932 365.192C1.37315 366.434 13.3661 356.327 14.6086 341.76C15.6369 329.705 27.4155 322.109 41.9819 323.352L52.0277 324.208C66.594 325.451 78.5869 315.343 79.8294 300.777C78.5869 315.343 93.7175 327.765 108.284 329.007L113.307 329.436C127.873 330.678 138.152 340.662 137.167 352.214C135.924 366.781 151.055 379.202 165.621 380.445L170.644 380.873C185.21 382.116 195.318 394.109 194.076 408.675L193.647 413.698C192.405 428.264 202.512 440.257 217.079 441.5L222.102 441.928C205.526 440.514 190.52 450.365 189.277 464.931C188.292 476.484 176.513 484.08 161.947 482.838L156.924 482.409C140.348 480.995 125.342 490.846 124.099 505.412C125.342 490.846 115.234 478.853 100.667 477.61L91.6262 476.839C77.0599 475.597 66.7808 465.613 67.7662 454.06C68.8802 441.001 60.7388 429.682 47.8078 427.061C61.0387 426.166 70.9796 416.389 72.0936 403.329C70.8511 417.896 83.9725 430.146 100.548 431.559L131.188 434.173L133.801 403.533C135.044 388.967 124.936 376.974 110.37 375.732L104.844 375.26C88.2689 373.846 77.6589 361.811 76.39 347.03L75.8877 346.987C73.6406 361.468 60.6431 371.49 43.5653 370.033L44.0676 370.076C27.4921 368.662 12.4855 378.513 11.2429 393.079L6.05867 453.856C4.81615 468.422 17.9376 480.672 34.5131 482.086L38.5314 482.429C53.0977 483.672 63.3769 493.655 62.3914 505.208C61.1489 519.774 74.2704 532.024 90.8459 533.438L96.371 533.909C110.221 537.621 118.405 548.438 118.339 561.08L118.841 561.123C121.921 548.737 132.322 539.506 145.595 538.108L157.148 539.094C171.714 540.336 183.707 530.229 184.95 515.662C185.935 504.11 197.714 496.513 212.28 497.756L222.326 498.613C236.892 499.855 248.885 489.747 250.128 475.181L255.355 413.902C256.512 400.34 241.969 386.957 226.9 385.672L231.923 386.1C246.49 387.343 258.482 377.235 259.725 362.669L259.768 362.166C261.267 344.586 273.432 332.469 287.998 333.712L288.041 333.21C273.56 330.963 263.538 317.965 264.995 300.887L264.952 301.39C266.195 286.823 256.087 274.83 241.521 273.588L205.858 270.546L203.245 301.185C202.002 315.752 217.133 328.173 231.699 329.416C216.63 328.13 200.117 337.852 198.874 352.419C200.117 337.852 190.009 325.859 175.443 324.617L165.397 323.76C150.831 322.517 140.552 312.534 141.537 300.981C142.78 286.415 132.672 274.422 118.105 273.179L51.8034 267.524C36.7348 266.238 20.2213 275.96 18.9788 290.527C17.9505 302.582 6.17182 310.178 -8.39453 308.936L-13.4174 308.507C-28.486 307.222 -44.9996 316.944 -46.2421 331.51C-44.9996 316.944 -55.1073 304.951 -69.6736 303.708C-55.1073 304.951 -43.1144 294.843 -41.8718 280.277L-39.2583 249.637L-69.8978 247.024Z" fill="#D7B47F"/>
<path d="M19.1728 579.477C4.05362 579.834 -11.3077 591.29 -10.9626 605.905L-10.9507 606.409C-10.5461 623.544 -21.3479 635.901 -35.9393 637.255L-35.9274 637.758C-21.3122 637.413 -9.91541 650.255 -9.49892 667.894L-9.51082 667.39C-9.16573 682.005 7.22316 692.712 21.8383 692.366L88.3625 690.796C102.978 690.451 113.803 679.101 113.458 664.486C113.173 652.391 124.058 643.562 138.673 643.217L148.752 642.979C163.367 642.633 174.193 631.284 173.848 616.669C174.193 631.284 190.582 641.991 205.197 641.646L210.237 641.527C224.852 641.182 236.153 649.991 236.427 661.583C236.772 676.198 253.161 686.904 267.776 686.559L272.816 686.44C287.431 686.095 298.78 696.921 299.125 711.536L299.244 716.576C299.59 731.191 310.939 742.016 325.554 741.671L330.594 741.552C313.963 741.945 300.113 753.366 300.458 767.981C300.732 779.572 289.847 788.401 275.232 788.747L270.192 788.866C253.561 789.258 239.712 800.679 240.057 815.294C239.712 800.679 228.362 789.853 213.747 790.198L204.676 790.413C190.061 790.758 178.759 781.948 178.485 770.357C178.176 757.253 168.854 746.884 155.716 745.682C168.771 743.356 177.593 732.559 177.283 719.456C177.628 734.071 192.001 744.825 208.633 744.432L239.375 743.706L238.649 712.964C238.304 698.349 226.955 687.523 212.339 687.868L206.796 687.999C190.165 688.392 178.312 677.578 175.447 663.023L174.943 663.035C174.28 677.673 162.446 689.046 145.311 689.451L145.815 689.439C129.184 689.832 115.335 701.252 115.68 715.868L117.12 776.848C117.465 791.463 131.838 802.217 148.469 801.825L152.501 801.73C167.116 801.384 178.417 810.194 178.691 821.785C179.036 836.401 193.409 847.155 210.04 846.762L215.584 846.631C229.755 848.818 239.064 858.683 240.37 871.259L240.874 871.247C242.592 858.6 251.929 848.294 264.973 845.465L276.564 845.191C291.18 844.846 302.005 833.497 301.66 818.882C301.386 807.291 312.271 798.461 326.887 798.116L336.966 797.878C351.581 797.533 362.407 786.184 362.062 771.569L360.61 710.084C360.289 696.477 344.38 684.751 329.261 685.108L334.301 684.989C348.916 684.644 359.741 673.294 359.396 658.679L359.384 658.175C358.968 640.536 369.746 627.171 384.361 626.826L384.349 626.322C369.71 625.659 358.337 613.826 357.932 596.691L357.944 597.195C357.599 582.58 346.25 571.754 331.635 572.099L295.853 572.944L296.579 603.686C296.924 618.301 313.313 629.008 327.928 628.663C312.809 629.02 297.448 640.476 297.793 655.091C297.448 640.476 286.098 629.651 271.483 629.996L261.404 630.234C246.789 630.579 235.487 621.769 235.213 610.178C234.868 595.562 223.519 584.737 208.904 585.082L142.38 586.653C127.261 587.01 111.899 598.466 112.244 613.081C112.53 625.177 101.645 634.006 87.0298 634.351L81.99 634.47C66.8709 634.827 51.5096 646.283 51.8547 660.898C51.5096 646.283 40.1604 635.458 25.5452 635.803C40.1604 635.458 50.986 624.108 50.6409 609.493L49.915 578.751L19.1728 579.477Z" fill="#D7B47F"/>
</g>
<defs>
<clipPath id="clip0_255_2526">
<rect width="402.589" height="649.394" fill="white" transform="translate(0.266602 0.621094)"/>
</clipPath>
</defs>
</svg>
