<svg width="404" height="651" viewBox="0 0 404 651" fill="none" xmlns="http://www.w3.org/2000/svg">
<g clip-path="url(#clip0_255_2158)">
<path d="M-167.22 217.567C-186.76 235.788 -216.505 270.416 -223.51 276.948C-236.046 288.637 -253.121 287.327 -262.747 277.004C-272.029 267.049 -274.551 247.343 -262.015 235.654C-253.166 227.403 -208.091 192.954 -183.757 170.264L-111.124 102.537C-86.7905 79.8464 -30.8438 20.0963 -21.9951 11.8453C-11.6717 2.21911 6.35972 6.77277 17.0173 18.2023L81.9194 90.0229C136.189 149.702 140.186 219.037 91.8869 264.074C39.5324 312.892 -39.8179 297.279 -107.201 225.015C-132.642 197.731 -141.411 193.501 -167.22 217.567ZM46.1111 114.452C10.7005 76.4768 -36.3333 95.5203 -122.608 175.968L-77.227 224.635C-38.3784 266.298 12.8459 270.228 50.8214 234.818C85.4786 202.501 83.5846 154.64 46.1111 114.452Z" fill="#9FA49F"/>
<path d="M-83.7499 628.156C-103.291 646.377 -133.035 681.005 -140.04 687.537C-152.576 699.226 -169.651 697.916 -179.277 687.592C-188.559 677.638 -191.081 657.932 -178.545 646.243C-169.697 637.992 -124.621 603.543 -100.287 580.853L-27.6546 513.126C-3.32078 490.435 52.6259 430.685 61.4746 422.434C71.798 412.808 89.8294 417.362 100.487 428.791L165.389 500.612C219.659 560.29 223.656 629.626 175.357 674.663C123.002 723.481 43.6518 707.867 -23.7315 635.603C-49.1722 608.32 -57.9413 604.09 -83.7499 628.156ZM129.581 525.041C94.1702 487.066 47.1364 506.109 -39.1379 586.557L6.2427 635.224C45.0913 676.887 96.3156 680.817 134.291 645.406C168.948 613.09 167.054 565.229 129.581 525.041Z" fill="#9FA49F"/>
<path d="M306.152 584.088C281.594 573.566 237.905 560.333 229.101 556.561C213.346 549.811 207.651 533.66 213.21 520.686C218.57 508.175 235.581 497.913 251.335 504.663C262.456 509.427 312.171 536.759 342.753 549.862L434.038 588.971C464.621 602.074 541.871 629.138 552.992 633.903C565.967 639.462 569.08 657.797 562.926 672.161L523.419 760.534C490.728 834.277 428.907 865.924 368.205 839.917C302.406 811.727 284.657 732.826 323.568 642.005C338.259 607.715 338.589 597.985 306.152 584.088ZM486.613 737.635C507.061 689.908 470.651 654.565 362.221 608.11L336.015 669.275C313.582 721.636 330.665 770.088 378.393 790.536C421.95 809.197 464.973 788.143 486.613 737.635Z" fill="#9FA49F"/>
<path d="M402.605 435.024C427.732 444.108 472.113 454.792 481.121 458.048C497.24 463.875 503.859 479.669 499.06 492.943C494.433 505.744 478.044 516.972 461.925 511.145C450.547 507.032 399.335 482.622 368.046 471.31L274.651 437.547C243.362 426.235 164.675 403.686 153.297 399.572C140.023 394.773 135.854 376.649 141.167 361.953L175.496 271.443C203.866 195.932 263.752 160.761 325.857 183.213C393.177 207.55 415.46 285.291 381.868 378.212C369.186 413.294 369.419 423.027 402.605 435.024ZM213.565 292.174C195.912 341.004 234.306 374.182 345.241 414.286L367.864 351.707C387.231 298.136 367.373 250.754 318.543 233.101C273.979 216.991 232.246 240.499 213.565 292.174Z" fill="#9FA49F"/>
<path d="M392.999 96.8154C418.962 103.119 464.241 108.925 473.549 111.185C490.205 115.229 498.498 130.212 495.168 143.929C491.956 157.155 476.883 170.096 460.227 166.052C448.47 163.197 394.912 144.487 362.58 136.637L266.074 113.205C233.742 105.355 153.073 91.4745 141.316 88.6199C127.599 85.2895 121.489 67.7244 125.176 52.5382L149.483 -41.1617C169.494 -119.304 225.211 -160.765 289.385 -145.183C358.948 -128.293 389.534 -53.4283 366.221 42.588C357.419 78.839 358.707 88.4894 392.999 96.8154ZM189.576 -24.6832C177.325 25.7744 219.092 54.5906 333.724 82.4233L349.424 17.7593C362.865 -37.597 337.984 -82.545 287.526 -94.7961C241.478 -105.977 202.541 -78.08 189.576 -24.6832Z" fill="#9FA49F"/>
</g>
<defs>
<clipPath id="clip0_255_2158">
<rect width="402.589" height="649.394" fill="white" transform="translate(0.677734 0.621094)"/>
</clipPath>
</defs>
</svg>
