<svg width="403" height="651" viewBox="0 0 403 651" fill="none" xmlns="http://www.w3.org/2000/svg">
<g clip-path="url(#clip0_255_2124)">
<path d="M-167.808 217.567C-187.348 235.788 -217.093 270.416 -224.098 276.948C-236.634 288.637 -253.708 287.327 -263.335 277.004C-272.617 267.049 -275.138 247.343 -262.603 235.654C-253.754 227.403 -208.679 192.954 -184.345 170.264L-111.712 102.537C-87.3784 79.8464 -31.4317 20.0963 -22.583 11.8453C-12.2596 2.21911 5.77183 6.77277 16.4294 18.2023L81.3315 90.0229C135.601 149.702 139.598 219.037 91.2991 264.074C38.9445 312.892 -40.4058 297.279 -107.789 225.015C-133.23 197.731 -141.999 193.501 -167.808 217.567ZM45.5233 114.452C10.1126 76.4768 -36.9212 95.5203 -123.196 175.968L-77.8149 224.635C-38.9663 266.298 12.258 270.228 50.2335 234.818C84.8907 202.501 82.9967 154.64 45.5233 114.452Z" fill="#222222"/>
<path d="M-84.3388 628.156C-103.88 646.377 -133.624 681.005 -140.629 687.537C-153.165 699.226 -170.24 697.916 -179.866 687.592C-189.148 677.638 -191.67 657.932 -179.134 646.243C-170.285 637.992 -125.21 603.543 -100.876 580.853L-28.2435 513.126C-3.90965 490.435 52.0371 430.685 60.8857 422.434C71.2091 412.808 89.2406 417.362 99.8982 428.791L164.8 500.612C219.07 560.29 223.067 629.626 174.768 674.663C122.413 723.481 43.063 707.867 -24.3204 635.603C-49.7611 608.32 -58.5302 604.09 -84.3388 628.156ZM128.992 525.041C93.5813 487.066 46.5476 506.109 -39.7268 586.557L5.65383 635.224C44.5024 676.887 95.7268 680.817 133.702 645.406C168.359 613.09 166.465 565.229 128.992 525.041Z" fill="#222222"/>
<path d="M305.564 584.088C281.005 573.566 237.316 560.333 228.512 556.561C212.757 549.811 207.062 533.66 212.621 520.686C217.981 508.175 234.992 497.913 250.747 504.663C261.868 509.427 311.582 536.759 342.164 549.862L433.449 588.971C464.032 602.074 541.283 629.138 552.404 633.903C565.378 639.462 568.491 657.797 562.337 672.161L522.83 760.534C490.139 834.277 428.318 865.924 367.616 839.917C301.817 811.727 284.068 732.826 322.979 642.005C337.67 607.715 338 597.985 305.564 584.088ZM486.024 737.635C506.472 689.908 470.062 654.565 361.632 608.11L335.427 669.275C312.993 721.636 330.077 770.088 377.804 790.536C421.361 809.197 464.384 788.143 486.024 737.635Z" fill="#222222"/>
<path d="M402.016 435.024C427.143 444.108 471.524 454.792 480.532 458.048C496.651 463.875 503.27 479.669 498.471 492.943C493.844 505.744 477.455 516.972 461.337 511.145C449.959 507.032 398.746 482.622 367.457 471.31L274.062 437.547C242.773 426.235 164.086 403.686 152.708 399.572C139.434 394.773 135.265 376.649 140.578 361.953L174.907 271.443C203.277 195.932 263.163 160.761 325.268 183.213C392.588 207.55 414.871 285.291 381.28 378.212C368.597 413.294 368.831 423.027 402.016 435.024ZM212.976 292.174C195.323 341.004 233.717 374.182 344.652 414.286L367.275 351.707C386.642 298.136 366.784 250.754 317.954 233.101C273.39 216.991 231.657 240.499 212.976 292.174Z" fill="#222222"/>
<path d="M392.412 96.8154C418.376 103.119 463.654 108.925 472.962 111.185C489.618 115.229 497.911 130.212 494.581 143.929C491.369 157.155 476.296 170.096 459.64 166.052C447.883 163.197 394.325 144.487 361.993 136.637L265.487 113.205C233.155 105.355 152.486 91.4745 140.729 88.6199C127.012 85.2895 120.902 67.7244 124.589 52.5382L148.896 -41.1617C168.907 -119.304 224.624 -160.765 288.798 -145.183C358.361 -128.293 388.947 -53.4283 365.634 42.588C356.832 78.839 358.12 88.4894 392.412 96.8154ZM188.989 -24.6832C176.738 25.7744 218.505 54.5906 333.137 82.4233L348.837 17.7593C362.278 -37.597 337.397 -82.545 286.939 -94.7961C240.891 -105.977 201.954 -78.08 188.989 -24.6832Z" fill="#222222"/>
</g>
<defs>
<clipPath id="clip0_255_2124">
<rect width="402.589" height="649.394" fill="white" transform="translate(0.0888672 0.621094)"/>
</clipPath>
</defs>
</svg>
