<svg width="404" height="651" viewBox="0 0 404 651" fill="none" xmlns="http://www.w3.org/2000/svg">
<g clip-path="url(#clip0_255_2090)">
<path d="M-167.396 217.567C-186.937 235.788 -216.682 270.416 -223.687 276.948C-236.222 288.637 -253.297 287.327 -262.923 277.004C-272.206 267.049 -274.727 247.343 -262.192 235.654C-253.343 227.403 -208.268 192.954 -183.934 170.264L-111.301 102.537C-86.9673 79.8464 -31.0206 20.0963 -22.1719 11.8453C-11.8485 2.21911 6.18296 6.77277 16.8405 18.2023L81.7427 90.0229C136.012 149.702 140.009 219.037 91.7102 264.074C39.3556 312.892 -39.9946 297.279 -107.378 225.015C-132.819 197.731 -141.588 193.501 -167.396 217.567ZM45.9344 114.452C10.5237 76.4768 -36.51 95.5203 -122.784 175.968L-77.4038 224.635C-38.5552 266.298 12.6691 270.228 50.6446 234.818C85.3019 202.501 83.4078 154.64 45.9344 114.452Z" fill="#D7B47F"/>
<path d="M-83.9267 628.156C-103.467 646.377 -133.212 681.005 -140.217 687.537C-152.753 699.226 -169.828 697.916 -179.454 687.592C-188.736 677.638 -191.258 657.932 -178.722 646.243C-169.873 637.992 -124.798 603.543 -100.464 580.853L-27.8314 513.126C-3.49754 490.435 52.4492 430.685 61.2978 422.434C71.6212 412.808 89.6527 417.362 100.31 428.791L165.212 500.612C219.482 560.29 223.479 629.626 175.18 674.663C122.825 723.481 43.4751 707.867 -23.9083 635.603C-49.349 608.32 -58.1181 604.09 -83.9267 628.156ZM129.404 525.041C93.9935 487.066 46.9597 506.109 -39.3147 586.557L6.06594 635.224C44.9145 676.887 96.1389 680.817 134.114 645.406C168.772 613.09 166.878 565.229 129.404 525.041Z" fill="#D7B47F"/>
<path d="M305.975 584.088C281.416 573.566 237.727 560.333 228.923 556.561C213.168 549.811 207.474 533.66 213.032 520.686C218.392 508.175 235.403 497.913 251.158 504.663C262.279 509.427 311.993 536.759 342.576 549.862L433.86 588.971C464.443 602.074 541.694 629.138 552.815 633.903C565.789 639.462 568.902 657.797 562.748 672.161L523.241 760.534C490.55 834.277 428.729 865.924 368.027 839.917C302.228 811.727 284.479 732.826 323.39 642.005C338.081 607.715 338.411 597.985 305.975 584.088ZM486.435 737.635C506.883 689.908 470.473 654.565 362.043 608.11L335.838 669.275C313.404 721.636 330.488 770.088 378.215 790.536C421.773 809.197 464.796 788.143 486.435 737.635Z" fill="#D7B47F"/>
<path d="M402.429 435.024C427.555 444.108 471.936 454.792 480.944 458.048C497.063 463.875 503.682 479.669 498.883 492.943C494.256 505.744 477.867 516.972 461.749 511.145C450.371 507.032 399.159 482.622 367.869 471.31L274.475 437.547C243.185 426.235 164.498 403.686 153.12 399.572C139.846 394.773 135.677 376.649 140.99 361.953L175.319 271.443C203.689 195.932 263.575 160.761 325.68 183.213C393 207.55 415.284 285.291 381.692 378.212C369.009 413.294 369.243 423.027 402.429 435.024ZM213.388 292.174C195.735 341.004 234.129 374.182 345.064 414.286L367.688 351.707C387.054 298.136 367.197 250.754 318.366 233.101C273.802 216.991 232.069 240.499 213.388 292.174Z" fill="#D7B47F"/>
<path d="M392.823 96.8154C418.787 103.119 464.065 108.925 473.373 111.185C490.029 115.229 498.322 130.212 494.992 143.929C491.781 157.155 476.707 170.096 460.051 166.052C448.294 163.197 394.736 144.487 362.404 136.637L265.898 113.205C233.566 105.355 152.897 91.4745 141.14 88.6199C127.424 85.2895 121.313 67.7244 125 52.5382L149.307 -41.1617C169.318 -119.304 225.035 -160.765 289.209 -145.183C358.772 -128.293 389.358 -53.4283 366.045 42.588C357.243 78.839 358.532 88.4894 392.823 96.8154ZM189.401 -24.6832C177.149 25.7744 218.916 54.5906 333.548 82.4233L349.248 17.7593C362.689 -37.597 337.808 -82.545 287.35 -94.7961C241.302 -105.977 202.365 -78.08 189.401 -24.6832Z" fill="#D7B47F"/>
</g>
<defs>
<clipPath id="clip0_255_2090">
<rect width="402.589" height="649.394" fill="white" transform="translate(0.5 0.621094)"/>
</clipPath>
</defs>
</svg>
