<svg width="226" height="104" viewBox="0 0 226 104" fill="none" xmlns="http://www.w3.org/2000/svg">
<path fill-rule="evenodd" clip-rule="evenodd" d="M218.615 10.6357C218.615 5.11289 214.138 0.635742 208.615 0.635742H16.6152C11.0924 0.635742 6.61523 5.11289 6.61523 10.6357V21.6217C6.61523 27.1445 11.0924 31.6217 16.6152 31.6217H33.1152C38.6381 31.6217 43.1152 36.0988 43.1152 41.6217V44.6084C43.1152 50.1312 38.6381 54.6084 33.1152 54.6084H10.1152C4.59239 54.6084 0.115234 59.0855 0.115234 64.6084V69.5943C0.115234 75.1172 4.59239 79.5943 10.1152 79.5943H43.6152C49.1381 79.5943 53.6152 84.0715 53.6152 89.5943V93.5807C53.6152 99.1035 58.0924 103.581 63.6152 103.581H161.615C167.138 103.581 171.615 99.1035 171.615 93.5807V89.5943C171.615 84.0715 176.092 79.5943 181.615 79.5943H215.115C220.638 79.5943 225.115 75.1172 225.115 69.5944V64.6084C225.115 59.0856 220.638 54.6084 215.115 54.6084H192.115C186.592 54.6084 182.115 50.1312 182.115 44.6084V41.6217C182.115 36.0988 186.592 31.6217 192.115 31.6217H208.615C214.138 31.6217 218.615 27.1445 218.615 21.6217V10.6357Z" fill="#F5F5FF"/>
<path d="M25.0949 8.81578V22.6357H23.03V8.81578H25.0949ZM15.1416 22.6357L19.5683 15.4019L15.452 8.81578H18.0027L21.4307 14.7945H26.7414L30.1424 8.81578H32.6865L28.5837 15.4154L32.9834 22.6357H30.5473L27.0721 16.738H21.0731L17.5506 22.6357H15.1416ZM33.8845 8.81578H35.9494V18.9648H36.0776L43.109 8.81578H45.039V22.6357L42.9538 22.6357V12.5002H42.8256L35.8077 22.6357H33.8845V8.81578ZM46.259 10.6108V8.81578L56.9546 8.81578V10.6108L52.6426 10.6108V22.6357H50.5642V10.6108H46.259ZM59.6423 14.3897H63.3672C64.3929 14.3897 65.2656 14.5561 65.9854 14.889C66.7052 15.2219 67.254 15.692 67.6319 16.2993C68.0143 16.9067 68.2032 17.622 68.1987 18.4452C68.2032 19.2685 68.0143 19.995 67.6319 20.6248C67.254 21.2546 66.7052 21.7473 65.9854 22.1026C65.2656 22.458 64.3929 22.6357 63.3672 22.6357H58.1914V8.81578H60.2833V20.8813H63.3672C63.9655 20.8813 64.4693 20.7643 64.8787 20.5304C65.2926 20.2964 65.6053 19.9928 65.8167 19.6194C66.0326 19.246 66.1406 18.8456 66.1406 18.4182C66.1406 17.7974 65.9022 17.2643 65.4253 16.8189C64.9484 16.3691 64.2624 16.1441 63.3672 16.1441H59.6423V14.3897ZM73.4897 22.6357V8.81578H78.5508C79.5315 8.81578 80.3435 8.97774 80.9868 9.30164C81.6301 9.62105 82.1115 10.0552 82.4309 10.604C82.7503 11.1484 82.91 11.7624 82.91 12.4462C82.91 13.0221 82.8043 13.5079 82.5928 13.9038C82.3814 14.2952 82.098 14.6101 81.7426 14.8485C81.3917 15.0825 81.0048 15.2534 80.5819 15.3614V15.4963C81.0408 15.5188 81.4884 15.6673 81.9248 15.9417C82.3656 16.2116 82.73 16.5963 83.018 17.0956C83.3059 17.595 83.4498 18.2023 83.4498 18.9176C83.4498 19.6239 83.2834 20.2582 82.9505 20.8205C82.6221 21.3784 82.1137 21.8215 81.4254 22.1499C80.7371 22.4738 79.8576 22.6357 78.7869 22.6357H73.4897ZM75.5749 20.8475H78.5845C79.5832 20.8475 80.2985 20.6541 80.7304 20.2672C81.1622 19.8803 81.3782 19.3967 81.3782 18.8164C81.3782 18.38 81.268 17.9796 81.0475 17.6152C80.8271 17.2508 80.5122 16.9607 80.1028 16.7447C79.6979 16.5288 79.2166 16.4208 78.6587 16.4208H75.5749V20.8475ZM75.5749 14.7945H78.3686C78.8364 14.7945 79.2571 14.7046 79.6304 14.5246C80.0083 14.3447 80.3075 14.0927 80.5279 13.7688C80.7529 13.4404 80.8653 13.0535 80.8653 12.6082C80.8653 12.0368 80.6651 11.5577 80.2648 11.1708C79.8644 10.784 79.2503 10.5905 78.4225 10.5905H75.5749V14.7945ZM99.4752 8.81578V22.6357H97.3969V10.5973L90.8918 10.5973V22.6357H88.8134V8.81578L99.4752 8.81578ZM101.524 22.6357V8.81578H106.45C107.525 8.81578 108.416 9.01148 109.122 9.40286C109.828 9.79425 110.357 10.3296 110.708 11.0089C111.059 11.6837 111.234 12.444 111.234 13.2897C111.234 14.14 111.056 14.9048 110.701 15.5841C110.35 16.2589 109.819 16.7942 109.108 17.1901C108.402 17.5815 107.514 17.7772 106.443 17.7772H103.055V16.0092H106.254C106.933 16.0092 107.484 15.8922 107.907 15.6583C108.33 15.4199 108.64 15.0959 108.838 14.6866C109.036 14.2772 109.135 13.8116 109.135 13.2897C109.135 12.7679 109.036 12.3045 108.838 11.8996C108.64 11.4947 108.328 11.1776 107.9 10.9482C107.478 10.7187 106.92 10.604 106.227 10.604H103.609V22.6357L101.524 22.6357ZM112.538 22.6357V8.81578L121.203 8.81578V10.6108H114.623V14.8215L120.751 14.8215V16.6098H114.623V20.8408H121.284V22.6357H112.538ZM131.047 22.6357L126.404 16.4411H124.933V22.6357H122.848V8.81578H124.933V14.6528H125.615L130.838 8.81578H133.382L127.855 15.0037L133.591 22.6357H131.047ZM134.382 22.6357V8.81578H139.308C140.383 8.81578 141.274 9.01148 141.98 9.40286C142.687 9.79425 143.215 10.3296 143.566 11.0089C143.917 11.6837 144.093 12.444 144.093 13.2897C144.093 14.14 143.915 14.9048 143.559 15.5841C143.209 16.2589 142.678 16.7942 141.967 17.1901C141.261 17.5815 140.372 17.7772 139.301 17.7772H135.914V16.0092H139.113C139.792 16.0092 140.343 15.8922 140.766 15.6583C141.189 15.4199 141.499 15.0959 141.697 14.6866C141.895 14.2772 141.994 13.8116 141.994 13.2897C141.994 12.7679 141.895 12.3045 141.697 11.8996C141.499 11.4947 141.186 11.1776 140.759 10.9482C140.336 10.7187 139.778 10.604 139.086 10.604H136.467V22.6357H134.382ZM145.098 22.6357H142.885L147.858 8.81578L150.267 8.81578L155.241 22.6357H153.027L149.12 11.326H149.012L145.098 22.6357ZM145.469 17.2238H152.649V18.9783H145.469V17.2238ZM166.925 13.31H164.82C164.739 12.8601 164.588 12.4642 164.368 12.1223C164.147 11.7804 163.877 11.4903 163.558 11.2518C163.238 11.0134 162.881 10.8334 162.485 10.712C162.093 10.5905 161.677 10.5298 161.236 10.5298C160.44 10.5298 159.727 10.73 159.097 11.1304C158.472 11.5307 157.977 12.1178 157.613 12.8916C157.253 13.6654 157.073 14.6101 157.073 15.7258C157.073 16.8504 157.253 17.7997 157.613 18.5734C157.977 19.3472 158.474 19.932 159.104 20.3279C159.734 20.7238 160.442 20.9217 161.23 20.9217C161.666 20.9217 162.08 20.8633 162.471 20.7463C162.867 20.6248 163.225 20.4471 163.544 20.2132C163.864 19.9793 164.134 19.6936 164.354 19.3562C164.579 19.0143 164.734 18.6229 164.82 18.182L166.925 18.1888C166.813 18.8681 166.594 19.4934 166.271 20.0647C165.951 20.6316 165.539 21.1219 165.036 21.5358C164.536 21.9452 163.965 22.2624 163.322 22.4873C162.678 22.7122 161.977 22.8247 161.216 22.8247C160.02 22.8247 158.953 22.5413 158.018 21.9744C157.082 21.4031 156.344 20.5866 155.804 19.5249C155.269 18.4632 155.001 17.1968 155.001 15.7258C155.001 14.2502 155.271 12.9838 155.811 11.9266C156.351 10.8649 157.089 10.0507 158.024 9.48384C158.96 8.9125 160.024 8.62684 161.216 8.62684C161.95 8.62684 162.633 8.73256 163.268 8.944C163.906 9.15094 164.48 9.45685 164.988 9.86173C165.497 10.2621 165.917 10.7525 166.25 11.3328C166.583 11.9086 166.808 12.5677 166.925 13.31ZM168.28 22.6357V8.81578H170.365V14.8215L177.255 14.8215V8.81578H179.347V22.6357H177.255V16.6098L170.365 16.6098V22.6357H168.28ZM193.248 15.7258C193.248 17.2013 192.978 18.47 192.438 19.5316C191.898 20.5888 191.158 21.4031 190.218 21.9744C189.282 22.5413 188.218 22.8247 187.026 22.8247C185.83 22.8247 184.761 22.5413 183.821 21.9744C182.885 21.4031 182.147 20.5866 181.608 19.5249C181.068 18.4632 180.798 17.1968 180.798 15.7258C180.798 14.2502 181.068 12.9838 181.608 11.9266C182.147 10.8649 182.885 10.0507 183.821 9.48384C184.761 8.9125 185.83 8.62684 187.026 8.62684C188.218 8.62684 189.282 8.9125 190.218 9.48384C191.158 10.0507 191.898 10.8649 192.438 11.9266C192.978 12.9838 193.248 14.2502 193.248 15.7258ZM191.183 15.7258C191.183 14.6011 191.001 13.6541 190.637 12.8848C190.277 12.1111 189.782 11.5262 189.152 11.1304C188.527 10.73 187.818 10.5298 187.026 10.5298C186.23 10.5298 185.519 10.73 184.894 11.1304C184.269 11.5262 183.774 12.1111 183.409 12.8848C183.049 13.6541 182.87 14.6011 182.87 15.7258C182.87 16.8504 183.049 17.7997 183.409 18.5734C183.774 19.3427 184.269 19.9275 184.894 20.3279C185.519 20.7238 186.23 20.9217 187.026 20.9217C187.818 20.9217 188.527 20.7238 189.152 20.3279C189.782 19.9275 190.277 19.3427 190.637 18.5734C191.001 17.7997 191.183 16.8504 191.183 15.7258ZM194.708 8.81578H197.238L201.638 19.5586H201.8L206.199 8.81578L208.73 8.81578V22.6357H206.746V12.6352H206.618L202.542 22.6155H200.895L196.82 12.6284H196.691V22.6357H194.708V8.81578Z" fill="#3F5B8F"/>
<path d="M52.6335 47.6221V33.8021H54.7187V39.8079H61.6084V33.8021H63.7003V47.6221H61.6084V41.5961H54.7187V47.6221H52.6335ZM77.6015 40.7121C77.6015 42.1877 77.3316 43.4563 76.7917 44.518C76.2519 45.5752 75.5119 46.3894 74.5716 46.9608C73.6359 47.5276 72.572 47.811 71.3798 47.811C70.1832 47.811 69.1147 47.5276 68.1745 46.9608C67.2388 46.3894 66.501 45.5729 65.9612 44.5112C65.4213 43.4495 65.1514 42.1832 65.1514 40.7121C65.1514 39.2365 65.4213 37.9701 65.9612 36.913C66.501 35.8513 67.2388 35.037 68.1745 34.4702C69.1147 33.8988 70.1832 33.6132 71.3798 33.6132C72.572 33.6132 73.6359 33.8988 74.5716 34.4702C75.5119 35.037 76.2519 35.8513 76.7917 36.913C77.3316 37.9701 77.6015 39.2365 77.6015 40.7121ZM75.5366 40.7121C75.5366 39.5874 75.3544 38.6404 74.99 37.8712C74.6301 37.0974 74.1353 36.5126 73.5055 36.1167C72.8801 35.7163 72.1716 35.5161 71.3798 35.5161C70.5836 35.5161 69.8728 35.7163 69.2475 36.1167C68.6221 36.5126 68.1273 37.0974 67.7629 37.8712C67.403 38.6404 67.223 39.5874 67.223 40.7121C67.223 41.8368 67.403 42.786 67.7629 43.5598C68.1273 44.329 68.6221 44.9139 69.2475 45.3142C69.8728 45.7101 70.5836 45.9081 71.3798 45.9081C72.1716 45.9081 72.8801 45.7101 73.5055 45.3142C74.1353 44.9139 74.6301 44.329 74.99 43.5598C75.3544 42.786 75.5366 41.8368 75.5366 40.7121ZM79.061 47.6221V33.8021H84.1221C85.1028 33.8021 85.9148 33.9641 86.5581 34.288C87.2014 34.6074 87.6828 35.0415 88.0022 35.5903C88.3216 36.1347 88.4813 36.7487 88.4813 37.4325C88.4813 38.0084 88.3756 38.4942 88.1641 38.8901C87.9527 39.2815 87.6693 39.5964 87.3139 39.8348C86.963 40.0688 86.5761 40.2397 86.1532 40.3477V40.4827C86.6121 40.5052 87.0597 40.6536 87.4961 40.928C87.9369 41.1979 88.3013 41.5826 88.5893 42.0819C88.8772 42.5813 89.0211 43.1886 89.0211 43.9039C89.0211 44.6102 88.8547 45.2445 88.5218 45.8069C88.1934 46.3647 87.685 46.8078 86.9967 47.1362C86.3084 47.4601 85.4289 47.6221 84.3582 47.6221H79.061ZM81.1462 45.8338H84.1558C85.1545 45.8338 85.8698 45.6404 86.3017 45.2535C86.7335 44.8666 86.9495 44.383 86.9495 43.8027C86.9495 43.3663 86.8393 42.9659 86.6188 42.6015C86.3984 42.2371 86.0835 41.947 85.6741 41.731C85.2692 41.5151 84.7879 41.4071 84.23 41.4071H81.1462V45.8338ZM81.1462 39.7809H83.9399C84.4077 39.7809 84.8284 39.6909 85.2017 39.5109C85.5796 39.331 85.8788 39.0791 86.0992 38.7552C86.3242 38.4268 86.4366 38.0399 86.4366 37.5945C86.4366 37.0232 86.2364 36.5441 85.8361 36.1572C85.4357 35.7703 84.8216 35.5768 83.9938 35.5768H81.1462V39.7809ZM102.359 40.7121C102.359 42.1877 102.089 43.4563 101.549 44.518C101.009 45.5752 100.269 46.3894 99.329 46.9608C98.3933 47.5276 97.3293 47.811 96.1372 47.811C94.9405 47.811 93.8721 47.5276 92.9319 46.9608C91.9962 46.3894 91.2584 45.5729 90.7185 44.5112C90.1787 43.4495 89.9088 42.1832 89.9088 40.7121C89.9088 39.2365 90.1787 37.9701 90.7185 36.913C91.2584 35.8513 91.9962 35.037 92.9319 34.4702C93.8721 33.8988 94.9405 33.6132 96.1372 33.6132C97.3293 33.6132 98.3933 33.8988 99.329 34.4702C100.269 35.037 101.009 35.8513 101.549 36.913C102.089 37.9701 102.359 39.2365 102.359 40.7121ZM100.294 40.7121C100.294 39.5874 100.112 38.6404 99.7474 37.8712C99.3875 37.0974 98.8926 36.5126 98.2628 36.1167C97.6375 35.7163 96.929 35.5161 96.1372 35.5161C95.3409 35.5161 94.6301 35.7163 94.0048 36.1167C93.3795 36.5126 92.8846 37.0974 92.5202 37.8712C92.1604 38.6404 91.9804 39.5874 91.9804 40.7121C91.9804 41.8368 92.1604 42.786 92.5202 43.5598C92.8846 44.329 93.3795 44.9139 94.0048 45.3142C94.6301 45.7101 95.3409 45.9081 96.1372 45.9081C96.929 45.9081 97.6375 45.7101 98.2628 45.3142C98.8926 44.9139 99.3875 44.329 99.7474 43.5598C100.112 42.786 100.294 41.8368 100.294 40.7121ZM103.818 33.8021H106.349L110.749 44.545H110.911L115.31 33.8021H117.841V47.6221H115.857V37.6215H115.729L111.653 47.6018H110.006L105.931 37.6147H105.802V47.6221H103.818V33.8021ZM123.621 33.8021H126.152L130.551 44.545H130.713L135.113 33.8021H137.643V47.6221H135.66V37.6215H135.531L131.455 47.6018H129.809L125.733 37.6147H125.605V47.6221H123.621V33.8021ZM139.535 33.8021H141.6V43.9511H141.728L148.759 33.8021H150.689V47.6221H148.604V37.4865H148.476L141.458 47.6221H139.535V33.8021ZM152.591 47.6221V33.8021H157.517C158.592 33.8021 159.483 33.9978 160.189 34.3892C160.895 34.7806 161.424 35.3159 161.775 35.9952C162.126 36.67 162.301 37.4303 162.301 38.2761C162.301 39.1263 162.124 39.8911 161.768 40.5704C161.417 41.2452 160.886 41.7805 160.176 42.1764C159.469 42.5678 158.581 42.7635 157.51 42.7635H154.123V40.9955H157.321C158.001 40.9955 158.552 40.8785 158.974 40.6446C159.397 40.4062 159.708 40.0823 159.906 39.6729C160.104 39.2635 160.203 38.7979 160.203 38.2761C160.203 37.7542 160.104 37.2908 159.906 36.886C159.708 36.4811 159.395 36.1639 158.968 35.9345C158.545 35.7051 157.987 35.5903 157.294 35.5903H154.676V47.6221H152.591ZM163.606 47.6221V33.8021H172.27V35.5971H165.691V39.8079H171.818V41.5961H165.691V45.8271H172.351V47.6221H163.606Z" fill="#3F5B8F"/>
<path d="M74.6119 88.269H72.5066C72.4256 87.8191 72.2749 87.4232 72.0544 87.0813C71.834 86.7394 71.5641 86.4492 71.2447 86.2108C70.9253 85.9724 70.5676 85.7924 70.1717 85.671C69.7803 85.5495 69.3642 85.4888 68.9233 85.4888C68.1271 85.4888 67.414 85.689 66.7842 86.0893C66.1589 86.4897 65.6641 87.0768 65.2997 87.8506C64.9398 88.6243 64.7598 89.5691 64.7598 90.6847C64.7598 91.8094 64.9398 92.7586 65.2997 93.5324C65.6641 94.3062 66.1612 94.891 66.791 95.2869C67.4208 95.6828 68.1293 95.8807 68.9166 95.8807C69.353 95.8807 69.7669 95.8222 70.1582 95.7053C70.5541 95.5838 70.9118 95.4061 71.2312 95.1722C71.5506 94.9383 71.8205 94.6526 72.0409 94.3152C72.2659 93.9733 72.4211 93.5819 72.5066 93.141L74.6119 93.1478C74.4995 93.8271 74.2813 94.4524 73.9574 95.0237C73.638 95.5906 73.2263 96.0809 72.7225 96.4948C72.2231 96.9042 71.6518 97.2213 71.0085 97.4463C70.3652 97.6712 69.6634 97.7837 68.9031 97.7837C67.7065 97.7837 66.6403 97.5003 65.7045 96.9334C64.7688 96.3621 64.031 95.5456 63.4912 94.4839C62.9558 93.4222 62.6882 92.1558 62.6882 90.6847C62.6882 89.2092 62.9581 87.9428 63.4979 86.8856C64.0378 85.8239 64.7756 85.0097 65.7113 84.4428C66.647 83.8715 67.711 83.5858 68.9031 83.5858C69.6364 83.5858 70.3202 83.6915 70.9545 83.903C71.5933 84.1099 72.1669 84.4158 72.6753 84.8207C73.1836 85.2211 73.6042 85.7115 73.9371 86.2918C74.27 86.8676 74.495 87.5267 74.6119 88.269ZM75.2853 85.5697V83.7748H85.9809V85.5697H81.669V97.5947H79.5906V85.5697H75.2853ZM87.2043 97.5947V83.7748H92.1304C93.2055 83.7748 94.0963 83.9705 94.8026 84.3618C95.5089 84.7532 96.0375 85.2886 96.3884 85.9679C96.7393 86.6427 96.9147 87.403 96.9147 88.2487C96.9147 89.099 96.737 89.8637 96.3816 90.543C96.0307 91.2178 95.4999 91.7532 94.7891 92.1491C94.0828 92.5405 93.1943 92.7361 92.1236 92.7361H88.7361V90.9682H91.9347C92.614 90.9682 93.165 90.8512 93.5879 90.6173C94.0108 90.3788 94.3212 90.0549 94.5192 89.6456C94.7171 89.2362 94.8161 88.7706 94.8161 88.2487C94.8161 87.7269 94.7171 87.2635 94.5192 86.8586C94.3212 86.4537 94.0086 86.1366 93.5812 85.9071C93.1583 85.6777 92.6005 85.563 91.9077 85.563H89.2894V97.5947H87.2043ZM97.9204 97.5947H95.7071L100.68 83.7748H103.089L108.063 97.5947H105.849L101.942 86.285H101.834L97.9204 97.5947ZM98.2916 92.1828H105.471V93.9373H98.2916V92.1828ZM108.918 97.5947V83.7748H111.003V89.7805H117.893V83.7748H119.985V97.5947H117.893V91.5687H111.003V97.5947H108.918ZM121.882 97.5947V83.7748H123.967V89.7805H130.856V83.7748H132.948V97.5947H130.856V91.5687H123.967V97.5947H121.882ZM136.309 89.3486H140.034C141.06 89.3486 141.932 89.5151 142.652 89.848C143.372 90.1809 143.921 90.651 144.299 91.2583C144.681 91.8657 144.87 92.5809 144.866 93.4042C144.87 94.2275 144.681 94.954 144.299 95.5838C143.921 96.2136 143.372 96.7062 142.652 97.0616C141.932 97.417 141.06 97.5947 140.034 97.5947H134.858V83.7748H136.95V95.8402H140.034C140.632 95.8402 141.136 95.7233 141.546 95.4893C141.959 95.2554 142.272 94.9517 142.484 94.5784C142.699 94.205 142.807 93.8046 142.807 93.3772C142.807 92.7564 142.569 92.2233 142.092 91.7779C141.615 91.3281 140.929 91.1031 140.034 91.1031H136.309V89.3486ZM148.233 83.7748V97.5947H146.141V83.7748H148.233ZM150.128 83.7748H152.193V93.9238H152.321L159.352 83.7748H161.282V97.5947H159.197V87.4592H159.069L152.051 97.5947H150.128V83.7748ZM157.031 80.2658H158.691C158.691 81.0261 158.421 81.6446 157.881 82.1215C157.346 82.5939 156.621 82.83 155.708 82.83C154.799 82.83 154.077 82.5939 153.542 82.1215C153.007 81.6446 152.739 81.0261 152.739 80.2658H154.392C154.392 80.6032 154.491 80.9024 154.689 81.1633C154.887 81.4197 155.227 81.5479 155.708 81.5479C156.181 81.5479 156.518 81.4197 156.72 81.1633C156.927 80.9069 157.031 80.6077 157.031 80.2658Z" fill="#3F5B8F"/>
<path d="M10.8009 72.6084H8.5876L13.5609 58.7884H15.9699L20.9432 72.6084H18.7299L14.8228 61.2987H14.7148L10.8009 72.6084ZM11.1721 67.1965H18.352V68.951H11.1721V67.1965ZM25.0061 60.5834V58.7884H35.7017V60.5834H31.3897V72.6084H29.3113V60.5834H25.0061ZM48.336 65.6984C48.336 67.174 48.0661 68.4426 47.5262 69.5043C46.9864 70.5615 46.2463 71.3758 45.3061 71.9471C44.3704 72.5139 43.3064 72.7973 42.1143 72.7973C40.9176 72.7973 39.8492 72.5139 38.909 71.9471C37.9733 71.3758 37.2355 70.5592 36.6956 69.4976C36.1558 68.4359 35.8859 67.1695 35.8859 65.6984C35.8859 64.2229 36.1558 62.9565 36.6956 61.8993C37.2355 60.8376 37.9733 60.0233 38.909 59.4565C39.8492 58.8852 40.9176 58.5995 42.1143 58.5995C43.3064 58.5995 44.3704 58.8852 45.3061 59.4565C46.2463 60.0233 46.9864 60.8376 47.5262 61.8993C48.0661 62.9565 48.336 64.2229 48.336 65.6984ZM46.2711 65.6984C46.2711 64.5737 46.0889 63.6268 45.7245 62.8575C45.3646 62.0837 44.8697 61.4989 44.2399 61.103C43.6146 60.7026 42.9061 60.5024 42.1143 60.5024C41.318 60.5024 40.6072 60.7026 39.9819 61.103C39.3566 61.4989 38.8617 62.0837 38.4973 62.8575C38.1375 63.6268 37.9575 64.5737 37.9575 65.6984C37.9575 66.8231 38.1375 67.7723 38.4973 68.5461C38.8617 69.3154 39.3566 69.9002 39.9819 70.3006C40.6072 70.6965 41.318 70.8944 42.1143 70.8944C42.9061 70.8944 43.6146 70.6965 44.2399 70.3006C44.8697 69.9002 45.3646 69.3154 45.7245 68.5461C46.0889 67.7723 46.2711 66.8231 46.2711 65.6984ZM62.5985 64.9831V66.7511H56.8154V64.9831H62.5985ZM53.2457 68.2222H55.3646C55.4815 69.1309 55.783 69.826 56.2688 70.3073C56.7592 70.7887 57.5217 71.0294 58.5564 71.0294C59.3212 71.0294 59.951 70.8269 60.4458 70.422C60.9407 70.0127 61.3073 69.4593 61.5458 68.762C61.7887 68.0647 61.9102 67.282 61.9102 66.4137V65.0101C61.9102 64.0744 61.7752 63.2601 61.5053 62.5673C61.2354 61.8745 60.8417 61.3392 60.3244 60.9613C59.8115 60.5834 59.184 60.3945 58.4417 60.3945C57.7714 60.3945 57.2225 60.5092 56.7952 60.7386C56.3678 60.9681 56.0394 61.2965 55.81 61.7238C55.585 62.1467 55.4366 62.6573 55.3646 63.2556H53.239C53.3289 62.3649 53.5764 61.5686 53.9812 60.8668C54.3906 60.165 54.9642 59.6117 55.702 59.2068C56.4443 58.8019 57.3575 58.5995 58.4417 58.5995C59.5843 58.5995 60.5718 58.8649 61.4041 59.3958C62.2408 59.9221 62.8864 60.6644 63.3407 61.6226C63.7951 62.5808 64.0223 63.7055 64.0223 64.9966V66.434C64.0223 67.7251 63.7974 68.8475 63.3475 69.8012C62.9021 70.7549 62.2701 71.4927 61.4513 72.0146C60.6325 72.5364 59.6676 72.7973 58.5564 72.7973C57.4452 72.7973 56.5117 72.5994 55.756 72.2035C55.0002 71.8031 54.4154 71.2588 54.0015 70.5705C53.5876 69.8777 53.3357 69.0949 53.2457 68.2222ZM64.2031 60.5834V58.7884L74.8987 58.7884V60.5834H70.5867V72.6084H68.5083V60.5834H64.2031ZM87.533 65.6984C87.533 67.174 87.263 68.4426 86.7232 69.5043C86.1834 70.5615 85.4433 71.3758 84.5031 71.9471C83.5674 72.5139 82.5034 72.7973 81.3113 72.7973C80.1146 72.7973 79.0462 72.5139 78.106 71.9471C77.1702 71.3758 76.4325 70.5592 75.8926 69.4976C75.3528 68.4359 75.0829 67.1695 75.0829 65.6984C75.0829 64.2229 75.3528 62.9565 75.8926 61.8993C76.4325 60.8376 77.1702 60.0233 78.106 59.4565C79.0462 58.8852 80.1146 58.5995 81.3113 58.5995C82.5034 58.5995 83.5674 58.8852 84.5031 59.4565C85.4433 60.0233 86.1834 60.8376 86.7232 61.8993C87.263 62.9565 87.533 64.2229 87.533 65.6984ZM85.4681 65.6984C85.4681 64.5737 85.2859 63.6268 84.9215 62.8575C84.5616 62.0837 84.0667 61.4989 83.4369 61.103C82.8116 60.7026 82.1031 60.5024 81.3113 60.5024C80.515 60.5024 79.8042 60.7026 79.1789 61.103C78.5536 61.4989 78.0587 62.0837 77.6943 62.8575C77.3344 63.6268 77.1545 64.5737 77.1545 65.6984C77.1545 66.8231 77.3344 67.7723 77.6943 68.5461C78.0587 69.3154 78.5536 69.9002 79.1789 70.3006C79.8042 70.6965 80.515 70.8944 81.3113 70.8944C82.1031 70.8944 82.8116 70.6965 83.4369 70.3006C84.0667 69.9002 84.5616 69.3154 84.9215 68.5461C85.2859 67.7723 85.4681 66.8231 85.4681 65.6984ZM87.7171 60.5834V58.7884H98.4127V60.5834H94.1008V72.6084H92.0224V60.5834H87.7171ZM103.802 58.7884H105.86V63.3501C105.86 63.9844 105.97 64.486 106.19 64.8549C106.411 65.2193 106.73 65.478 107.149 65.6309C107.571 65.7839 108.084 65.8604 108.687 65.8604C109.007 65.8604 109.33 65.8491 109.659 65.8266C109.992 65.7996 110.322 65.7636 110.651 65.7187C110.979 65.6692 111.296 65.6129 111.602 65.55C111.913 65.4825 112.201 65.4083 112.466 65.3273V67.102C112.205 67.1875 111.928 67.264 111.636 67.3314C111.348 67.3944 111.047 67.4507 110.732 67.5001C110.417 67.5451 110.088 67.5811 109.747 67.6081C109.405 67.6351 109.052 67.6486 108.687 67.6486C107.679 67.6486 106.809 67.5046 106.076 67.2167C105.347 66.9243 104.785 66.4632 104.389 65.8334C103.997 65.2036 103.802 64.3758 103.802 63.3501V58.7884ZM112.156 58.7884H114.221V72.6084H112.156V58.7884ZM116.284 72.6084V58.7884H124.948V60.5834H118.369V64.7942H124.496V66.5824H118.369V70.8134H125.029V72.6084H116.284ZM125.912 60.5834V58.7884H136.608V60.5834H132.296V72.6084H130.217V60.5834H125.912ZM153.198 63.2826H151.093C151.012 62.8328 150.861 62.4369 150.641 62.095C150.42 61.7531 150.15 61.4629 149.831 61.2245C149.512 60.986 149.154 60.8061 148.758 60.6846C148.367 60.5632 147.951 60.5024 147.51 60.5024C146.713 60.5024 146 60.7026 145.371 61.103C144.745 61.5034 144.25 62.0905 143.886 62.8642C143.526 63.638 143.346 64.5827 143.346 65.6984C143.346 66.8231 143.526 67.7723 143.886 68.5461C144.25 69.3199 144.747 69.9047 145.377 70.3006C146.007 70.6965 146.716 70.8944 147.503 70.8944C147.939 70.8944 148.353 70.8359 148.745 70.719C149.14 70.5975 149.498 70.4198 149.817 70.1859C150.137 69.9519 150.407 69.6663 150.627 69.3289C150.852 68.987 151.007 68.5956 151.093 68.1547L153.198 68.1614C153.086 68.8408 152.868 69.4661 152.544 70.0374C152.224 70.6042 151.813 71.0946 151.309 71.5085C150.809 71.9179 150.238 72.235 149.595 72.4599C148.951 72.6849 148.25 72.7973 147.489 72.7973C146.293 72.7973 145.227 72.5139 144.291 71.9471C143.355 71.3758 142.617 70.5592 142.077 69.4976C141.542 68.4359 141.274 67.1695 141.274 65.6984C141.274 64.2229 141.544 62.9565 142.084 61.8993C142.624 60.8376 143.362 60.0233 144.298 59.4565C145.233 58.8852 146.297 58.5995 147.489 58.5995C148.223 58.5995 148.906 58.7052 149.541 58.9167C150.18 59.1236 150.753 59.4295 151.262 59.8344C151.77 60.2348 152.191 60.7251 152.523 61.3055C152.856 61.8813 153.081 62.5403 153.198 63.2826ZM166.558 65.6984C166.558 67.174 166.288 68.4426 165.748 69.5043C165.208 70.5615 164.468 71.3758 163.528 71.9471C162.592 72.5139 161.528 72.7973 160.336 72.7973C159.14 72.7973 158.071 72.5139 157.131 71.9471C156.195 71.3758 155.457 70.5592 154.918 69.4976C154.378 68.4359 154.108 67.1695 154.108 65.6984C154.108 64.2229 154.378 62.9565 154.918 61.8993C155.457 60.8376 156.195 60.0233 157.131 59.4565C158.071 58.8852 159.14 58.5995 160.336 58.5995C161.528 58.5995 162.592 58.8852 163.528 59.4565C164.468 60.0233 165.208 60.8376 165.748 61.8993C166.288 62.9565 166.558 64.2229 166.558 65.6984ZM164.493 65.6984C164.493 64.5737 164.311 63.6268 163.946 62.8575C163.587 62.0837 163.092 61.4989 162.462 61.103C161.837 60.7026 161.128 60.5024 160.336 60.5024C159.54 60.5024 158.829 60.7026 158.204 61.103C157.579 61.4989 157.084 62.0837 156.719 62.8575C156.359 63.6268 156.179 64.5737 156.179 65.6984C156.179 66.8231 156.359 67.7723 156.719 68.5461C157.084 69.3154 157.579 69.9002 158.204 70.3006C158.829 70.6965 159.54 70.8944 160.336 70.8944C161.128 70.8944 161.837 70.6965 162.462 70.3006C163.092 69.9002 163.587 69.3154 163.946 68.5461C164.311 67.7723 164.493 66.8231 164.493 65.6984ZM168.017 72.6084V58.7884H173.078C174.059 58.7884 174.871 58.9504 175.514 59.2743C176.158 59.5937 176.639 60.0278 176.959 60.5767C177.278 61.121 177.438 61.7351 177.438 62.4189C177.438 62.9947 177.332 63.4806 177.121 63.8765C176.909 64.2678 176.626 64.5827 176.27 64.8212C175.919 65.0551 175.532 65.2261 175.11 65.334V65.469C175.568 65.4915 176.016 65.6399 176.452 65.9144C176.893 66.1843 177.258 66.5689 177.546 67.0683C177.834 67.5676 177.978 68.1749 177.978 68.8902C177.978 69.5965 177.811 70.2308 177.478 70.7932C177.15 71.351 176.641 71.7941 175.953 72.1225C175.265 72.4464 174.385 72.6084 173.315 72.6084H168.017ZM170.103 70.8202H173.112C174.111 70.8202 174.826 70.6267 175.258 70.2398C175.69 69.853 175.906 69.3693 175.906 68.789C175.906 68.3526 175.796 67.9523 175.575 67.5879C175.355 67.2235 175.04 66.9333 174.63 66.7174C174.226 66.5014 173.744 66.3935 173.186 66.3935H170.103V70.8202ZM170.103 64.7672H172.896C173.364 64.7672 173.785 64.6772 174.158 64.4973C174.536 64.3173 174.835 64.0654 175.056 63.7415C175.281 63.4131 175.393 63.0262 175.393 62.5808C175.393 62.0095 175.193 61.5304 174.792 61.1435C174.392 60.7566 173.778 60.5632 172.95 60.5632H170.103V64.7672ZM190.789 63.2826H188.684C188.603 62.8328 188.452 62.4369 188.231 62.095C188.011 61.7531 187.741 61.4629 187.422 61.2245C187.102 60.986 186.745 60.8061 186.349 60.6846C185.957 60.5632 185.541 60.5024 185.1 60.5024C184.304 60.5024 183.591 60.7026 182.961 61.103C182.336 61.5034 181.841 62.0905 181.477 62.8642C181.117 63.638 180.937 64.5827 180.937 65.6984C180.937 66.8231 181.117 67.7723 181.477 68.5461C181.841 69.3199 182.338 69.9047 182.968 70.3006C183.598 70.6965 184.306 70.8944 185.094 70.8944C185.53 70.8944 185.944 70.8359 186.335 70.719C186.731 70.5975 187.089 70.4198 187.408 70.1859C187.728 69.9519 187.997 69.6663 188.218 69.3289C188.443 68.987 188.598 68.5956 188.684 68.1547L190.789 68.1614C190.676 68.8408 190.458 69.4661 190.134 70.0374C189.815 70.6042 189.403 71.0946 188.899 71.5085C188.4 71.9179 187.829 72.235 187.185 72.4599C186.542 72.6849 185.84 72.7973 185.08 72.7973C183.883 72.7973 182.817 72.5139 181.882 71.9471C180.946 71.3758 180.208 70.5592 179.668 69.4976C179.133 68.4359 178.865 67.1695 178.865 65.6984C178.865 64.2229 179.135 62.9565 179.675 61.8993C180.215 60.8376 180.953 60.0233 181.888 59.4565C182.824 58.8852 183.888 58.5995 185.08 58.5995C185.813 58.5995 186.497 58.7052 187.131 58.9167C187.77 59.1236 188.344 59.4295 188.852 59.8344C189.361 60.2348 189.781 60.7251 190.114 61.3055C190.447 61.8813 190.672 62.5403 190.789 63.2826ZM192.144 72.6084V58.7884H200.808V60.5834H194.229V64.7942H200.356V66.5824H194.229V70.8134H200.889V72.6084H192.144ZM202.453 58.7884H204.984L209.384 69.5313H209.546L213.945 58.7884H216.476V72.6084H214.492V62.6078H214.364L210.288 72.5882H208.641L204.566 62.6011H204.437V72.6084H202.453V58.7884Z" fill="#3F5B8F"/>
</svg>
