<svg width="291" height="137" viewBox="0 0 291 137" fill="none" xmlns="http://www.w3.org/2000/svg">
<path fill-rule="evenodd" clip-rule="evenodd" d="M279.995 15.8879C279.995 7.38122 273.099 0.485229 264.593 0.485229L30.8078 0.485229C22.3012 0.485229 15.4052 7.38122 15.4052 15.8879V24.0014C15.4052 32.508 22.3012 39.404 30.8078 39.404H48.6881C56.5656 39.404 62.9515 45.7899 62.9515 53.6674V53.6674C62.9515 61.5449 56.5656 67.9308 48.6881 67.9308H15.8301C7.32348 67.9308 0.42749 74.8268 0.42749 83.3334V85.4267C0.42749 93.9333 7.32349 100.829 15.8301 100.829H59.4624C67.969 100.829 74.865 107.725 74.865 116.232V121.062C74.865 129.569 81.761 136.465 90.2676 136.465H200.887C209.393 136.465 216.289 129.569 216.289 121.062V116.232C216.289 107.725 223.185 100.829 231.692 100.829H274.67C283.177 100.829 290.073 93.9333 290.073 85.4267V83.3334C290.073 74.8268 283.177 67.9308 274.67 67.9308H239.87C231.993 67.9308 225.607 61.5449 225.607 53.6674V53.6674C225.607 45.7899 231.993 39.404 239.87 39.404H264.593C273.099 39.404 279.995 32.508 279.995 24.0014V15.8879Z" fill="white"/>
<path d="M46.8346 13.4144V29.2867H44.0135V13.4144H46.8346ZM34.6901 29.2867L39.7277 20.9476L34.9769 13.4144H38.5032L42.2543 20.1183H48.6636L52.3527 13.4144H55.8635L51.1824 20.9398L56.158 29.2867H52.7557L49.0744 22.7844H41.8125L38.0614 29.2867H34.6901ZM57.0322 13.4144H59.8842V24.2336H60.0315L67.4949 13.4144H70.0757V29.2867H67.2004V18.4753H67.0686L59.582 29.2867H57.0322V13.4144ZM71.2017 15.8247V13.4144L83.8654 13.4144V15.8247H78.9596V29.2867H76.1075V15.8247H71.2017ZM86.9425 19.5448H90.9726C92.1868 19.5448 93.2279 19.7437 94.0959 20.1416C94.9691 20.5342 95.6382 21.0897 96.1032 21.8079C96.5682 22.526 96.8007 23.3708 96.8007 24.3421C96.8007 25.3187 96.5682 26.1789 96.1032 26.9229C95.6382 27.6618 94.9691 28.2405 94.0959 28.659C93.2279 29.0775 92.1868 29.2867 90.9726 29.2867H85.0283V13.4144H87.9113V26.9307H90.9726C91.6133 26.9307 92.1558 26.8093 92.6002 26.5664C93.0445 26.3236 93.3803 26.0033 93.6077 25.6054C93.8402 25.2076 93.9564 24.7762 93.9564 24.3111C93.9564 23.6395 93.6981 23.0685 93.1814 22.5984C92.6699 22.123 91.9336 21.8854 90.9726 21.8854H86.9425V19.5448ZM102.391 29.2867V13.4144H108.467C109.614 13.4144 110.568 13.5953 111.327 13.9569C112.092 14.3135 112.663 14.8017 113.04 15.4217C113.422 16.0417 113.613 16.7444 113.613 17.5298C113.613 18.1756 113.489 18.7285 113.241 19.1883C112.993 19.643 112.66 20.0124 112.242 20.2966C111.823 20.5807 111.355 20.7848 110.839 20.9088V21.0638C111.402 21.0948 111.942 21.2679 112.459 21.5831C112.98 21.8931 113.407 22.3323 113.737 22.9006C114.068 23.469 114.233 24.1561 114.233 24.9622C114.233 25.7837 114.034 26.5225 113.637 27.1787C113.239 27.8297 112.639 28.3438 111.839 28.721C111.038 29.0982 110.03 29.2867 108.816 29.2867H102.391ZM105.266 26.8842H108.359C109.402 26.8842 110.154 26.6853 110.614 26.2874C111.079 25.8844 111.312 25.3678 111.312 24.7374C111.312 24.2672 111.195 23.8436 110.963 23.4664C110.73 23.084 110.4 22.7844 109.971 22.5674C109.542 22.3452 109.03 22.2341 108.436 22.2341H105.266V26.8842ZM105.266 20.1648H108.111C108.607 20.1648 109.054 20.0744 109.452 19.8936C109.849 19.7076 110.162 19.4466 110.389 19.1108C110.622 18.7698 110.738 18.3668 110.738 17.9018C110.738 17.2869 110.521 16.7806 110.087 16.3827C109.658 15.9849 109.02 15.786 108.173 15.786H105.266V20.1648ZM132.48 13.4144V29.2867H129.628V15.8015L122.684 15.8015V29.2867H119.832V13.4144L132.48 13.4144ZM134.609 29.2867V13.4144H140.562C141.781 13.4144 142.804 13.6418 143.631 14.0965C144.462 14.5511 145.09 15.1763 145.514 15.972C145.943 16.7625 146.157 17.6615 146.157 18.669C146.157 19.6869 145.943 20.5911 145.514 21.3816C145.085 22.1721 144.452 22.7947 143.615 23.2494C142.778 23.6989 141.747 23.9236 140.523 23.9236H136.578V21.5598H140.135C140.848 21.5598 141.432 21.4358 141.887 21.1878C142.342 20.9398 142.677 20.5988 142.894 20.1648C143.117 19.7308 143.228 19.2322 143.228 18.669C143.228 18.1059 143.117 17.6099 142.894 17.181C142.677 16.7522 142.339 16.4189 141.879 16.1812C141.424 15.9384 140.838 15.817 140.12 15.817H137.485V29.2867H134.609ZM147.345 29.2867V13.4144H157.668V15.8247H150.22V20.1338H157.134V22.5441H150.22V26.8764H157.73V29.2867H147.345ZM168.802 29.2867L163.578 22.3504H162.168V29.2867H159.292V13.4144H162.168V19.9401H162.888L168.531 13.4144H172.072L165.802 20.6531L172.344 29.2867H168.802ZM172.987 29.2867V13.4144H178.939C180.159 13.4144 181.182 13.6418 182.008 14.0965C182.84 14.5511 183.468 15.1763 183.892 15.972C184.32 16.7625 184.535 17.6615 184.535 18.669C184.535 19.6869 184.32 20.5911 183.892 21.3816C183.463 22.1721 182.83 22.7947 181.993 23.2494C181.156 23.6989 180.125 23.9236 178.901 23.9236H174.956V21.5598H178.513C179.226 21.5598 179.81 21.4358 180.265 21.1878C180.719 20.9398 181.055 20.5988 181.272 20.1648C181.494 19.7308 181.605 19.2322 181.605 18.669C181.605 18.1059 181.494 17.6099 181.272 17.181C181.055 16.7522 180.717 16.4189 180.257 16.1812C179.802 15.9384 179.216 15.817 178.498 15.817H175.862V29.2867H172.987ZM185.992 29.2867H182.923L188.511 13.4144L192.061 13.4144L197.656 29.2867H194.587L190.348 16.6695H190.224L185.992 29.2867ZM186.093 23.0634L194.463 23.0634V25.3729L186.093 25.3729V23.0634ZM211.277 18.7698H208.379C208.296 18.2944 208.144 17.8734 207.922 17.5065C207.699 17.1345 207.423 16.8193 207.092 16.561C206.762 16.3027 206.384 16.1089 205.961 15.9797C205.542 15.8454 205.09 15.7782 204.605 15.7782C203.742 15.7782 202.977 15.9952 202.31 16.4292C201.644 16.8581 201.122 17.4884 200.745 18.3203C200.368 19.147 200.179 20.1571 200.179 21.3506C200.179 22.5648 200.368 23.5878 200.745 24.4196C201.127 25.2463 201.649 25.8715 202.31 26.2952C202.977 26.7137 203.739 26.9229 204.597 26.9229C205.072 26.9229 205.516 26.8609 205.93 26.7369C206.348 26.6078 206.723 26.4192 207.054 26.1712C207.389 25.9232 207.671 25.6183 207.898 25.2567C208.131 24.895 208.291 24.4817 208.379 24.0166L211.277 24.0321C211.169 24.7865 210.934 25.4943 210.572 26.1557C210.216 26.817 209.748 27.4009 209.169 27.9072C208.591 28.4084 207.914 28.8011 207.139 29.0852C206.364 29.3642 205.504 29.5037 204.558 29.5037C203.163 29.5037 201.918 29.1808 200.822 28.535C199.727 27.8891 198.864 26.9565 198.234 25.7372C197.604 24.5178 197.288 23.0556 197.288 21.3506C197.288 19.6404 197.606 18.1782 198.242 16.964C198.877 15.7447 199.743 14.812 200.838 14.1662C201.933 13.5204 203.173 13.1974 204.558 13.1974C205.442 13.1974 206.263 13.3214 207.023 13.5694C207.782 13.8174 208.459 14.1817 209.053 14.6622C209.647 15.1376 210.136 15.7214 210.518 16.4137C210.905 17.1009 211.159 17.8863 211.277 18.7698ZM212.601 29.2867V13.4144H215.476V20.1338L222.831 20.1338V13.4144L225.714 13.4144V29.2867H222.831V22.5441L215.476 22.5441V29.2867H212.601ZM241.715 21.3506C241.715 23.0608 241.394 24.5256 240.754 25.7449C240.118 26.9591 239.25 27.8891 238.15 28.535C237.054 29.1808 235.812 29.5037 234.422 29.5037C233.032 29.5037 231.787 29.1808 230.686 28.535C229.591 27.884 228.723 26.9514 228.082 25.7372C227.447 24.5178 227.129 23.0556 227.129 21.3506C227.129 19.6404 227.447 18.1782 228.082 16.964C228.723 15.7447 229.591 14.812 230.686 14.1662C231.787 13.5204 233.032 13.1974 234.422 13.1974C235.812 13.1974 237.054 13.5204 238.15 14.1662C239.25 14.812 240.118 15.7447 240.754 16.964C241.394 18.1782 241.715 19.6404 241.715 21.3506ZM238.824 21.3506C238.824 20.1467 238.635 19.1315 238.258 18.3048C237.886 17.4729 237.37 16.8452 236.708 16.4215C236.047 15.9927 235.285 15.7782 234.422 15.7782C233.559 15.7782 232.797 15.9927 232.136 16.4215C231.474 16.8452 230.955 17.4729 230.578 18.3048C230.206 19.1315 230.02 20.1467 230.02 21.3506C230.02 22.5544 230.206 23.5723 230.578 24.4041C230.955 25.2308 231.474 25.8586 232.136 26.2874C232.797 26.7111 233.559 26.9229 234.422 26.9229C235.285 26.9229 236.047 26.7111 236.708 26.2874C237.37 25.8586 237.886 25.2308 238.258 24.4041C238.635 23.5723 238.824 22.5544 238.824 21.3506ZM243.124 13.4144H246.642L251.354 24.9157H251.54L256.252 13.4144H259.771V29.2867H257.012V18.3823H256.865L252.478 29.2402H250.417L246.03 18.359H245.883V29.2867H243.124V13.4144Z" fill="black"/>
<path d="M76.4454 60.0923V44.22H79.3207V50.9394H86.6756V44.22H89.5586V60.0923H86.6756V53.3497H79.3207V60.0923H76.4454ZM105.559 52.1561C105.559 53.8663 105.239 55.3311 104.598 56.5505C103.963 57.7647 103.095 58.6947 101.994 59.3405C100.899 59.9864 99.6561 60.3093 98.2662 60.3093C96.8764 60.3093 95.6312 59.9864 94.5306 59.3405C93.4353 58.6895 92.5673 57.7569 91.9266 56.5427C91.2911 55.3234 90.9733 53.8612 90.9733 52.1561C90.9733 50.4459 91.2911 48.9837 91.9266 47.7695C92.5673 46.5502 93.4353 45.6176 94.5306 44.9717C95.6312 44.3259 96.8764 44.003 98.2662 44.003C99.6561 44.003 100.899 44.3259 101.994 44.9717C103.095 45.6176 103.963 46.5502 104.598 47.7695C105.239 48.9837 105.559 50.4459 105.559 52.1561ZM102.668 52.1561C102.668 50.9523 102.48 49.937 102.103 49.1103C101.731 48.2785 101.214 47.6507 100.553 47.227C99.8912 46.7982 99.1291 46.5838 98.2662 46.5838C97.4034 46.5838 96.6413 46.7982 95.9799 47.227C95.3186 47.6507 94.7993 48.2785 94.4221 49.1103C94.0501 49.937 93.8641 50.9523 93.8641 52.1561C93.8641 53.36 94.0501 54.3778 94.4221 55.2097C94.7993 56.0364 95.3186 56.6641 95.9799 57.093C96.6413 57.5167 97.4034 57.7285 98.2662 57.7285C99.1291 57.7285 99.8912 57.5167 100.553 57.093C101.214 56.6641 101.731 56.0364 102.103 55.2097C102.48 54.3778 102.668 53.36 102.668 52.1561ZM106.968 60.0923V44.22H113.044C114.191 44.22 115.144 44.4008 115.904 44.7625C116.669 45.119 117.24 45.6073 117.617 46.2273C117.999 46.8473 118.19 47.55 118.19 48.3353C118.19 48.9812 118.066 49.534 117.818 49.9938C117.57 50.4485 117.237 50.8179 116.818 51.1021C116.4 51.3863 115.932 51.5904 115.416 51.7144V51.8694C115.979 51.9004 116.519 52.0735 117.035 52.3886C117.557 52.6986 117.984 53.1378 118.314 53.7062C118.645 54.2745 118.81 54.9617 118.81 55.7677C118.81 56.5892 118.611 57.3281 118.213 57.9842C117.816 58.6353 117.216 59.1494 116.415 59.5265C115.615 59.9037 114.607 60.0923 113.393 60.0923H106.968ZM109.843 57.6897H112.936C113.979 57.6897 114.731 57.4908 115.191 57.093C115.656 56.69 115.888 56.1733 115.888 55.5429C115.888 55.0728 115.772 54.6491 115.54 54.2719C115.307 53.8896 114.976 53.5899 114.548 53.3729C114.119 53.1507 113.607 53.0397 113.013 53.0397H109.843V57.6897ZM109.843 50.9704H112.688C113.184 50.9704 113.631 50.8799 114.028 50.6991C114.426 50.5131 114.739 50.2522 114.966 49.9163C115.199 49.5753 115.315 49.1723 115.315 48.7073C115.315 48.0925 115.098 47.5861 114.664 47.1883C114.235 46.7904 113.597 46.5915 112.75 46.5915H109.843V50.9704ZM134.185 52.1561C134.185 53.8663 133.865 55.3311 133.224 56.5505C132.588 57.7647 131.72 58.6947 130.62 59.3405C129.524 59.9864 128.282 60.3093 126.892 60.3093C125.502 60.3093 124.257 59.9864 123.156 59.3405C122.061 58.6895 121.193 57.7569 120.552 56.5427C119.917 55.3234 119.599 53.8612 119.599 52.1561C119.599 50.4459 119.917 48.9837 120.552 47.7695C121.193 46.5502 122.061 45.6176 123.156 44.9717C124.257 44.3259 125.502 44.003 126.892 44.003C128.282 44.003 129.524 44.3259 130.62 44.9717C131.72 45.6176 132.588 46.5502 133.224 47.7695C133.865 48.9837 134.185 50.4459 134.185 52.1561ZM131.294 52.1561C131.294 50.9523 131.106 49.937 130.728 49.1103C130.356 48.2785 129.84 47.6507 129.178 47.227C128.517 46.7982 127.755 46.5838 126.892 46.5838C126.029 46.5838 125.267 46.7982 124.606 47.227C123.944 47.6507 123.425 48.2785 123.048 49.1103C122.676 49.937 122.49 50.9523 122.49 52.1561C122.49 53.36 122.676 54.3778 123.048 55.2097C123.425 56.0364 123.944 56.6641 124.606 57.093C125.267 57.5167 126.029 57.7285 126.892 57.7285C127.755 57.7285 128.517 57.5167 129.178 57.093C129.84 56.6641 130.356 56.0364 130.728 55.2097C131.106 54.3778 131.294 53.36 131.294 52.1561ZM135.594 44.22L139.112 44.22L143.824 55.7212H144.01L148.723 44.22H152.241V60.0923H149.482V49.1878H149.335L144.948 60.0458H142.887L138.5 49.1646H138.353V60.0923H135.594V44.22ZM158.167 44.22H161.685L166.397 55.7212H166.583L171.295 44.22H174.814V60.0923H172.055V49.1878H171.908L167.521 60.0458H165.46L161.073 49.1646H160.926V60.0923H158.167V44.22ZM176.636 44.22H179.488V55.0392H179.635L187.098 44.22H189.679V60.0923H186.804V49.2808H186.672L179.185 60.0923H176.636V44.22ZM191.503 60.0923V44.22H197.455C198.674 44.22 199.697 44.4473 200.524 44.902C201.356 45.3567 201.983 45.9818 202.407 46.7775C202.836 47.568 203.05 48.4671 203.05 49.4746C203.05 50.4924 202.836 51.3966 202.407 52.1871C201.978 52.9776 201.345 53.6002 200.508 54.0549C199.671 54.5044 198.641 54.7292 197.416 54.7292H193.471V52.3654H197.029C197.742 52.3654 198.325 52.2414 198.78 51.9934C199.235 51.7454 199.571 51.4044 199.788 50.9704C200.01 50.5364 200.121 50.0378 200.121 49.4746C200.121 48.9114 200.01 48.4154 199.788 47.9866C199.571 47.5577 199.232 47.2245 198.772 46.9868C198.318 46.7439 197.731 46.6225 197.013 46.6225H194.378V60.0923H191.503ZM204.238 60.0923V44.22H214.562V46.6303H207.114V50.9394H214.027V53.3497H207.114V57.682H214.624V60.0923H204.238Z" fill="black"/>
<path d="M27.9796 90.8972H24.9105L30.4984 75.0249H34.0479L39.6436 90.8972H36.5745L32.3352 78.28H32.2112L27.9796 90.8972ZM28.0803 84.6738H36.4505V86.9834H28.0803V84.6738ZM43.8312 77.4352V75.0249H56.4949V77.4352H51.5891V90.8972H48.737V77.4352H43.8312ZM71.1062 82.9611C71.1062 84.6713 70.7859 86.136 70.1452 87.3554C69.5097 88.5696 68.6417 89.4996 67.5411 90.1455C66.4458 90.7913 65.2032 91.1142 63.8133 91.1142C62.4235 91.1142 61.1783 90.7913 60.0778 90.1455C58.9824 89.4944 58.1144 88.5618 57.4737 87.3476C56.8382 86.1283 56.5204 84.6661 56.5204 82.9611C56.5204 81.2509 56.8382 79.7887 57.4737 78.5745C58.1144 77.3551 58.9824 76.4225 60.0778 75.7767C61.1783 75.1308 62.4235 74.8079 63.8133 74.8079C65.2032 74.8079 66.4458 75.1308 67.5411 75.7767C68.6417 76.4225 69.5097 77.3551 70.1452 78.5745C70.7859 79.7887 71.1062 81.2509 71.1062 82.9611ZM68.2154 82.9611C68.2154 81.7572 68.0268 80.7419 67.6496 79.9153C67.2776 79.0834 66.761 78.4556 66.0996 78.032C65.4383 77.6031 64.6762 77.3887 63.8133 77.3887C62.9505 77.3887 62.1884 77.6031 61.527 78.032C60.8657 78.4556 60.3464 79.0834 59.9692 79.9153C59.5972 80.7419 59.4112 81.7572 59.4112 82.9611C59.4112 84.1649 59.5972 85.1828 59.9692 86.0146C60.3464 86.8413 60.8657 87.4691 61.527 87.8979C62.1884 88.3216 62.9505 88.5334 63.8133 88.5334C64.6762 88.5334 65.4383 88.3216 66.0996 87.8979C66.761 87.4691 67.2776 86.8413 67.6496 86.0146C68.0268 85.1828 68.2154 84.1649 68.2154 82.9611ZM87.3841 81.9613V84.3251H80.6492V81.9613H87.3841ZM76.2316 85.7744H79.1224C79.2154 86.7561 79.528 87.5001 80.0602 88.0064C80.5975 88.5128 81.4139 88.7659 82.5092 88.7659C83.3566 88.7659 84.0438 88.5541 84.5708 88.1304C85.0978 87.7016 85.4827 87.1074 85.7256 86.3479C85.9684 85.5884 86.0898 84.7048 86.0898 83.6973V82.2558C86.0898 81.1966 85.9529 80.2898 85.679 79.5355C85.4052 78.7812 84.997 78.2051 84.4545 77.8072C83.912 77.4042 83.2403 77.2027 82.4395 77.2027C81.68 77.2027 81.0677 77.3241 80.6027 77.567C80.1377 77.8098 79.7889 78.1611 79.5564 78.621C79.3239 79.0757 79.1741 79.6208 79.1069 80.2563H76.2161C76.3195 79.2229 76.614 78.2955 77.0996 77.474C77.5853 76.6524 78.2699 76.004 79.1534 75.5287C80.0369 75.0482 81.1323 74.8079 82.4395 74.8079C83.7673 74.8079 84.917 75.1127 85.8883 75.7224C86.8648 76.3321 87.6192 77.195 88.1513 78.311C88.6887 79.427 88.9574 80.7394 88.9574 82.2481V83.7206C88.9574 85.2293 88.6939 86.5391 88.1668 87.6499C87.645 88.7556 86.9036 89.6107 85.9426 90.2152C84.9815 90.8145 83.8371 91.1142 82.5092 91.1142C81.2227 91.1142 80.1274 90.8869 79.2232 90.4322C78.319 89.9724 77.6163 89.342 77.1151 88.5412C76.614 87.7352 76.3195 86.8129 76.2316 85.7744ZM88.977 77.4352V75.0249H101.641V77.4352H96.7349V90.8972H93.8829V77.4352H88.977ZM116.252 82.9611C116.252 84.6713 115.932 86.136 115.291 87.3554C114.656 88.5696 113.788 89.4996 112.687 90.1455C111.592 90.7913 110.349 91.1142 108.959 91.1142C107.569 91.1142 106.324 90.7913 105.224 90.1455C104.128 89.4944 103.26 88.5618 102.62 87.3476C101.984 86.1283 101.666 84.6661 101.666 82.9611C101.666 81.2509 101.984 79.7887 102.62 78.5745C103.26 77.3551 104.128 76.4225 105.224 75.7767C106.324 75.1308 107.569 74.8079 108.959 74.8079C110.349 74.8079 111.592 75.1308 112.687 75.7767C113.788 76.4225 114.656 77.3551 115.291 78.5745C115.932 79.7887 116.252 81.2509 116.252 82.9611ZM113.361 82.9611C113.361 81.7572 113.173 80.7419 112.795 79.9153C112.423 79.0834 111.907 78.4556 111.245 78.032C110.584 77.6031 109.822 77.3887 108.959 77.3887C108.096 77.3887 107.334 77.6031 106.673 78.032C106.012 78.4556 105.492 79.0834 105.115 79.9153C104.743 80.7419 104.557 81.7572 104.557 82.9611C104.557 84.1649 104.743 85.1828 105.115 86.0146C105.492 86.8413 106.012 87.4691 106.673 87.8979C107.334 88.3216 108.096 88.5334 108.959 88.5334C109.822 88.5334 110.584 88.3216 111.245 87.8979C111.907 87.4691 112.423 86.8413 112.795 86.0146C113.173 85.1828 113.361 84.1649 113.361 82.9611ZM116.26 77.4352V75.0249H128.924V77.4352H124.018V90.8972H121.166V77.4352H116.26ZM134.632 75.0249H137.446V80.202C137.446 80.8737 137.562 81.4059 137.795 81.7985C138.032 82.1912 138.384 82.4728 138.849 82.6433C139.314 82.8138 139.892 82.8991 140.585 82.8991C140.895 82.8991 141.228 82.8887 141.584 82.8681C141.946 82.8422 142.31 82.8086 142.677 82.7673C143.044 82.7208 143.395 82.6666 143.731 82.6046C144.067 82.5374 144.367 82.4651 144.63 82.3876V84.7281C144.367 84.8108 144.072 84.8857 143.747 84.9529C143.421 85.02 143.078 85.0769 142.716 85.1234C142.354 85.1699 141.993 85.206 141.631 85.2319C141.269 85.2577 140.92 85.2706 140.585 85.2706C139.37 85.2706 138.316 85.0975 137.423 84.7513C136.534 84.4 135.847 83.8523 135.361 83.1083C134.875 82.3643 134.632 81.3955 134.632 80.202V75.0249ZM144.157 75.0249H146.986V90.8972H144.157V75.0249ZM149.176 90.8972V75.0249H159.499V77.4352H152.051V81.7443L158.964 81.7443V84.1546L152.051 84.1546V88.4869H159.561V90.8972H149.176ZM160.426 77.4352V75.0249H173.089V77.4352H168.183V90.8972H165.331V77.4352H160.426ZM191.911 80.3803H189.013C188.93 79.9049 188.778 79.4838 188.555 79.117C188.333 78.745 188.057 78.4298 187.726 78.1715C187.395 77.9131 187.018 77.7194 186.595 77.5902C186.176 77.4559 185.724 77.3887 185.238 77.3887C184.375 77.3887 183.611 77.6057 182.944 78.0397C182.278 78.4686 181.756 79.0989 181.379 79.9308C181.002 80.7574 180.813 81.7675 180.813 82.9611C180.813 84.1753 181.002 85.1983 181.379 86.0301C181.761 86.8568 182.283 87.482 182.944 87.9057C183.611 88.3242 184.373 88.5334 185.231 88.5334C185.706 88.5334 186.15 88.4714 186.564 88.3474C186.982 88.2182 187.357 88.0297 187.687 87.7817C188.023 87.5337 188.305 87.2288 188.532 86.8671C188.765 86.5055 188.925 86.0921 189.013 85.6271L191.911 85.6426C191.803 86.397 191.568 87.1048 191.206 87.7662C190.849 88.4275 190.382 89.0113 189.803 89.5177C189.224 90.0189 188.548 90.4115 187.773 90.6957C186.998 90.9747 186.137 91.1142 185.192 91.1142C183.797 91.1142 182.552 90.7913 181.456 90.1455C180.361 89.4996 179.498 88.567 178.868 87.3476C178.237 86.1283 177.922 84.6661 177.922 82.9611C177.922 81.2509 178.24 79.7887 178.875 78.5745C179.511 77.3551 180.376 76.4225 181.472 75.7767C182.567 75.1308 183.807 74.8079 185.192 74.8079C186.075 74.8079 186.897 74.9319 187.656 75.1799C188.416 75.4279 189.093 75.7922 189.687 76.2727C190.281 76.748 190.769 77.3319 191.152 78.0242C191.539 78.7114 191.792 79.4967 191.911 80.3803ZM207.418 82.9611C207.418 84.6713 207.097 86.136 206.457 87.3554C205.821 88.5696 204.953 89.4996 203.853 90.1455C202.757 90.7913 201.515 91.1142 200.125 91.1142C198.735 91.1142 197.49 90.7913 196.389 90.1455C195.294 89.4944 194.426 88.5618 193.785 87.3476C193.15 86.1283 192.832 84.6661 192.832 82.9611C192.832 81.2509 193.15 79.7887 193.785 78.5745C194.426 77.3551 195.294 76.4225 196.389 75.7767C197.49 75.1308 198.735 74.8079 200.125 74.8079C201.515 74.8079 202.757 75.1308 203.853 75.7767C204.953 76.4225 205.821 77.3551 206.457 78.5745C207.097 79.7887 207.418 81.2509 207.418 82.9611ZM204.527 82.9611C204.527 81.7572 204.338 80.7419 203.961 79.9153C203.589 79.0834 203.072 78.4556 202.411 78.032C201.75 77.6031 200.988 77.3887 200.125 77.3887C199.262 77.3887 198.5 77.6031 197.838 78.032C197.177 78.4556 196.658 79.0834 196.281 79.9153C195.909 80.7419 195.723 81.7572 195.723 82.9611C195.723 84.1649 195.909 85.1828 196.281 86.0146C196.658 86.8413 197.177 87.4691 197.838 87.8979C198.5 88.3216 199.262 88.5334 200.125 88.5334C200.988 88.5334 201.75 88.3216 202.411 87.8979C203.072 87.4691 203.589 86.8413 203.961 86.0146C204.338 85.1828 204.527 84.1649 204.527 82.9611ZM208.827 90.8972V75.0249H214.903C216.05 75.0249 217.003 75.2057 217.762 75.5674C218.527 75.9239 219.098 76.4122 219.475 77.0322C219.858 77.6522 220.049 78.3549 220.049 79.1402C220.049 79.7861 219.925 80.3389 219.677 80.7988C219.429 81.2534 219.095 81.6229 218.677 81.907C218.258 82.1912 217.791 82.3953 217.274 82.5193V82.6743C217.837 82.7053 218.377 82.8784 218.894 83.1936C219.416 83.5036 219.842 83.9428 220.173 84.5111C220.503 85.0794 220.669 85.7666 220.669 86.5726C220.669 87.3941 220.47 88.133 220.072 88.7892C219.674 89.4402 219.075 89.9543 218.274 90.3315C217.473 90.7086 216.466 90.8972 215.251 90.8972H208.827ZM211.702 88.4947H214.794C215.838 88.4947 216.59 88.2958 217.049 87.8979C217.514 87.4949 217.747 86.9782 217.747 86.3479C217.747 85.8777 217.631 85.454 217.398 85.0769C217.166 84.6945 216.835 84.3948 216.406 84.1778C215.977 83.9557 215.466 83.8446 214.872 83.8446H211.702V88.4947ZM211.702 81.7753H214.546C215.042 81.7753 215.489 81.6849 215.887 81.504C216.285 81.318 216.597 81.0571 216.825 80.7213C217.057 80.3803 217.173 79.9773 217.173 79.5122C217.173 78.8974 216.956 78.3911 216.522 77.9932C216.094 77.5954 215.455 77.3965 214.608 77.3965H211.702V81.7753ZM235.447 80.3803H232.548C232.465 79.9049 232.313 79.4838 232.091 79.117C231.869 78.745 231.592 78.4298 231.262 78.1715C230.931 77.9131 230.554 77.7194 230.13 77.5902C229.712 77.4559 229.259 77.3887 228.774 77.3887C227.911 77.3887 227.146 77.6057 226.48 78.0397C225.813 78.4686 225.291 79.0989 224.914 79.9308C224.537 80.7574 224.348 81.7675 224.348 82.9611C224.348 84.1753 224.537 85.1983 224.914 86.0301C225.297 86.8568 225.818 87.482 226.48 87.9057C227.146 88.3242 227.908 88.5334 228.766 88.5334C229.241 88.5334 229.686 88.4714 230.099 88.3474C230.518 88.2182 230.892 88.0297 231.223 87.7817C231.559 87.5337 231.84 87.2288 232.068 86.8671C232.3 86.5055 232.46 86.0921 232.548 85.6271L235.447 85.6426C235.338 86.397 235.103 87.1048 234.741 87.7662C234.385 88.4275 233.917 89.0113 233.339 89.5177C232.76 90.0189 232.083 90.4115 231.308 90.6957C230.533 90.9747 229.673 91.1142 228.727 91.1142C227.332 91.1142 226.087 90.7913 224.992 90.1455C223.896 89.4996 223.033 88.567 222.403 87.3476C221.773 86.1283 221.458 84.6661 221.458 82.9611C221.458 81.2509 221.775 79.7887 222.411 78.5745C223.046 77.3551 223.912 76.4225 225.007 75.7767C226.103 75.1308 227.343 74.8079 228.727 74.8079C229.611 74.8079 230.432 74.9319 231.192 75.1799C231.951 75.4279 232.628 75.7922 233.222 76.2727C233.817 76.748 234.305 77.3319 234.687 78.0242C235.075 78.7114 235.328 79.4967 235.447 80.3803ZM236.77 90.8972V75.0249H247.093V77.4352H239.646V81.7443H246.559V84.1546H239.646V88.4869H247.155V90.8972H236.77ZM248.717 75.0249H252.236L256.948 86.5261H257.134L261.846 75.0249H265.365V90.8972H262.606V79.9928H262.458L258.072 90.8507H256.01L251.624 79.9695H251.476V90.8972H248.717V75.0249Z" fill="black"/>
<path d="M101.774 111.185H98.8758C98.7931 110.71 98.6407 110.289 98.4185 109.922C98.1963 109.55 97.9199 109.235 97.5892 108.977C97.2586 108.718 96.8814 108.524 96.4577 108.395C96.0392 108.261 95.5871 108.194 95.1014 108.194C94.2386 108.194 93.4739 108.411 92.8074 108.845C92.1409 109.274 91.619 109.904 91.2419 110.736C90.8647 111.562 90.6761 112.573 90.6761 113.766C90.6761 114.98 90.8647 116.003 91.2419 116.835C91.6242 117.662 92.146 118.287 92.8074 118.711C93.4739 119.129 94.236 119.338 95.0937 119.338C95.569 119.338 96.0134 119.276 96.4267 119.152C96.8452 119.023 97.2198 118.835 97.5505 118.587C97.8863 118.339 98.1679 118.034 98.3952 117.672C98.6278 117.311 98.7879 116.897 98.8758 116.432L101.774 116.448C101.666 117.202 101.431 117.91 101.069 118.571C100.713 119.233 100.245 119.816 99.6663 120.323C99.0876 120.824 98.4107 121.217 97.6357 121.501C96.8607 121.78 96.0005 121.919 95.0549 121.919C93.6599 121.919 92.4147 121.596 91.3194 120.951C90.224 120.305 89.3612 119.372 88.7308 118.153C88.1005 116.933 87.7853 115.471 87.7853 113.766C87.7853 112.056 88.1031 110.594 88.7386 109.38C89.3741 108.16 90.2395 107.228 91.3349 106.582C92.4302 105.936 93.6702 105.613 95.0549 105.613C95.9385 105.613 96.76 105.737 97.5195 105.985C98.279 106.233 98.9558 106.597 99.55 107.078C100.144 107.553 100.632 108.137 101.015 108.829C101.402 109.516 101.655 110.302 101.774 111.185ZM102.4 108.24V105.83H115.064V108.24H110.158V121.702H107.306V108.24H102.4ZM116.196 121.702V105.83H122.148C123.367 105.83 124.391 106.057 125.217 106.512C126.049 106.967 126.677 107.592 127.1 108.388C127.529 109.178 127.744 110.077 127.744 111.085C127.744 112.102 127.529 113.007 127.1 113.797C126.672 114.588 126.039 115.21 125.202 115.665C124.365 116.114 123.334 116.339 122.109 116.339H118.165V113.975H121.722C122.435 113.975 123.019 113.851 123.473 113.603C123.928 113.355 124.264 113.014 124.481 112.58C124.703 112.146 124.814 111.648 124.814 111.085C124.814 110.521 124.703 110.025 124.481 109.597C124.264 109.168 123.926 108.834 123.466 108.597C123.011 108.354 122.425 108.233 121.706 108.233H119.071V121.702H116.196ZM129.201 121.702H126.132L131.72 105.83H135.269L140.865 121.702H137.796L133.557 109.085H133.433L129.201 121.702ZM129.302 115.479H137.672V117.788H129.302V115.479ZM141.646 121.702V105.83H144.521V112.549H151.876V105.83H154.759V121.702H151.876V114.96H144.521V121.702H141.646ZM156.577 121.702V105.83H159.452V112.549H166.807V105.83H169.69V121.702H166.807V114.96H159.452V121.702H156.577ZM173.453 111.96H177.483C178.698 111.96 179.739 112.159 180.607 112.557C181.48 112.95 182.149 113.505 182.614 114.223C183.079 114.942 183.312 115.786 183.312 116.758C183.312 117.734 183.079 118.594 182.614 119.338C182.149 120.077 181.48 120.656 180.607 121.075C179.739 121.493 178.698 121.702 177.483 121.702H171.539V105.83H174.422V119.346H177.483C178.124 119.346 178.667 119.225 179.111 118.982C179.555 118.739 179.891 118.419 180.119 118.021C180.351 117.623 180.467 117.192 180.467 116.727C180.467 116.055 180.209 115.484 179.692 115.014C179.181 114.539 178.445 114.301 177.483 114.301H173.453V111.96ZM187.566 105.83V121.702H184.683V105.83H187.566ZM189.38 105.83H192.232V116.649H192.38L199.843 105.83H202.424V121.702H199.548V110.891H199.417L191.93 121.702H189.38V105.83ZM197.44 101.738H199.541C199.541 102.642 199.213 103.376 198.556 103.939C197.905 104.497 197.022 104.776 195.906 104.776C194.8 104.776 193.919 104.497 193.263 103.939C192.612 103.376 192.289 102.642 192.294 101.738H194.379C194.379 102.11 194.493 102.443 194.72 102.738C194.953 103.027 195.348 103.172 195.906 103.172C196.454 103.172 196.844 103.027 197.076 102.738C197.314 102.448 197.435 102.115 197.44 101.738Z" fill="black"/>
</svg>
