<svg width="311" height="161" viewBox="0 0 311 161" fill="none" xmlns="http://www.w3.org/2000/svg">
<rect x="0.430664" y="0.221878" width="309.707" height="160.762" rx="12" fill="#0AB40A"/>
<path fill-rule="evenodd" clip-rule="evenodd" d="M184.936 49.008C184.936 47.76 184.624 46.656 184 45.696C183.376 44.736 182.368 44.256 180.976 44.256C179.104 44.256 177.376 44.952 175.792 46.344C174.208 47.688 172.84 49.368 171.688 51.384C170.536 53.352 169.624 55.416 168.952 57.576C168.328 59.736 168.016 61.608 168.016 63.192V64.848H168.736C170.608 64.848 172.504 64.392 174.424 63.48C176.392 62.52 178.144 61.296 179.68 59.808C181.216 58.32 182.464 56.64 183.424 54.768C184.432 52.848 184.936 50.928 184.936 49.008ZM179.248 17.616C177.568 16.272 175.72 15.24 173.704 14.52C171.688 13.8 169.6 13.44 167.44 13.44C166.144 13.44 164.776 13.608 163.336 13.944C161.896 14.28 160.552 14.808 159.304 15.528C158.104 16.248 157.096 17.16 156.28 18.264C155.512 19.368 155.128 20.712 155.128 22.296C155.128 23.832 155.536 25.176 156.352 26.328C157.216 27.48 158.272 28.464 159.52 29.28C160.816 30.048 162.208 30.648 163.696 31.08C165.184 31.464 166.576 31.656 167.872 31.656C168.304 31.656 168.736 31.632 169.168 31.584L170.464 31.44C170.176 30.72 170.032 29.952 170.032 29.136C170.032 27.84 170.32 26.616 170.896 25.464C171.472 24.312 172.216 23.256 173.128 22.296C174.04 21.336 175.024 20.472 176.08 19.704C177.184 18.888 178.24 18.192 179.248 17.616ZM195.52 17.256C195.52 16.296 195.184 15.648 194.512 15.312C193.84 14.976 193.096 14.808 192.28 14.808C191.464 14.808 190.6 14.952 189.688 15.24C188.824 15.48 187.96 15.792 187.096 16.176C186.232 16.56 185.392 17.016 184.576 17.544C183.76 18.024 183.04 18.48 182.416 18.912C182.608 19.104 182.872 19.392 183.208 19.776C183.544 20.112 183.856 20.472 184.144 20.856C184.48 21.24 184.768 21.648 185.008 22.08C185.248 22.464 185.368 22.8 185.368 23.088L185.224 23.376C185.08 23.376 184.816 23.208 184.432 22.872C184.096 22.536 183.736 22.152 183.352 21.72C183.016 21.288 182.68 20.88 182.344 20.496C182.008 20.064 181.768 19.776 181.624 19.632C179.608 20.88 177.88 22.512 176.44 24.528C175.048 26.496 174.352 28.704 174.352 31.152C175.264 31.008 176.416 30.72 177.808 30.288C179.2 29.856 180.688 29.328 182.272 28.704C183.856 28.08 185.416 27.36 186.952 26.544C188.536 25.728 189.952 24.84 191.2 23.88C192.496 22.92 193.528 21.888 194.296 20.784C195.112 19.632 195.52 18.456 195.52 17.256ZM196.672 17.256C196.672 18.504 196.24 19.728 195.376 20.928C194.56 22.08 193.48 23.208 192.136 24.312C190.84 25.416 189.352 26.448 187.672 27.408C186.04 28.368 184.408 29.232 182.776 30C181.144 30.768 179.584 31.44 178.096 32.016C176.656 32.544 175.48 32.928 174.568 33.168C174.856 33.984 175.216 34.56 175.648 34.896C176.08 35.232 176.56 35.448 177.088 35.544C177.664 35.64 178.264 35.664 178.888 35.616C179.512 35.568 180.16 35.544 180.832 35.544C181.168 35.544 181.576 35.616 182.056 35.76C182.536 35.904 182.776 36.216 182.776 36.696C182.776 37.128 182.56 37.416 182.128 37.56C181.744 37.704 181.384 37.776 181.048 37.776C180.28 37.776 179.536 37.656 178.816 37.416C178.096 37.176 177.352 37.056 176.584 37.056C175.864 37.056 175.072 37.2 174.208 37.488C173.344 37.776 172.48 38.136 171.616 38.568C170.752 39 169.936 39.48 169.168 40.008C168.4 40.488 167.752 40.944 167.224 41.376C165.016 43.2 163.24 45.408 161.896 48C160.552 50.592 159.88 53.328 159.88 56.208C159.88 57.264 160.024 58.272 160.312 59.232C160.6 60.192 161.032 61.08 161.608 61.896C162.184 62.664 162.88 63.312 163.696 63.84C164.56 64.32 165.544 64.632 166.648 64.776C166.648 64.392 166.624 64.032 166.576 63.696V62.616C166.576 60.696 166.84 58.584 167.368 56.28C167.896 53.976 168.712 51.84 169.816 49.872C170.92 47.856 172.312 46.176 173.992 44.832C175.72 43.488 177.76 42.816 180.112 42.816C181.792 42.816 183.184 43.368 184.288 44.472C185.392 45.576 185.944 46.968 185.944 48.648C185.944 51.096 185.416 53.328 184.36 55.344C183.352 57.312 182.008 59.064 180.328 60.6C178.696 62.088 176.8 63.312 174.64 64.272C172.48 65.184 170.296 65.784 168.088 66.072C168.184 67.08 168.376 68.112 168.664 69.168C169 70.224 169.192 71.256 169.24 72.264L169.024 72.768C168.852 72.768 168.68 72.6076 168.508 72.287V100.523H162.499V89.775C162.364 89.8027 162.221 89.8294 162.073 89.8553C161.486 89.95 160.866 90.0352 160.212 90.111C159.559 90.1772 158.925 90.2293 158.309 90.2672C157.694 90.3051 157.163 90.324 156.718 90.324C154.379 90.324 152.343 89.9926 150.61 89.3297C148.877 88.6574 147.537 87.6204 146.59 86.2189C145.653 84.8174 145.184 83.0134 145.184 80.807V71.432H151.164V80.807C151.164 81.9244 151.358 82.824 151.747 83.5058C152.135 84.1782 152.736 84.6659 153.551 84.9689C154.374 85.2625 155.43 85.4092 156.718 85.4092C157.173 85.4092 157.708 85.395 158.323 85.3666C158.939 85.3288 159.573 85.2767 160.227 85.2104C160.89 85.1441 161.515 85.0636 162.102 84.9689C162.24 84.9466 162.372 84.9236 162.499 84.8997V71.432H168.155C167.965 70.9057 167.774 70.319 167.584 69.672C167.392 68.904 167.224 68.16 167.08 67.44C166.984 66.72 166.912 66.264 166.864 66.072C165.136 66.072 163.528 65.88 162.04 65.496C160.6 65.064 159.328 64.44 158.224 63.624C157.206 62.791 156.389 61.7573 155.772 60.5229H149.82V48.5058H137.335V60.5229H131.184V31.432H137.335V43.4348H149.82V31.432H155.957V49.6756C156.158 49.199 156.385 48.7364 156.64 48.288C157.84 46.128 159.376 44.256 161.248 42.672C163.168 41.088 165.304 39.768 167.656 38.712C170.056 37.608 172.432 36.768 174.784 36.192C173.488 35.568 172.48 34.728 171.76 33.672L169.456 33.96C168.688 34.008 167.92 34.032 167.152 34.032C165.568 34.032 163.936 33.864 162.256 33.528C160.624 33.144 159.136 32.568 157.792 31.8C156.448 30.984 155.344 29.928 154.48 28.632C153.616 27.288 153.184 25.68 153.184 23.808C153.184 21.888 153.616 20.232 154.48 18.84C155.344 17.4 156.448 16.224 157.792 15.312C159.184 14.352 160.72 13.632 162.4 13.152C164.08 12.672 165.76 12.432 167.44 12.432C169.792 12.432 172.048 12.84 174.208 13.656C176.416 14.424 178.432 15.528 180.256 16.968C182.032 16.152 183.928 15.432 185.944 14.808C187.96 14.184 189.952 13.872 191.92 13.872C192.448 13.872 193 13.944 193.576 14.088C194.152 14.184 194.656 14.352 195.088 14.592C195.568 14.832 195.952 15.192 196.24 15.672C196.528 16.104 196.672 16.632 196.672 17.256ZM59.1441 84.692C59.3041 85.892 59.3841 87.112 59.3841 88.352C59.3841 90.032 59.2041 91.692 58.8441 93.332C58.5241 94.972 58.0441 96.572 57.4041 98.132C55.3641 97.932 53.3841 97.492 51.4641 96.812C49.5841 96.132 47.8041 95.172 46.1241 93.932C48.2841 91.892 50.3641 89.792 52.3641 87.632C54.3641 85.432 56.3841 83.252 58.4241 81.092C58.7841 82.252 59.0241 83.452 59.1441 84.692ZM53.9241 75.092C55.6041 76.492 56.9641 78.212 58.0041 80.252C55.9241 82.532 53.8641 84.792 51.8241 87.032C49.7841 89.272 47.6241 91.412 45.3441 93.452C43.5631 92.0969 42.1007 90.5732 40.9568 88.8809V76.6534C41.1464 76.3817 41.3488 76.1212 41.5641 75.872C42.3241 74.992 43.2241 74.292 44.2641 73.772C45.3441 73.212 46.5241 72.932 47.8041 72.932C50.2441 72.932 52.2841 73.652 53.9241 75.092ZM40.9568 90.6025V96.9106C42.2033 96.0521 43.4057 95.0993 44.5641 94.052C43.4841 93.212 42.4841 92.292 41.5641 91.292C41.3555 91.0652 41.1531 90.8354 40.9568 90.6025ZM36.2303 100.523H40.9568V97.9403C42.4607 96.9686 43.9231 95.8725 45.3441 94.652C47.1441 95.812 49.0041 96.772 50.9241 97.532C52.8441 98.292 54.8841 98.772 57.0441 98.972C56.7641 99.652 56.4841 100.352 56.2041 101.072C55.9641 101.752 55.6841 102.432 55.3641 103.112L60.1641 102.452L61.6641 99.332C62.1841 99.292 62.9241 99.152 63.8841 98.912C64.8841 98.672 65.8641 98.352 66.8241 97.952C67.8241 97.512 68.7041 97.012 69.4641 96.452C70.2241 95.892 70.6241 95.272 70.6641 94.592L70.4841 94.412C70.2441 94.452 69.9241 94.672 69.5241 95.072C69.1641 95.432 68.6641 95.852 68.0241 96.332C67.4241 96.772 66.6441 97.212 65.6841 97.652C64.7241 98.052 63.5241 98.292 62.0841 98.372C64.8049 91.8496 67.8382 85.5182 71.1841 79.3777V100.523H77.3346V88.1223H79.4369L88.7835 100.523H96.4114L84.5364 84.9263L95.8858 71.432H88.2295L78.5704 83.0513H77.3346V71.432H75.9005C78.5838 67.276 81.5183 63.276 84.7041 59.432C81.9441 60.592 79.4041 61.892 77.0841 63.332C74.7641 64.772 72.5641 66.332 70.4841 68.012C68.4441 69.692 66.4441 71.512 64.4841 73.472C62.5641 75.392 60.6241 77.432 58.6641 79.592C58.0241 78.432 57.2641 77.352 56.3841 76.352C55.5441 75.312 54.6041 74.412 53.5641 73.652C52.5241 72.852 51.3841 72.232 50.1441 71.792C48.9041 71.352 47.6041 71.132 46.2441 71.132C44.8841 71.132 43.6241 71.372 42.4641 71.852C41.9298 72.0619 41.4274 72.3173 40.9568 72.6182V71.432H34.8204V83.4348H34.7145C34.5348 82.7345 34.258 82.0936 33.8841 81.512C33.1641 80.392 32.2441 79.492 31.1241 78.812C30.0041 78.092 28.7441 77.572 27.3441 77.252C25.9441 76.892 24.5841 76.712 23.2641 76.712C22.9543 76.712 22.6445 76.7208 22.3347 76.7385V71.432H16.1841V78.228C14.7786 78.8185 13.4786 79.5732 12.2841 80.492C10.7641 81.692 9.52408 83.152 8.56408 84.872C7.64408 86.552 7.18408 88.432 7.18408 90.512C7.18408 92.872 7.66408 94.852 8.62408 96.452C9.62408 98.052 10.9241 99.352 12.5241 100.352C14.1241 101.312 15.9241 102.012 17.9241 102.452C19.9241 102.892 21.9241 103.112 23.9241 103.112C28.0441 103.112 31.8641 102.372 35.3841 100.892C35.6674 100.773 35.9495 100.65 36.2303 100.523ZM71.1841 71.432H73.2449C75.6993 68.2712 78.299 65.1912 81.0441 62.192C79.0041 63.072 76.9641 64.212 74.9241 65.612C72.9241 66.972 70.9841 68.492 69.1041 70.172C67.2641 71.812 65.4841 73.532 63.7641 75.332C62.0841 77.092 60.5241 78.792 59.0841 80.432C59.4841 81.712 59.7641 83.012 59.9241 84.332C60.1241 85.612 60.2241 86.912 60.2241 88.232C60.2241 89.072 60.1841 89.912 60.1041 90.752C60.0241 91.592 59.9041 92.432 59.7441 93.272C62.4641 87.472 65.6041 82.032 69.1641 76.952C69.8253 76.0116 70.4986 75.078 71.1841 74.1511V71.432ZM34.8204 100.229C31.3818 101.591 27.7097 102.272 23.8041 102.272C22.2041 102.272 20.5241 102.112 18.7641 101.792C17.0041 101.432 15.3841 100.852 13.9041 100.052C12.4241 99.252 11.2041 98.192 10.2441 96.872C9.28408 95.552 8.80408 93.912 8.80408 91.952C8.80408 89.992 9.28408 88.232 10.2441 86.672C11.2041 85.072 12.4241 83.732 13.9041 82.652C14.6278 82.1377 15.3878 81.6825 16.1841 81.2861V100.523H22.3347V96.092H22.4241C24.0241 96.092 25.5641 95.872 27.0441 95.432C28.5641 94.992 29.9041 94.332 31.0641 93.452C32.2641 92.572 33.2041 91.472 33.8841 90.152C34.1651 89.6368 34.3913 89.0881 34.5626 88.5058H34.8204V100.229ZM33.1927 83.4348C33.1281 83.31 33.0586 83.189 32.9841 83.072C32.4241 82.152 31.6841 81.412 30.7641 80.852C29.8841 80.292 28.8841 79.892 27.7641 79.652C26.6441 79.412 25.5241 79.292 24.4041 79.292C23.7233 79.292 23.0334 79.3369 22.3347 79.4267V83.4348H33.1927ZM33.565 88.5058H22.3347V95.3112C23.6445 95.2985 24.9543 95.1187 26.2641 94.772C27.6641 94.412 28.9241 93.872 30.0441 93.152C31.1641 92.432 32.0641 91.512 32.7441 90.392C33.1114 89.8205 33.3851 89.1918 33.565 88.5058ZM293.47 85.776C293.47 84.6667 293.171 83.6854 292.574 82.832C291.976 81.936 291.059 81.488 289.822 81.488C287.944 81.488 286.259 82.1707 284.766 83.536C283.315 84.8587 282.078 86.48 281.054 88.4C280.03 90.2774 279.24 92.2827 278.686 94.416C278.174 96.5067 277.918 98.32 277.918 99.856C279.624 99.6854 281.395 99.216 283.23 98.448C285.064 97.6374 286.728 96.6134 288.222 95.376C289.758 94.1387 291.016 92.7094 291.998 91.088C292.979 89.424 293.47 87.6534 293.47 85.776ZM294.494 85.648C294.494 87.6107 293.96 89.4667 292.894 91.216C291.87 92.9654 290.547 94.5227 288.926 95.888C287.304 97.2107 285.534 98.32 283.614 99.216C281.694 100.112 279.838 100.688 278.046 100.944C278.046 101.797 278.152 102.651 278.366 103.504C278.622 104.357 278.899 105.211 279.198 106.064L279.134 106.256L278.814 106.384C278.472 106.085 278.195 105.701 277.982 105.232C277.811 104.805 277.662 104.336 277.534 103.824C277.406 103.355 277.299 102.864 277.214 102.352C277.128 101.883 277.043 101.435 276.958 101.008C273.331 101.008 270.579 100.005 268.702 98C266.824 95.9947 265.886 93.2 265.886 89.616C265.886 86.6294 266.547 83.6427 267.87 80.656C268.504 79.2487 269.207 77.8643 269.98 76.503H262.17V100.523H256.09V76.503H247.184V71.432H265.507C266.11 70.8547 266.706 70.2814 267.294 69.712C270.536 66.5974 274.078 63.6747 277.918 60.944C281.758 58.1707 285.747 55.888 289.886 54.096C288.563 55.6747 287.155 57.424 285.662 59.344C284.211 61.2214 282.76 63.2054 281.31 65.296C279.902 67.3867 278.536 69.5627 277.214 71.824C275.934 74.0427 274.803 76.304 273.822 78.608C272.84 80.8694 272.051 83.1307 271.454 85.392C270.856 87.6534 270.558 89.8507 270.558 91.984C270.558 93.008 270.664 93.9894 270.878 94.928C271.091 95.8667 271.432 96.72 271.902 97.488C272.414 98.2134 273.075 98.8107 273.886 99.28C274.696 99.7067 275.678 99.92 276.83 99.92C276.702 98.5974 276.638 97.232 276.638 95.824C276.638 94.16 276.915 92.3894 277.47 90.512C278.067 88.6347 278.899 86.928 279.966 85.392C281.032 83.8134 282.334 82.512 283.87 81.488C285.406 80.4214 287.112 79.888 288.99 79.888C290.739 79.888 292.083 80.4214 293.022 81.488C294.003 82.5547 294.494 83.9414 294.494 85.648ZM266.643 71.432H271.076V74.6606C271.659 73.7252 272.276 72.801 272.926 71.888C274.931 69.072 277.107 66.4054 279.454 63.888C281.8 61.3707 283.976 59.088 285.982 57.04C280.776 59.6427 276.019 62.864 271.71 66.704C269.976 68.2317 268.287 69.8077 266.643 71.432ZM97.1841 71.432V100.523H103.335V91.0911H108.505C110.74 91.0911 112.643 90.6791 114.215 89.8553C115.797 89.0314 117.004 87.8808 117.837 86.4036C118.671 84.9263 119.087 83.2217 119.087 81.2899C119.087 79.3581 118.676 77.6536 117.852 76.1763C117.037 74.6896 115.854 73.5295 114.301 72.6962C112.748 71.8534 110.868 71.432 108.661 71.432H97.1841ZM103.335 86.1621V76.4604H107.482C108.676 76.4604 109.66 76.664 110.437 77.0712C111.213 77.4689 111.791 78.0324 112.17 78.7615C112.558 79.4812 112.752 80.324 112.752 81.2899C112.752 82.2464 112.558 83.0939 112.17 83.8325C111.791 84.5617 111.213 85.1346 110.437 85.5513C109.67 85.9585 108.694 86.1621 107.511 86.1621H103.335ZM123.028 100.921V95.9206H124.605C125.391 95.9206 126.025 95.8259 126.508 95.6365C126.991 95.4377 127.374 95.1488 127.659 94.77C127.952 94.3818 128.198 93.8988 128.397 93.3212L128.752 92.3695L118.184 71.432H124.548L131.394 85.7502L137.119 71.432H143.397L133.369 94.8127C132.886 95.8922 132.313 96.896 131.65 97.824C130.997 98.7521 130.159 99.5002 129.136 100.068C128.113 100.637 126.806 100.921 125.215 100.921H123.028ZM172.184 71.432H178.32V89.7274H178.562L191.133 71.432H196.516V100.523H190.366V82.2132H190.153L177.511 100.523H172.184V71.432ZM200.184 71.432V100.523H212.613C214.791 100.523 216.623 100.173 218.11 99.4717C219.597 98.771 220.719 97.8193 221.477 96.6166C222.244 95.4045 222.627 94.0267 222.627 92.4831C222.627 91.0532 222.324 89.8221 221.718 88.7899C221.112 87.7483 220.321 86.9386 219.346 86.361C218.38 85.7833 217.343 85.4708 216.235 85.4235V85.1394C217.248 84.9121 218.148 84.5286 218.934 83.9888C219.73 83.4396 220.355 82.7388 220.809 81.8865C221.264 81.0248 221.491 80.0257 221.491 78.8894C221.491 77.431 221.131 76.1432 220.411 75.0257C219.692 73.8988 218.617 73.0182 217.187 72.3837C215.757 71.7492 213.972 71.432 211.832 71.432H200.184ZM211.349 95.4945H206.335V87.7672H211.491C212.476 87.7672 213.323 87.9424 214.034 88.2928C214.753 88.6432 215.307 89.1261 215.695 89.7416C216.084 90.3572 216.278 91.0674 216.278 91.8723C216.278 92.9708 215.885 93.8515 215.099 94.5144C214.313 95.1678 213.063 95.4945 211.349 95.4945ZM210.894 83.6053H206.335V76.4036H211.008C212.372 76.4036 213.423 76.7255 214.161 77.3695C214.909 78.0134 215.284 78.861 215.284 79.9121C215.284 80.6791 215.089 81.3373 214.701 81.8865C214.322 82.4358 213.802 82.8619 213.139 83.1649C212.485 83.4585 211.737 83.6053 210.894 83.6053ZM228.775 100.523H222.184L232.227 71.432H240.153L250.181 100.523H243.59L241.437 93.8894H230.933L228.775 100.523ZM236.303 78.0797L239.878 89.0882H232.495L236.076 78.0797H236.303ZM160.28 111.992V112.568C160.323 112.739 160.344 112.909 160.344 113.08C160.344 115.341 160.024 117.411 159.384 119.288C158.787 121.165 157.933 122.765 156.824 124.088C155.715 125.411 154.413 126.435 152.92 127.16C151.427 127.885 149.827 128.248 148.12 128.248C146.765 128.248 145.558 128.001 144.499 127.506H135.335V134.452H148.843V139.523H136.591C136.81 139.885 136.92 140.308 136.92 140.792C136.92 141.389 136.728 141.923 136.344 142.392C136.003 142.819 135.491 143.032 134.808 143.032C134.893 143.459 135.085 143.821 135.384 144.12C135.725 144.376 136.109 144.611 136.536 144.824C137.347 145.165 138.328 145.336 139.48 145.336C141.571 145.336 143.469 144.888 145.176 143.992C146.883 143.096 148.611 141.624 150.36 139.576C151.811 137.869 153.304 135.736 154.84 133.176C156.419 130.616 158.339 127.523 160.6 123.896C162.392 120.995 164.056 118.477 165.592 116.344C167.128 114.211 168.707 112.376 170.328 110.84C173.059 108.28 176.323 106.381 180.12 105.144V105.016C179.181 105.016 178.157 104.995 177.048 104.952L173.72 104.824C172.653 104.739 171.629 104.675 170.648 104.632C169.667 104.547 168.856 104.504 168.216 104.504C166.339 104.504 164.525 104.547 162.776 104.632C161.069 104.717 159.384 104.909 157.72 105.208C156.056 105.507 154.413 105.912 152.792 106.424C151.171 106.936 149.528 107.64 147.864 108.536C146.828 109.128 145.905 109.76 145.093 110.432H148.786V115.503H141.297C140.896 116.537 140.696 117.585 140.696 118.648C140.696 119.885 140.888 121.016 141.272 122.04C141.328 122.174 141.386 122.306 141.446 122.435H147.778V126.975C148.119 127.013 148.468 127.032 148.824 127.032C150.36 127.032 151.768 126.691 153.048 126.008C154.371 125.325 155.501 124.365 156.44 123.128C157.421 121.891 158.168 120.419 158.68 118.712C159.235 116.963 159.512 115.043 159.512 112.952V111.992H160.28ZM139.928 119.096C139.928 120.309 140.076 121.422 140.371 122.435H135.335V115.503H140.514C140.123 116.64 139.928 117.837 139.928 119.096ZM129.184 139.523H132.716C132.361 140.01 132.184 140.604 132.184 141.304C132.184 142.029 132.397 142.733 132.824 143.416C133.251 144.099 133.955 144.696 134.936 145.208C136.088 145.805 137.603 146.104 139.48 146.104C141.784 146.104 143.96 145.677 146.008 144.824C148.056 143.928 150.083 142.584 152.088 140.792C153.88 139.213 155.608 137.315 157.272 135.096C158.979 132.877 160.707 130.296 162.456 127.352C163.395 125.901 164.653 124.749 166.232 123.896C167.811 123 169.475 122.595 171.224 122.68C172.973 122.765 174.296 123.405 175.192 124.6C176.131 125.795 176.6 127.608 176.6 130.04C176.6 131.96 176.323 133.923 175.768 135.928C175.213 137.891 174.232 139.683 172.824 141.304C171.715 142.541 170.477 143.437 169.112 143.992C167.747 144.547 166.424 144.824 165.144 144.824C163.651 144.824 162.456 144.461 161.56 143.736C160.707 143.011 160.28 141.987 160.28 140.664C160.28 139.725 160.429 138.893 160.728 138.168C161.027 137.4 161.56 136.973 162.328 136.888C161.987 136.632 161.688 136.44 161.432 136.312C161.219 136.184 160.899 136.12 160.472 136.12C159.491 136.12 158.637 136.461 157.912 137.144C157.187 137.827 156.824 138.787 156.824 140.024C156.824 140.835 157.016 141.581 157.4 142.264C157.827 142.947 158.381 143.544 159.064 144.056C159.747 144.525 160.557 144.888 161.496 145.144C162.435 145.443 163.416 145.592 164.44 145.592C166.36 145.592 168.237 145.229 170.072 144.504C171.949 143.736 173.613 142.712 175.064 141.432C176.771 139.939 178.093 138.253 179.032 136.376C179.971 134.499 180.44 132.344 180.44 129.912C180.44 127.565 179.757 125.645 178.392 124.152C177.069 122.659 174.893 121.912 171.864 121.912C170.755 121.912 169.453 122.104 167.96 122.488C166.509 122.872 165.187 123.619 163.992 124.728C166.467 120.504 168.664 117.091 170.584 114.488C172.504 111.843 174.339 109.773 176.088 108.28C177.581 107.043 179.011 106.168 180.376 105.656C181.784 105.144 183.299 104.888 184.92 104.888H185.752H187.16C187.672 104.845 188.141 104.824 188.568 104.824H189.592H190.872C191.299 104.824 191.683 104.781 192.024 104.696C192.408 104.568 192.707 104.397 192.92 104.184C193.176 103.971 193.304 103.651 193.304 103.224C193.304 102.755 193.133 102.349 192.792 102.008C192.451 101.624 191.917 101.432 191.192 101.432C190.467 101.432 189.72 101.496 188.952 101.624C188.227 101.752 187.331 101.816 186.264 101.816C185.709 101.816 184.941 101.795 183.96 101.752C183.021 101.709 182.04 101.667 181.016 101.624C179.992 101.581 178.989 101.539 178.008 101.496C177.069 101.453 176.323 101.432 175.768 101.432C171.117 101.432 166.829 101.667 162.904 102.136C158.979 102.563 155.352 103.459 152.024 104.824C150.531 105.464 149.059 106.253 147.608 107.192C146.167 108.125 144.873 109.205 143.726 110.432H129.184V139.523ZM120.141 120.014H126.363C126.164 118.329 125.71 116.833 124.999 115.526C124.299 114.219 123.39 113.116 122.272 112.216C121.155 111.307 119.872 110.616 118.423 110.142C116.983 109.669 115.421 109.432 113.735 109.432C111.178 109.432 108.877 110.019 106.832 111.193C104.786 112.358 103.167 114.053 101.974 116.279C100.781 118.504 100.184 121.203 100.184 124.375C100.184 127.538 100.771 130.232 101.945 132.458C103.129 134.683 104.739 136.383 106.775 137.557C108.82 138.731 111.141 139.318 113.735 139.318C115.601 139.318 117.272 139.039 118.749 138.48C120.236 137.912 121.515 137.145 122.585 136.179C123.664 135.204 124.521 134.101 125.156 132.869C125.8 131.629 126.202 130.341 126.363 129.006L120.141 128.977C119.999 129.754 119.744 130.445 119.374 131.051C119.015 131.657 118.56 132.173 118.011 132.6C117.462 133.016 116.832 133.333 116.122 133.551C115.421 133.769 114.659 133.878 113.835 133.878C112.367 133.878 111.074 133.518 109.957 132.798C108.839 132.079 107.968 131.013 107.343 129.602C106.728 128.191 106.42 126.449 106.42 124.375C106.42 122.358 106.728 120.644 107.343 119.233C107.959 117.813 108.825 116.733 109.943 115.994C111.06 115.246 112.372 114.872 113.877 114.872C114.711 114.872 115.482 114.991 116.193 115.227C116.912 115.464 117.547 115.805 118.096 116.25C118.645 116.695 119.095 117.235 119.445 117.869C119.796 118.494 120.028 119.209 120.141 120.014ZM195.974 139.523H202.11V110.432H190.647C188.45 110.432 186.57 110.825 185.008 111.611C183.455 112.387 182.266 113.491 181.443 114.921C180.628 116.341 180.221 118.012 180.221 119.935C180.221 121.867 180.638 123.529 181.471 124.921C182.304 126.303 183.512 127.364 185.093 128.102C185.18 128.143 185.268 128.182 185.357 128.221L179.184 139.523H185.974L191.484 129.21H195.974V139.523ZM195.974 124.267V115.46H191.826C190.642 115.46 189.658 115.636 188.872 115.986C188.095 116.327 187.513 116.829 187.124 117.492C186.736 118.155 186.542 118.969 186.542 119.935C186.542 120.891 186.736 121.691 187.124 122.335C187.513 122.979 188.095 123.462 188.872 123.784C189.648 124.106 190.623 124.267 191.798 124.267H195.974Z" fill="white"/>
</svg>
