<svg width="404" height="650" viewBox="0 0 404 650" fill="none" xmlns="http://www.w3.org/2000/svg">
<g clip-path="url(#clip0_255_2727)">
<path d="M85.5714 180.079L106.218 160.827C112.486 154.982 113.866 146.113 109.053 140.952C104.24 135.79 105.62 126.921 111.888 121.077L131.06 103.2C137.328 97.355 137.676 87.3802 131.832 81.1124L104.672 51.9856C98.8276 45.7178 88.8528 45.3692 82.585 51.2136L51.6147 80.0923C45.3469 85.9367 35.3721 85.5881 29.5276 79.3203C23.6831 73.0525 24.0317 63.0777 30.2995 57.2332L61.2698 28.3546C67.5376 22.5102 67.8862 12.5354 62.0418 6.26756L34.8821 -22.8593C29.0377 -29.1271 19.0629 -29.4757 12.7951 -23.6312L-6.37703 -5.75398C-12.6448 0.0904852 -21.5883 0.847952 -26.4014 -4.31376C-31.2144 -9.47548 -40.1579 -8.71802 -46.4257 -2.87353L-67.0725 16.3789C-73.3403 22.2233 -83.3152 21.8747 -89.1596 15.6069L-97.4107 6.75827C-103.255 0.490477 -111.755 -1.23332 -116.179 2.89219C-120.604 7.01771 -119.478 15.6174 -113.633 21.8852L-77.535 60.598C-71.6905 66.8658 -61.7157 67.2144 -55.4479 61.37L-41.4375 48.3058C-35.1697 42.4613 -25.1949 42.81 -19.3504 49.0778L-6.63009 62.7194C-0.785605 68.9872 -1.13422 78.9621 -7.402 84.8065L-127.965 197.227C-134.233 203.071 -144.208 202.723 -150.052 196.455L-163.46 182.076C-169.304 175.808 -179.279 175.459 -185.547 181.304L-231.265 223.934C-237.533 229.779 -237.881 239.753 -232.037 246.021L-215.191 264.087C-209.347 270.355 -199.372 270.704 -193.104 264.859L-147.755 222.573C-141.487 216.728 -131.512 217.077 -125.668 223.345C-119.823 229.612 -120.172 239.587 -126.44 245.432L-171.789 287.718C-178.057 293.563 -178.405 303.537 -172.561 309.805L-155.715 327.871C-149.871 334.139 -139.158 333.8 -133.628 328.643L-87.9099 286.013C-81.6421 280.168 -81.2935 270.194 -87.138 263.926L-100.89 249.178C-106.734 242.91 -106.386 232.935 -100.118 227.091L20.4452 114.671C26.713 108.826 36.6878 109.175 42.5323 115.443L56.284 130.19C62.1285 136.458 61.7799 146.433 55.5121 152.278L41.5017 165.342C35.2339 171.186 34.8853 181.161 40.7297 187.429L76.828 226.142C82.6725 232.409 91.1725 234.133 95.5968 230.008C100.021 225.882 98.895 217.283 93.0505 211.015L84.7995 202.166C78.955 195.898 79.3036 185.923 85.5714 180.079Z" fill="#9FA49F"/>
<path d="M101.091 564.878L121.738 545.625C128.006 539.781 129.386 530.912 124.573 525.75C119.759 520.589 121.139 511.72 127.407 505.876L146.579 487.998C152.847 482.154 153.196 472.179 147.351 465.911L120.192 436.784C114.347 430.517 104.372 430.168 98.1045 436.012L67.1342 464.891C60.8664 470.736 50.8916 470.387 45.0471 464.119C39.2027 457.851 39.5513 447.877 45.8191 442.032L76.7894 413.153C83.0572 407.309 83.4058 397.334 77.5613 391.066L50.4017 361.94C44.5572 355.672 34.5824 355.323 28.3146 361.168L9.1425 379.045C2.87472 384.889 -6.06872 385.647 -10.8818 380.485C-15.6949 375.323 -24.6384 376.081 -30.9062 381.925L-51.553 401.178C-57.8208 407.022 -67.7956 406.674 -73.6401 400.406L-81.8911 391.557C-87.7356 385.289 -96.2356 383.566 -100.66 387.691C-105.084 391.817 -103.958 400.416 -98.1137 406.684L-62.0154 445.397C-56.171 451.665 -46.1961 452.013 -39.9284 446.169L-25.918 433.105C-19.6502 427.26 -9.67536 427.609 -3.83088 433.877L8.88944 447.518C14.7339 453.786 14.3853 463.761 8.11753 469.605L-112.445 582.026C-118.713 587.87 -128.688 587.521 -134.533 581.254L-147.94 566.875C-153.785 560.607 -163.76 560.258 -170.027 566.103L-215.746 608.733C-222.013 614.577 -222.362 624.552 -216.517 630.82L-199.672 648.886C-193.827 655.154 -183.852 655.502 -177.585 649.658L-132.235 607.371C-125.967 601.527 -115.993 601.876 -110.148 608.143C-104.304 614.411 -104.652 624.386 -110.92 630.231L-156.269 672.517C-162.537 678.362 -162.886 688.336 -157.041 694.604L-140.195 712.67C-134.351 718.938 -123.639 718.599 -118.108 713.442L-72.3904 670.812C-66.1226 664.967 -65.7739 654.992 -71.6184 648.725L-85.3701 633.977C-91.2146 627.709 -90.866 617.734 -84.5982 611.89L35.9648 499.47C42.2325 493.625 52.2073 493.974 58.0518 500.242L71.8035 514.989C77.648 521.257 77.2994 531.232 71.0316 537.076L57.0212 550.14C50.7534 555.985 50.4048 565.96 56.2493 572.228L92.3475 610.94C98.192 617.208 106.692 618.932 111.116 614.806C115.541 610.681 114.415 602.081 108.57 595.814L100.319 586.965C94.4746 580.697 94.8232 570.722 101.091 564.878Z" fill="#9FA49F"/>
<path d="M436.042 576.802L429.295 549.39C427.247 541.068 420.175 535.541 413.322 537.227C406.469 538.914 399.398 533.387 397.35 525.065L391.084 499.611C389.036 491.29 380.496 486.123 372.175 488.172L333.504 497.69C325.183 499.739 320.016 508.278 322.065 516.6L332.186 557.718C334.234 566.04 329.068 574.579 320.746 576.628C312.425 578.676 303.885 573.51 301.837 565.188L291.716 524.07C289.667 515.749 281.127 510.583 272.806 512.631L234.135 522.149C225.814 524.198 220.648 532.738 222.696 541.059L228.961 566.513C231.01 574.835 227.312 583.013 220.459 584.7C213.606 586.387 209.908 594.565 211.957 602.887L218.704 630.299C220.752 638.62 215.586 647.16 207.265 649.208L195.516 652.1C187.195 654.148 181.547 660.73 182.993 666.604C184.439 672.478 192.496 675.686 200.818 673.638L252.216 660.987C260.537 658.939 265.703 650.399 263.655 642.077L259.076 623.476C257.028 615.155 262.194 606.615 270.516 604.566L288.627 600.108C296.949 598.06 305.489 603.226 307.537 611.548L346.937 771.615C348.985 779.936 343.819 788.476 335.497 790.524L316.407 795.223C308.085 797.272 302.919 805.811 304.967 814.133L319.908 874.831C321.956 883.153 330.496 888.319 338.818 886.271L362.803 880.367C371.125 878.318 376.291 869.778 374.243 861.457L359.422 801.248C357.374 792.927 362.54 784.387 370.862 782.339C379.183 780.29 387.723 785.457 389.772 793.778L404.592 853.987C406.64 862.308 415.18 867.474 423.501 865.426L447.487 859.522C455.808 857.474 460.734 847.955 458.926 840.612L443.986 779.914C441.937 771.593 433.398 766.427 425.076 768.475L405.496 773.294C397.174 775.343 388.635 770.177 386.586 761.855L347.187 601.788C345.138 593.467 350.304 584.927 358.626 582.879L378.206 578.059C386.528 576.011 395.067 581.177 397.116 589.498L401.694 608.099C403.743 616.421 412.282 621.587 420.604 619.539L472.002 606.888C480.323 604.839 485.971 598.257 484.525 592.383C483.079 586.509 475.022 583.301 466.7 585.35L454.952 588.241C446.631 590.29 438.091 585.123 436.042 576.802Z" fill="#9FA49F"/>
<path d="M312.376 168.023L285.827 158.426C277.768 155.512 269.245 158.328 266.846 164.965C264.447 171.602 255.924 174.417 247.865 171.504L223.212 162.592C215.153 159.678 206.116 163.916 203.203 171.975L189.663 209.428C186.75 217.487 190.987 226.524 199.047 229.438L238.87 243.834C246.929 246.748 251.167 255.784 248.253 263.844C245.34 271.903 236.303 276.141 228.244 273.227L188.421 258.831C180.361 255.917 171.325 260.155 168.411 268.214L154.872 305.667C151.958 313.726 156.196 322.763 164.255 325.677L188.908 334.589C196.967 337.502 201.719 345.117 199.319 351.754C196.92 358.391 201.672 366.005 209.731 368.919L236.28 378.516C244.339 381.43 248.577 390.467 245.664 398.526L241.55 409.904C238.637 417.963 240.978 426.315 246.667 428.371C252.356 430.428 259.496 425.505 262.41 417.445L280.406 367.666C283.319 359.607 279.082 350.57 271.022 347.657L253.007 341.144C244.947 338.23 240.71 329.194 243.623 321.134L249.965 303.593C252.878 295.534 261.915 291.296 269.974 294.21L425 350.253C433.059 353.167 437.297 362.203 434.383 370.263L427.699 388.752C424.785 396.812 429.023 405.848 437.083 408.762L495.869 430.014C503.928 432.927 512.965 428.69 515.879 420.63L524.277 397.4C527.19 389.341 522.952 380.304 514.893 377.39L456.581 356.31C448.521 353.396 444.283 344.36 447.197 336.3C450.111 328.241 459.147 324.003 467.207 326.917L525.519 347.997C533.578 350.911 542.615 346.673 545.529 338.614L553.926 315.384C556.84 307.324 551.654 297.945 544.543 295.374L485.757 274.122C477.697 271.208 468.661 275.446 465.747 283.506L458.891 302.469C455.978 310.528 446.941 314.766 438.882 311.853L283.857 255.809C275.797 252.895 271.559 243.859 274.473 235.799L281.328 216.836C284.242 208.777 293.279 204.539 301.338 207.452L319.353 213.965C327.413 216.879 336.449 212.641 339.363 204.582L357.358 154.803C360.272 146.743 357.931 138.392 352.242 136.336C346.553 134.279 339.412 139.202 336.499 147.262L332.385 158.64C329.472 166.699 320.435 170.937 312.376 168.023Z" fill="#9FA49F"/>
<path d="M423.56 -89.1686L408.735 -113.193C404.235 -120.486 395.81 -123.581 389.803 -119.874C383.797 -116.168 375.372 -119.262 370.872 -126.556L357.106 -148.864C352.606 -156.157 342.894 -158.457 335.6 -153.957L301.709 -133.044C294.415 -128.544 292.115 -118.831 296.616 -111.538L318.852 -75.5013C323.353 -68.2081 321.053 -58.4958 313.76 -53.9955C306.466 -49.4952 296.754 -51.7952 292.254 -59.0884L270.017 -95.1253C265.517 -102.418 255.804 -104.718 248.511 -100.218L214.619 -79.305C207.326 -74.8047 205.026 -65.0925 209.526 -57.7993L223.292 -35.4907C227.792 -28.1976 226.779 -19.2794 220.773 -15.5733C214.767 -11.8672 213.754 -2.94908 218.254 4.34411L233.079 28.3687C237.579 35.6619 235.279 45.3742 227.986 49.8745L217.69 56.2278C210.397 60.7281 207.038 68.7244 210.214 73.8725C213.391 79.0206 222.044 79.6046 229.338 75.1043L274.384 47.3083C281.677 42.808 283.977 33.0958 279.477 25.8026L269.417 9.50015C264.917 2.20699 267.217 -7.5053 274.51 -12.0056L290.383 -21.8004C297.677 -26.3007 307.389 -24.0007 311.889 -16.7075L398.454 123.579C402.954 130.872 400.654 140.584 393.361 145.085L376.63 155.409C369.336 159.909 367.036 169.622 371.537 176.915L404.362 230.112C408.863 237.405 418.575 239.705 425.868 235.205L446.89 222.233C454.183 217.733 456.483 208.021 451.983 200.728L419.422 147.959C414.921 140.666 417.221 130.954 424.514 126.454C431.808 121.953 441.52 124.253 446.02 131.547L478.581 184.315C483.081 191.608 492.794 193.908 500.087 189.408L521.108 176.436C528.402 171.936 530.172 161.366 526.201 154.931L493.376 101.733C488.875 94.4401 479.163 92.1401 471.87 96.6404L454.709 107.229C447.416 111.73 437.704 109.43 433.204 102.136L346.639 -38.1501C342.139 -45.4433 344.439 -55.1555 351.732 -59.6558L368.892 -70.2448C376.186 -74.7451 385.898 -72.4451 390.398 -65.1519L400.458 -48.8495C404.958 -41.5563 414.67 -39.2563 421.963 -43.7566L467.01 -71.5526C474.303 -76.0529 477.662 -84.0491 474.485 -89.1972C471.308 -94.3454 462.655 -94.9293 455.362 -90.429L445.065 -84.0757C437.772 -79.5754 428.06 -81.8754 423.56 -89.1686Z" fill="#9FA49F"/>
</g>
<defs>
<clipPath id="clip0_255_2727">
<rect width="402.589" height="649.394" fill="white" transform="translate(0.444336 0.227051)"/>
</clipPath>
</defs>
</svg>
