<svg width="403" height="650" viewBox="0 0 403 650" fill="none" xmlns="http://www.w3.org/2000/svg">
<g clip-path="url(#clip0_255_2458)">
<path d="M85.3957 180.079L106.043 160.827C112.31 154.982 113.69 146.113 108.877 140.952C104.064 135.79 105.444 126.921 111.712 121.077L130.884 103.2C137.152 97.355 137.5 87.3802 131.656 81.1124L104.496 51.9856C98.6518 45.7178 88.677 45.3692 82.4092 51.2136L51.4389 80.0923C45.1711 85.9367 35.1963 85.5881 29.3518 79.3203C23.5074 73.0525 23.856 63.0777 30.1238 57.2332L61.0941 28.3546C67.3618 22.5102 67.7105 12.5354 61.866 6.26756L34.7064 -22.8593C28.8619 -29.1271 18.8871 -29.4757 12.6193 -23.6312L-6.55281 -5.75398C-12.8206 0.0904852 -21.764 0.847952 -26.5771 -4.31376C-31.3902 -9.47548 -40.3337 -8.71802 -46.6015 -2.87353L-67.2483 16.3789C-73.5161 22.2233 -83.4909 21.8747 -89.3354 15.6069L-97.5864 6.75827C-103.431 0.490477 -111.931 -1.23332 -116.355 2.89219C-120.78 7.01771 -119.653 15.6174 -113.809 21.8852L-77.7107 60.598C-71.8663 66.8658 -61.8915 67.2144 -55.6237 61.37L-41.6133 48.3058C-35.3455 42.4613 -25.3707 42.81 -19.5262 49.0778L-6.80587 62.7194C-0.961386 68.9872 -1.31 78.9621 -7.57778 84.8065L-128.141 197.227C-134.409 203.071 -144.383 202.723 -150.228 196.455L-163.636 182.076C-169.48 175.808 -179.455 175.459 -185.723 181.304L-231.441 223.934C-237.709 229.779 -238.057 239.753 -232.213 246.021L-215.367 264.087C-209.522 270.355 -199.548 270.704 -193.28 264.859L-147.931 222.573C-141.663 216.728 -131.688 217.077 -125.843 223.345C-119.999 229.612 -120.348 239.587 -126.615 245.432L-171.965 287.718C-178.233 293.563 -178.581 303.537 -172.737 309.805L-155.891 327.871C-150.046 334.139 -139.334 333.8 -133.804 328.643L-88.0857 286.013C-81.8179 280.168 -81.4693 270.194 -87.3137 263.926L-101.065 249.178C-106.91 242.91 -106.561 232.935 -100.294 227.091L20.2694 114.671C26.5372 108.826 36.512 109.175 42.3565 115.443L56.1082 130.19C61.9527 136.458 61.6041 146.433 55.3363 152.278L41.3259 165.342C35.0581 171.186 34.7095 181.161 40.554 187.429L76.6522 226.142C82.4967 232.409 90.9967 234.133 95.4211 230.008C99.8454 225.882 98.7192 217.283 92.8747 211.015L84.6237 202.166C78.7792 195.898 79.1279 185.923 85.3957 180.079Z" fill="#D7B47F"/>
<path d="M100.914 564.878L121.561 545.625C127.829 539.781 129.209 530.912 124.396 525.75C119.583 520.589 120.963 511.72 127.23 505.876L146.403 487.998C152.67 482.154 153.019 472.179 147.174 465.911L120.015 436.784C114.17 430.517 104.196 430.168 97.9278 436.012L66.9575 464.891C60.6897 470.736 50.7149 470.387 44.8704 464.119C39.0259 457.851 39.3745 447.877 45.6423 442.032L76.6126 413.153C82.8804 407.309 83.229 397.334 77.3845 391.066L50.2249 361.94C44.3804 355.672 34.4056 355.323 28.1378 361.168L8.96574 379.045C2.69796 384.889 -6.24548 385.647 -11.0586 380.485C-15.8717 375.323 -24.8151 376.081 -31.0829 381.925L-51.7298 401.178C-57.9976 407.022 -67.9724 406.674 -73.8169 400.406L-82.0679 391.557C-87.9124 385.289 -96.4124 383.566 -100.837 387.691C-105.261 391.817 -104.135 400.416 -98.2904 406.684L-62.1922 445.397C-56.3477 451.665 -46.3729 452.013 -40.1051 446.169L-26.0947 433.105C-19.8269 427.26 -9.85212 427.609 -4.00764 433.877L8.71268 447.518C14.5572 453.786 14.2086 463.761 7.94077 469.605L-112.622 582.026C-118.89 587.87 -128.865 587.521 -134.709 581.254L-148.117 566.875C-153.962 560.607 -163.936 560.258 -170.204 566.103L-215.922 608.733C-222.19 614.577 -222.539 624.552 -216.694 630.82L-199.848 648.886C-194.004 655.154 -184.029 655.502 -177.761 649.658L-132.412 607.371C-126.144 601.527 -116.169 601.876 -110.325 608.143C-104.48 614.411 -104.829 624.386 -111.097 630.231L-156.446 672.517C-162.714 678.362 -163.063 688.336 -157.218 694.604L-140.372 712.67C-134.528 718.938 -123.816 718.599 -118.285 713.442L-72.5671 670.812C-66.2993 664.967 -65.9507 654.992 -71.7952 648.725L-85.5469 633.977C-91.3914 627.709 -91.0427 617.734 -84.775 611.89L35.788 499.47C42.0558 493.625 52.0306 493.974 57.8751 500.242L71.6268 514.989C77.4713 521.257 77.1226 531.232 70.8548 537.076L56.8444 550.14C50.5767 555.985 50.228 565.96 56.0725 572.228L92.1708 610.94C98.0152 617.208 106.515 618.932 110.94 614.806C115.364 610.681 114.238 602.081 108.393 595.814L100.142 586.965C94.2978 580.697 94.6464 570.722 100.914 564.878Z" fill="#D7B47F"/>
<path d="M435.865 576.802L429.117 549.39C427.069 541.068 419.998 535.541 413.145 537.227C406.292 538.914 399.22 533.387 397.172 525.065L390.907 499.611C388.858 491.29 380.318 486.123 371.997 488.172L333.326 497.69C325.005 499.739 319.839 508.278 321.887 516.6L332.008 557.718C334.056 566.04 328.89 574.579 320.569 576.628C312.247 578.676 303.707 573.51 301.659 565.188L291.538 524.07C289.49 515.749 280.95 510.583 272.628 512.631L233.958 522.149C225.636 524.198 220.47 532.738 222.518 541.059L228.784 566.513C230.832 574.835 227.134 583.013 220.281 584.7C213.428 586.387 209.731 594.565 211.779 602.887L218.526 630.299C220.574 638.62 215.408 647.16 207.087 649.208L195.339 652.1C187.017 654.148 181.369 660.73 182.815 666.604C184.261 672.478 192.319 675.686 200.64 673.638L252.038 660.987C260.359 658.939 265.526 650.399 263.477 642.077L258.899 623.476C256.85 615.155 262.017 606.615 270.338 604.566L288.45 600.108C296.771 598.06 305.311 603.226 307.359 611.548L346.759 771.615C348.807 779.936 343.641 788.476 335.32 790.524L316.229 795.223C307.908 797.272 302.741 805.811 304.79 814.133L319.73 874.831C321.779 883.153 330.318 888.319 338.64 886.271L362.625 880.367C370.947 878.318 376.113 869.778 374.065 861.457L359.245 801.248C357.196 792.927 362.363 784.387 370.684 782.339C379.006 780.29 387.546 785.457 389.594 793.778L404.414 853.987C406.462 862.308 415.002 867.474 423.324 865.426L447.309 859.522C455.631 857.474 460.556 847.955 458.748 840.612L443.808 779.914C441.76 771.593 433.22 766.427 424.898 768.475L405.318 773.294C396.997 775.343 388.457 770.177 386.409 761.855L347.009 601.788C344.961 593.467 350.127 584.927 358.448 582.879L378.028 578.059C386.35 576.011 394.89 581.177 396.938 589.498L401.517 608.099C403.565 616.421 412.105 621.587 420.426 619.539L471.824 606.888C480.145 604.839 485.793 598.257 484.348 592.383C482.902 586.509 474.844 583.301 466.522 585.35L454.774 588.241C446.453 590.29 437.913 585.123 435.865 576.802Z" fill="#D7B47F"/>
<path d="M312.198 168.023L285.649 158.426C277.59 155.512 269.068 158.328 266.668 164.965C264.269 171.602 255.746 174.417 247.687 171.504L223.035 162.592C214.975 159.678 205.939 163.916 203.025 171.975L189.485 209.428C186.572 217.487 190.81 226.524 198.869 229.438L238.692 243.834C246.751 246.748 250.989 255.784 248.076 263.844C245.162 271.903 236.125 276.141 228.066 273.227L188.243 258.831C180.184 255.917 171.147 260.155 168.233 268.214L154.694 305.667C151.78 313.726 156.018 322.763 164.077 325.677L188.73 334.589C196.789 337.502 201.541 345.117 199.142 351.754C196.742 358.391 201.494 366.005 209.554 368.919L236.102 378.516C244.162 381.43 248.399 390.467 245.486 398.526L241.373 409.904C238.459 417.963 240.8 426.315 246.489 428.371C252.178 430.428 259.319 425.505 262.232 417.445L280.228 367.666C283.142 359.607 278.904 350.57 270.844 347.657L252.829 341.144C244.77 338.23 240.532 329.194 243.446 321.134L249.787 303.593C252.7 295.534 261.737 291.296 269.796 294.21L424.822 350.253C432.881 353.167 437.119 362.203 434.205 370.263L427.521 388.752C424.608 396.812 428.845 405.848 436.905 408.762L495.691 430.014C503.751 432.927 512.787 428.69 515.701 420.63L524.099 397.4C527.012 389.341 522.775 380.304 514.715 377.39L456.403 356.31C448.344 353.396 444.106 344.36 447.019 336.3C449.933 328.241 458.97 324.003 467.029 326.917L525.341 347.997C533.401 350.911 542.437 346.673 545.351 338.614L553.749 315.384C556.662 307.324 551.476 297.945 544.365 295.374L485.579 274.122C477.519 271.208 468.483 275.446 465.569 283.506L458.714 302.469C455.8 310.528 446.764 314.766 438.704 311.853L283.679 255.809C275.619 252.895 271.382 243.859 274.295 235.799L281.151 216.836C284.064 208.777 293.101 204.539 301.16 207.452L319.175 213.965C327.235 216.879 336.272 212.641 339.185 204.582L357.181 154.803C360.094 146.743 357.753 138.392 352.064 136.336C346.375 134.279 339.235 139.202 336.321 147.262L332.208 158.64C329.294 166.699 320.258 170.937 312.198 168.023Z" fill="#D7B47F"/>
<path d="M423.382 -89.1686L408.557 -113.193C404.057 -120.486 395.632 -123.581 389.626 -119.874C383.62 -116.168 375.194 -119.262 370.694 -126.556L356.928 -148.864C352.428 -156.157 342.716 -158.457 335.423 -153.957L301.531 -133.044C294.238 -128.544 291.938 -118.831 296.438 -111.538L318.675 -75.5013C323.175 -68.2081 320.875 -58.4958 313.582 -53.9955C306.289 -49.4952 296.576 -51.7952 292.076 -59.0884L269.839 -95.1253C265.339 -102.418 255.627 -104.718 248.333 -100.218L214.442 -79.305C207.148 -74.8047 204.848 -65.0925 209.349 -57.7993L223.114 -35.4907C227.615 -28.1976 226.602 -19.2794 220.596 -15.5733C214.589 -11.8672 213.576 -2.94908 218.077 4.34411L232.901 28.3687C237.402 35.6619 235.102 45.3742 227.808 49.8745L217.512 56.2278C210.219 60.7281 206.86 68.7244 210.037 73.8725C213.213 79.0206 221.867 79.6046 229.16 75.1043L274.206 47.3083C281.499 42.808 283.799 33.0958 279.299 25.8026L269.239 9.50015C264.739 2.20699 267.039 -7.5053 274.332 -12.0056L290.206 -21.8004C297.499 -26.3007 307.211 -24.0007 311.711 -16.7075L398.276 123.579C402.776 130.872 400.476 140.584 393.183 145.085L376.452 155.409C369.159 159.909 366.859 169.622 371.359 176.915L404.185 230.112C408.685 237.405 418.397 239.705 425.69 235.205L446.712 222.233C454.005 217.733 456.305 208.021 451.805 200.728L419.244 147.959C414.743 140.666 417.043 130.954 424.337 126.454C431.63 121.953 441.342 124.253 445.842 131.547L478.403 184.315C482.904 191.608 492.616 193.908 499.909 189.408L520.931 176.436C528.224 171.936 529.994 161.366 526.024 154.931L493.198 101.733C488.698 94.4401 478.985 92.1401 471.692 96.6404L454.532 107.229C447.239 111.73 437.526 109.43 433.026 102.136L346.461 -38.1501C341.961 -45.4433 344.261 -55.1555 351.554 -59.6558L368.715 -70.2448C376.008 -74.7451 385.72 -72.4451 390.22 -65.1519L400.28 -48.8495C404.78 -41.5563 414.493 -39.2563 421.786 -43.7566L466.832 -71.5526C474.125 -76.0529 477.484 -84.0491 474.307 -89.1972C471.131 -94.3454 462.477 -94.9293 455.184 -90.429L444.888 -84.0757C437.595 -79.5754 427.882 -81.8754 423.382 -89.1686Z" fill="#D7B47F"/>
</g>
<defs>
<clipPath id="clip0_255_2458">
<rect width="402.589" height="649.394" fill="white" transform="translate(0.266602 0.227051)"/>
</clipPath>
</defs>
</svg>
