<svg width="404" height="650" viewBox="0 0 404 650" fill="none" xmlns="http://www.w3.org/2000/svg">
<g clip-path="url(#clip0_255_2693)">
<path d="M85.9845 180.079L106.631 160.827C112.899 154.982 114.279 146.113 109.466 140.952C104.653 135.79 106.033 126.921 112.301 121.077L131.473 103.2C137.741 97.355 138.089 87.3802 132.245 81.1124L105.085 51.9856C99.2407 45.7178 89.2659 45.3692 82.9981 51.2136L52.0278 80.0923C45.76 85.9367 35.7852 85.5881 29.9407 79.3203C24.0962 73.0525 24.4448 63.0777 30.7126 57.2332L61.6829 28.3546C67.9507 22.5102 68.2993 12.5354 62.4549 6.26756L35.2952 -22.8593C29.4507 -29.1271 19.4759 -29.4757 13.2082 -23.6312L-5.96395 -5.75398C-12.2317 0.0904852 -21.1752 0.847952 -25.9883 -4.31376C-30.8014 -9.47548 -39.7448 -8.71802 -46.0126 -2.87353L-66.6595 16.3789C-72.9273 22.2233 -82.9021 21.8747 -88.7466 15.6069L-96.9976 6.75827C-102.842 0.490477 -111.342 -1.23332 -115.766 2.89219C-120.191 7.01771 -119.065 15.6174 -113.22 21.8852L-77.1219 60.598C-71.2774 66.8658 -61.3026 67.2144 -55.0348 61.37L-41.0244 48.3058C-34.7566 42.4613 -24.7818 42.81 -18.9373 49.0778L-6.217 62.7194C-0.372519 68.9872 -0.721135 78.9621 -6.98892 84.8065L-127.552 197.227C-133.82 203.071 -143.794 202.723 -149.639 196.455L-163.047 182.076C-168.891 175.808 -178.866 175.459 -185.134 181.304L-230.852 223.934C-237.12 229.779 -237.468 239.753 -231.624 246.021L-214.778 264.087C-208.934 270.355 -198.959 270.704 -192.691 264.859L-147.342 222.573C-141.074 216.728 -131.099 217.077 -125.255 223.345C-119.41 229.612 -119.759 239.587 -126.026 245.432L-171.376 287.718C-177.644 293.563 -177.992 303.537 -172.148 309.805L-155.302 327.871C-149.457 334.139 -138.745 333.8 -133.215 328.643L-87.4968 286.013C-81.229 280.168 -80.8804 270.194 -86.7249 263.926L-100.477 249.178C-106.321 242.91 -105.972 232.935 -99.7046 227.091L20.8583 114.671C27.1261 108.826 37.1009 109.175 42.9454 115.443L56.6971 130.19C62.5416 136.458 62.1929 146.433 55.9252 152.278L41.9148 165.342C35.647 171.186 35.2984 181.161 41.1428 187.429L77.2411 226.142C83.0855 232.409 91.5856 234.133 96.0099 230.008C100.434 225.882 99.3081 217.283 93.4636 211.015L85.2126 202.166C79.3681 195.898 79.7167 185.923 85.9845 180.079Z" fill="#222222"/>
<path d="M101.503 564.878L122.15 545.625C128.418 539.781 129.798 530.912 124.985 525.75C120.172 520.589 121.552 511.72 127.819 505.876L146.991 487.998C153.259 482.154 153.608 472.179 147.763 465.911L120.604 436.784C114.759 430.517 104.784 430.168 98.5166 436.012L67.5463 464.891C61.2785 470.736 51.3037 470.387 45.4593 464.119C39.6148 457.851 39.9634 447.877 46.2312 442.032L77.2015 413.153C83.4693 407.309 83.8179 397.334 77.9734 391.066L50.8138 361.94C44.9693 355.672 34.9945 355.323 28.7267 361.168L9.55461 379.045C3.28683 384.889 -5.65661 385.647 -10.4697 380.485C-15.2828 375.323 -24.2262 376.081 -30.494 381.925L-51.1409 401.178C-57.4087 407.022 -67.3835 406.674 -73.228 400.406L-81.479 391.557C-87.3235 385.289 -95.8235 383.566 -100.248 387.691C-104.672 391.817 -103.546 400.416 -97.7016 406.684L-61.6033 445.397C-55.7589 451.665 -45.784 452.013 -39.5162 446.169L-25.5058 433.105C-19.2381 427.26 -9.26325 427.609 -3.41878 433.877L9.30155 447.518C15.146 453.786 14.7974 463.761 8.52964 469.605L-112.033 582.026C-118.301 587.87 -128.276 587.521 -134.12 581.254L-147.528 566.875C-153.373 560.607 -163.348 560.258 -169.615 566.103L-215.333 608.733C-221.601 614.577 -221.95 624.552 -216.105 630.82L-199.26 648.886C-193.415 655.154 -183.44 655.502 -177.172 649.658L-131.823 607.371C-125.555 601.527 -115.58 601.876 -109.736 608.143C-103.892 614.411 -104.24 624.386 -110.508 630.231L-155.857 672.517C-162.125 678.362 -162.474 688.336 -156.629 694.604L-139.783 712.67C-133.939 718.938 -123.227 718.599 -117.696 713.442L-71.9782 670.812C-65.7105 664.967 -65.3618 654.992 -71.2063 648.725L-84.958 633.977C-90.8025 627.709 -90.4539 617.734 -84.1861 611.89L36.3769 499.47C42.6446 493.625 52.6195 493.974 58.4639 500.242L72.2156 514.989C78.0601 521.257 77.7115 531.232 71.4437 537.076L57.4333 550.14C51.1655 555.985 50.8169 565.96 56.6614 572.228L92.7596 610.94C98.6041 617.208 107.104 618.932 111.528 614.806C115.953 610.681 114.827 602.081 108.982 595.814L100.731 586.965C94.8867 580.697 95.2353 570.722 101.503 564.878Z" fill="#222222"/>
<path d="M436.453 576.802L429.706 549.39C427.658 541.068 420.587 535.541 413.733 537.227C406.88 538.914 399.809 533.387 397.761 525.065L391.495 499.611C389.447 491.29 380.907 486.123 372.586 488.172L333.915 497.69C325.594 499.739 320.427 508.278 322.476 516.6L332.597 557.718C334.645 566.04 329.479 574.579 321.157 576.628C312.836 578.676 304.296 573.51 302.248 565.188L292.127 524.07C290.078 515.749 281.539 510.583 273.217 512.631L234.546 522.149C226.225 524.198 221.059 532.738 223.107 541.059L229.372 566.513C231.421 574.835 227.723 583.013 220.87 584.7C214.017 586.387 210.319 594.565 212.368 602.887L219.115 630.299C221.163 638.62 215.997 647.16 207.676 649.208L195.928 652.1C187.606 654.148 181.958 660.73 183.404 666.604C184.85 672.478 192.908 675.686 201.229 673.638L252.627 660.987C260.948 658.939 266.114 650.399 264.066 642.077L259.488 623.476C257.439 615.155 262.605 606.615 270.927 604.566L289.038 600.108C297.36 598.06 305.9 603.226 307.948 611.548L347.348 771.615C349.396 779.936 344.23 788.476 335.908 790.524L316.818 795.223C308.496 797.272 303.33 805.811 305.379 814.133L320.319 874.831C322.367 883.153 330.907 888.319 339.229 886.271L363.214 880.367C371.536 878.318 376.702 869.778 374.654 861.457L359.834 801.248C357.785 792.927 362.951 784.387 371.273 782.339C379.595 780.29 388.134 785.457 390.183 793.778L405.003 853.987C407.051 862.308 415.591 867.474 423.912 865.426L447.898 859.522C456.219 857.474 461.145 847.955 459.337 840.612L444.397 779.914C442.349 771.593 433.809 766.427 425.487 768.475L405.907 773.294C397.586 775.343 389.046 770.177 386.997 761.855L347.598 601.788C345.549 593.467 350.716 584.927 359.037 582.879L378.617 578.059C386.939 576.011 395.479 581.177 397.527 589.498L402.105 608.099C404.154 616.421 412.694 621.587 421.015 619.539L472.413 606.888C480.734 604.839 486.382 598.257 484.936 592.383C483.491 586.509 475.433 583.301 467.111 585.35L455.363 588.241C447.042 590.29 438.502 585.123 436.453 576.802Z" fill="#222222"/>
<path d="M312.787 168.023L286.238 158.426C278.179 155.512 269.657 158.328 267.257 164.965C264.858 171.602 256.335 174.417 248.276 171.504L223.623 162.592C215.564 159.678 206.527 163.916 203.614 171.975L190.074 209.428C187.161 217.487 191.398 226.524 199.458 229.438L239.281 243.834C247.34 246.748 251.578 255.784 248.665 263.844C245.751 271.903 236.714 276.141 228.655 273.227L188.832 258.831C180.772 255.917 171.736 260.155 168.822 268.214L155.283 305.667C152.369 313.726 156.607 322.763 164.666 325.677L189.319 334.589C197.378 337.502 202.13 345.117 199.731 351.754C197.331 358.391 202.083 366.005 210.143 368.919L236.691 378.516C244.751 381.43 248.988 390.467 246.075 398.526L241.961 409.904C239.048 417.963 241.389 426.315 247.078 428.371C252.767 430.428 259.908 425.505 262.821 417.445L280.817 367.666C283.73 359.607 279.493 350.57 271.433 347.657L253.418 341.144C245.359 338.23 241.121 329.194 244.034 321.134L250.376 303.593C253.289 295.534 262.326 291.296 270.385 294.21L425.411 350.253C433.47 353.167 437.708 362.203 434.794 370.263L428.11 388.752C425.197 396.812 429.434 405.848 437.494 408.762L496.28 430.014C504.34 432.927 513.376 428.69 516.29 420.63L524.688 397.4C527.601 389.341 523.364 380.304 515.304 377.39L456.992 356.31C448.932 353.396 444.695 344.36 447.608 336.3C450.522 328.241 459.558 324.003 467.618 326.917L525.93 347.997C533.99 350.911 543.026 346.673 545.94 338.614L554.338 315.384C557.251 307.324 552.065 297.945 544.954 295.374L486.168 274.122C478.108 271.208 469.072 275.446 466.158 283.506L459.303 302.469C456.389 310.528 447.352 314.766 439.293 311.853L284.268 255.809C276.208 252.895 271.971 243.859 274.884 235.799L281.74 216.836C284.653 208.777 293.69 204.539 301.749 207.452L319.764 213.965C327.824 216.879 336.86 212.641 339.774 204.582L357.77 154.803C360.683 146.743 358.342 138.392 352.653 136.336C346.964 134.279 339.823 139.202 336.91 147.262L332.797 158.64C329.883 166.699 320.846 170.937 312.787 168.023Z" fill="#222222"/>
<path d="M423.971 -89.1686L409.146 -113.193C404.646 -120.486 396.221 -123.581 390.215 -119.874C384.208 -116.168 375.783 -119.262 371.283 -126.556L357.517 -148.864C353.017 -156.157 343.305 -158.457 336.012 -153.957L302.12 -133.044C294.826 -128.544 292.526 -118.831 297.027 -111.538L319.264 -75.5013C323.764 -68.2081 321.464 -58.4958 314.171 -53.9955C306.877 -49.4952 297.165 -51.7952 292.665 -59.0884L270.428 -95.1253C265.928 -102.418 256.216 -104.718 248.922 -100.218L215.031 -79.305C207.737 -74.8047 205.437 -65.0925 209.938 -57.7993L223.703 -35.4907C228.204 -28.1976 227.191 -19.2794 221.184 -15.5733C215.178 -11.8672 214.165 -2.94908 218.666 4.34411L233.49 28.3687C237.99 35.6619 235.69 45.3742 228.397 49.8745L218.101 56.2278C210.808 60.7281 207.449 68.7244 210.626 73.8725C213.802 79.0206 222.456 79.6046 229.749 75.1043L274.795 47.3083C282.088 42.808 284.388 33.0958 279.888 25.8026L269.828 9.50015C265.328 2.20699 267.628 -7.5053 274.921 -12.0056L290.795 -21.8004C298.088 -26.3007 307.8 -24.0007 312.3 -16.7075L398.865 123.579C403.365 130.872 401.065 140.584 393.772 145.085L377.041 155.409C369.747 159.909 367.447 169.622 371.948 176.915L404.773 230.112C409.274 237.405 418.986 239.705 426.279 235.205L447.301 222.233C454.594 217.733 456.894 208.021 452.394 200.728L419.833 147.959C415.332 140.666 417.632 130.954 424.926 126.454C432.219 121.953 441.931 124.253 446.431 131.547L478.992 184.315C483.493 191.608 493.205 193.908 500.498 189.408L521.52 176.436C528.813 171.936 530.583 161.366 526.612 154.931L493.787 101.733C489.286 94.4401 479.574 92.1401 472.281 96.6404L455.121 107.229C447.827 111.73 438.115 109.43 433.615 102.136L347.05 -38.1501C342.55 -45.4433 344.85 -55.1555 352.143 -59.6558L369.304 -70.2448C376.597 -74.7451 386.309 -72.4451 390.809 -65.1519L400.869 -48.8495C405.369 -41.5563 415.081 -39.2563 422.375 -43.7566L467.421 -71.5526C474.714 -76.0529 478.073 -84.0491 474.896 -89.1972C471.719 -94.3454 463.066 -94.9293 455.773 -90.429L445.477 -84.0757C438.183 -79.5754 428.471 -81.8754 423.971 -89.1686Z" fill="#222222"/>
</g>
<defs>
<clipPath id="clip0_255_2693">
<rect width="402.589" height="649.394" fill="white" transform="translate(0.855469 0.227051)"/>
</clipPath>
</defs>
</svg>
