<svg width="403" height="650" viewBox="0 0 403 650" fill="none" xmlns="http://www.w3.org/2000/svg">
<g clip-path="url(#clip0_255_2291)">
<path d="M-44.889 22.8081C-17.9744 -2.28875 16.6684 -3.57474 59.9863 42.8807C23.839 56.5978 -13.4938 83.8274 -77.2779 143.304L-120.415 183.527C-144.749 206.218 -190.93 241.698 -198.673 248.918C-212.315 261.638 -208.687 280.312 -198.373 291.373C-187.372 303.171 -169.291 306.3 -156.386 294.267C-148.275 286.704 -108.551 242.08 -85.692 220.765L-42.5548 180.542C20.1231 122.097 50.6549 85.356 67.5746 50.2795C108.486 94.1541 106.798 132.26 80.2515 157.013C61.0795 174.89 49.3463 204.441 66.8797 223.244C81.319 238.729 99.8935 237.952 117.591 221.45C154.829 186.727 146.96 95.4987 84.0462 28.0277C25.6014 -34.6502 -66.7431 -56.0683 -106.562 -18.9386C-123.153 -3.46796 -125.3 17.1443 -111.892 31.5234C-92.6401 52.1703 -63.6924 40.3416 -44.889 22.8081Z" fill="#222222"/>
<path d="M-29.3705 407.607C-2.4558 382.51 32.1869 381.224 75.5048 427.68C39.3576 441.397 2.02471 468.626 -61.7593 528.102L-104.897 568.326C-129.23 591.016 -175.412 626.497 -183.154 633.717C-196.796 646.437 -193.169 665.111 -182.855 676.172C-171.853 687.97 -153.772 691.099 -140.868 679.066C-132.757 671.503 -93.0325 626.879 -70.1735 605.564L-27.0363 565.34C35.6417 506.896 66.1734 470.155 83.0932 435.078C124.005 478.953 122.316 517.058 95.7701 541.812C76.598 559.689 64.8649 589.24 82.3983 608.043C96.8376 623.528 115.412 622.751 133.109 606.249C170.347 571.526 162.479 480.298 99.5647 412.827C41.12 350.149 -51.2246 328.731 -91.0435 365.86C-107.635 381.331 -109.782 401.943 -96.3739 416.322C-77.1215 436.969 -48.1739 425.14 -29.3705 407.607Z" fill="#222222"/>
<path d="M234.947 613.753C226.151 578.019 241.913 547.143 303.59 531.962C297.949 570.211 303.529 616.081 324.374 700.764L338.471 758.036C346.423 790.343 354.895 847.961 357.425 858.24C361.883 876.352 379.957 882.286 394.642 878.672C410.306 874.816 421.851 860.553 417.634 843.42C414.983 832.651 395.381 776.216 387.91 745.867L373.813 688.595C353.33 605.38 336.13 560.813 313.749 528.942C372 514.604 404.45 534.651 413.125 569.895C419.39 595.349 439.475 619.998 464.439 613.853C484.998 608.792 493.373 592.195 487.589 568.698C475.42 519.259 391.927 481.665 302.348 503.714C219.133 524.197 155.422 594.391 168.435 647.257C173.857 669.284 190.808 681.206 209.899 676.507C237.311 669.759 241.091 638.718 234.947 613.753Z" fill="#222222"/>
<path d="M231.37 355.527C196.762 343.016 179.822 312.77 201.417 253.035C230.107 278.952 271.363 299.763 353.379 329.413L408.847 349.466C440.137 360.777 492.771 385.702 502.727 389.301C520.268 395.642 535.234 383.899 540.376 369.677C545.86 354.506 540.4 336.987 523.807 330.988C513.378 327.218 455.55 312.209 426.157 301.583L370.69 281.531C290.095 252.395 243.475 241.974 204.542 242.908C224.937 186.492 259.621 170.621 293.755 182.961C318.407 191.873 350.058 188.841 358.798 164.663C365.997 144.752 356.836 128.575 334.08 120.348C286.197 103.038 208.591 151.637 177.228 238.394C148.092 318.988 171.134 410.941 222.335 429.451C243.669 437.163 262.993 429.676 269.677 411.187C279.275 384.638 255.548 364.268 231.37 355.527Z" fill="#222222"/>
<path d="M243.451 7.53238C224.126 -23.7854 229.666 -58.0065 283.722 -91.3617C290.076 -53.225 309.446 -11.273 355.244 62.9458L386.216 113.14C403.688 141.455 429.412 193.703 434.971 202.712C444.766 218.586 463.789 218.695 476.659 210.753C490.388 202.282 497.005 185.167 487.74 170.151C481.916 160.713 445.959 113.002 429.546 86.403L398.574 36.2087C353.571 -36.7231 323.538 -73.8734 292.466 -97.3499C343.518 -128.852 380.551 -119.716 399.611 -88.827C413.377 -66.5185 440.049 -49.2124 461.929 -62.7133C479.947 -73.8317 482.831 -92.1973 470.124 -112.79C443.387 -156.12 352.39 -166.314 273.881 -117.869C200.949 -72.8662 161.819 13.4768 190.41 59.8099C202.322 79.1154 222.112 85.2672 238.843 74.943C262.868 60.1184 256.952 29.4119 243.451 7.53238Z" fill="#222222"/>
</g>
<defs>
<clipPath id="clip0_255_2291">
<rect width="402.589" height="649.394" fill="white" transform="translate(0.0888672 0.227051)"/>
</clipPath>
</defs>
</svg>
