<svg width="404" height="650" viewBox="0 0 404 650" fill="none" xmlns="http://www.w3.org/2000/svg">
<g clip-path="url(#clip0_255_2325)">
<path d="M-44.3021 22.8081C-17.3874 -2.28875 17.2553 -3.57474 60.5732 42.8807C24.4259 56.5978 -12.9069 83.8274 -76.691 143.304L-119.828 183.527C-144.162 206.218 -190.343 241.698 -198.086 248.918C-211.728 261.638 -208.1 280.312 -197.786 291.373C-186.785 303.171 -168.704 306.3 -155.8 294.267C-147.688 286.704 -107.964 242.08 -85.1051 220.765L-41.9679 180.542C20.71 122.097 51.2418 85.356 68.1615 50.2795C109.073 94.1541 107.384 132.26 80.8385 157.013C61.6664 174.89 49.9332 204.441 67.4667 223.244C81.906 238.729 100.48 237.952 118.178 221.45C155.416 186.727 147.547 95.4987 84.6331 28.0277C26.1883 -34.6502 -66.1562 -56.0683 -105.975 -18.9386C-122.566 -3.46796 -124.713 17.1443 -111.306 31.5234C-92.0532 52.1703 -63.1055 40.3416 -44.3021 22.8081Z" fill="#9FA49F"/>
<path d="M-28.7826 407.607C-1.86791 382.51 32.7748 381.224 76.0927 427.68C39.9455 441.397 2.6126 468.626 -61.1715 528.102L-104.309 568.326C-128.642 591.016 -174.824 626.497 -182.567 633.717C-196.208 646.437 -192.581 665.111 -182.267 676.172C-171.266 687.97 -153.184 691.099 -140.28 679.066C-132.169 671.503 -92.4446 626.879 -69.5856 605.564L-26.4484 565.34C36.2296 506.896 66.7613 470.155 83.6811 435.078C124.592 478.953 122.904 517.058 96.358 541.812C77.1859 559.689 65.4528 589.24 82.9862 608.043C97.4255 623.528 116 622.751 133.697 606.249C170.935 571.526 163.067 480.298 100.153 412.827C41.7079 350.149 -50.6367 328.731 -90.4556 365.86C-107.047 381.331 -109.194 401.943 -95.786 416.322C-76.5336 436.969 -47.586 425.14 -28.7826 407.607Z" fill="#9FA49F"/>
<path d="M235.535 613.753C226.74 578.019 242.502 547.143 304.179 531.962C298.538 570.211 304.118 616.081 324.963 700.764L339.06 758.036C347.012 790.343 355.484 847.961 358.014 858.24C362.472 876.352 380.546 882.286 395.231 878.672C410.895 874.816 422.44 860.553 418.223 843.42C415.572 832.651 395.97 776.216 388.499 745.867L374.402 688.595C353.919 605.38 336.719 560.813 314.338 528.942C372.589 514.604 405.039 534.651 413.714 569.895C419.979 595.349 440.064 619.998 465.028 613.853C485.587 608.792 493.961 592.195 488.178 568.698C476.009 519.259 392.515 481.665 302.937 503.714C219.722 524.197 156.011 594.391 169.023 647.257C174.445 669.284 191.397 681.206 210.488 676.507C237.9 669.759 241.68 638.718 235.535 613.753Z" fill="#9FA49F"/>
<path d="M231.959 355.527C197.351 343.016 180.411 312.77 202.006 253.035C230.696 278.952 271.952 299.763 353.968 329.413L409.436 349.466C440.726 360.777 493.36 385.702 503.316 389.301C520.857 395.642 535.823 383.899 540.964 369.677C546.449 354.506 540.989 336.987 524.396 330.988C513.966 327.218 456.139 312.209 426.746 301.583L371.278 281.531C290.684 252.395 244.064 241.974 205.131 242.908C225.526 186.492 260.21 170.621 294.344 182.961C318.996 191.873 350.647 188.841 359.387 164.663C366.585 144.752 357.424 128.575 334.668 120.348C286.786 103.038 209.18 151.637 177.817 238.394C148.681 318.988 171.723 410.941 222.924 429.451C244.258 437.163 263.582 429.676 270.266 411.187C279.864 384.638 256.137 364.268 231.959 355.527Z" fill="#9FA49F"/>
<path d="M244.04 7.53238C224.715 -23.7854 230.255 -58.0065 284.31 -91.3617C290.665 -53.225 310.035 -11.273 355.832 62.9458L386.805 113.14C404.277 141.455 430.001 193.703 435.56 202.712C445.355 218.586 464.378 218.695 477.248 210.753C490.976 202.282 497.594 185.167 488.328 170.151C482.505 160.713 446.548 113.002 430.135 86.403L399.162 36.2087C354.159 -36.7231 324.127 -73.8734 293.055 -97.3499C344.107 -128.852 381.14 -119.716 400.2 -88.827C413.966 -66.5185 440.638 -49.2124 462.518 -62.7133C480.536 -73.8317 483.42 -92.1973 470.713 -112.79C443.976 -156.12 352.979 -166.314 274.47 -117.869C201.538 -72.8662 162.408 13.4768 190.998 59.8099C202.911 79.1154 222.701 85.2672 239.432 74.943C263.457 60.1184 257.541 29.4119 244.04 7.53238Z" fill="#9FA49F"/>
</g>
<defs>
<clipPath id="clip0_255_2325">
<rect width="402.589" height="649.394" fill="white" transform="translate(0.677734 0.227051)"/>
</clipPath>
</defs>
</svg>
