<svg width="404" height="650" viewBox="0 0 404 650" fill="none" xmlns="http://www.w3.org/2000/svg">
<g clip-path="url(#clip0_255_2056)">
<path d="M-44.4779 22.8081C-17.5632 -2.28875 17.0795 -3.57474 60.3974 42.8807C24.2502 56.5978 -13.0827 83.8274 -76.8668 143.304L-120.004 183.527C-144.338 206.218 -190.519 241.698 -198.262 248.918C-211.904 261.638 -208.276 280.312 -197.962 291.373C-186.961 303.171 -168.88 306.3 -155.975 294.267C-147.864 286.704 -108.14 242.08 -85.2809 220.765L-42.1437 180.542C20.5343 122.097 51.066 85.356 67.9858 50.2795C108.897 94.1541 107.209 132.26 80.6627 157.013C61.4906 174.89 49.7574 204.441 67.2909 223.244C81.7302 238.729 100.305 237.952 118.002 221.45C155.24 186.727 147.371 95.4987 84.4573 28.0277C26.0125 -34.6502 -66.332 -56.0683 -106.151 -18.9386C-122.742 -3.46796 -124.889 17.1443 -111.481 31.5234C-92.229 52.1703 -63.2813 40.3416 -44.4779 22.8081Z" fill="#D7B47F"/>
<path d="M-28.9593 407.607C-2.04467 382.51 32.5981 381.224 75.916 427.68C39.7687 441.397 2.43584 468.626 -61.3482 528.102L-104.485 568.326C-128.819 591.016 -175.001 626.497 -182.743 633.717C-196.385 646.437 -192.757 665.111 -182.444 676.172C-171.442 687.97 -153.361 691.099 -140.457 679.066C-132.346 671.503 -92.6214 626.879 -69.7623 605.564L-26.6252 565.34C36.0528 506.896 66.5846 470.155 83.5043 435.078C124.416 478.953 122.727 517.058 96.1812 541.812C77.0092 559.689 65.276 589.24 82.8094 608.043C97.2487 623.528 115.823 622.751 133.52 606.249C170.759 571.526 162.89 480.298 99.9759 412.827C41.5311 350.149 -50.8135 328.731 -90.6324 365.86C-107.224 381.331 -109.371 401.943 -95.9628 416.322C-76.7104 436.969 -47.7627 425.14 -28.9593 407.607Z" fill="#D7B47F"/>
<path d="M235.359 613.753C226.563 578.019 242.325 547.143 304.002 531.962C298.361 570.211 303.941 616.081 324.786 700.764L338.883 758.036C346.835 790.343 355.307 847.961 357.837 858.24C362.295 876.352 380.369 882.286 395.054 878.672C410.718 874.816 422.263 860.553 418.046 843.42C415.395 832.651 395.793 776.216 388.323 745.867L374.225 688.595C353.742 605.38 336.543 560.813 314.161 528.942C372.412 514.604 404.862 534.651 413.537 569.895C419.802 595.349 439.887 619.998 464.851 613.853C485.41 608.792 493.785 592.195 488.001 568.698C475.832 519.259 392.339 481.665 302.76 503.714C219.545 524.197 155.834 594.391 168.847 647.257C174.269 669.284 191.22 681.206 210.311 676.507C237.723 669.759 241.504 638.718 235.359 613.753Z" fill="#D7B47F"/>
<path d="M231.781 355.527C197.173 343.016 180.233 312.77 201.828 253.035C230.518 278.952 271.774 299.763 353.791 329.413L409.258 349.466C440.548 360.777 493.182 385.702 503.138 389.301C520.679 395.642 535.645 383.899 540.787 369.677C546.271 354.506 540.811 336.987 524.219 330.988C513.789 327.218 455.962 312.209 426.568 301.583L371.101 281.531C290.507 252.395 243.886 241.974 204.953 242.908C225.348 186.492 260.032 170.621 294.166 182.961C318.819 191.873 350.469 188.841 359.21 164.663C366.408 144.752 357.247 128.575 334.491 120.348C286.608 103.038 209.003 151.637 177.639 238.394C148.503 318.988 171.545 410.941 222.746 429.451C244.08 437.163 263.404 429.676 270.088 411.187C279.686 384.638 255.96 364.268 231.781 355.527Z" fill="#D7B47F"/>
<path d="M243.863 7.53238C224.538 -23.7854 230.078 -58.0065 284.134 -91.3617C290.488 -53.225 309.858 -11.273 355.656 62.9458L386.628 113.14C404.1 141.455 429.824 193.703 435.383 202.712C445.178 218.586 464.201 218.695 477.071 210.753C490.8 202.282 497.417 185.167 488.152 170.151C482.328 160.713 446.371 113.002 429.958 86.403L398.986 36.2087C353.983 -36.7231 323.951 -73.8734 292.878 -97.3499C343.93 -128.852 380.963 -119.716 400.023 -88.827C413.789 -66.5185 440.461 -49.2124 462.341 -62.7133C480.359 -73.8317 483.243 -92.1973 470.537 -112.79C443.8 -156.12 352.802 -166.314 274.293 -117.869C201.361 -72.8662 162.232 13.4768 190.822 59.8099C202.734 79.1154 222.524 85.2672 239.255 74.943C263.28 60.1184 257.364 29.4119 243.863 7.53238Z" fill="#D7B47F"/>
</g>
<defs>
<clipPath id="clip0_255_2056">
<rect width="402.589" height="649.394" fill="white" transform="translate(0.5 0.227051)"/>
</clipPath>
</defs>
</svg>
