<svg width="221" height="56" viewBox="0 0 221 56" fill="none" xmlns="http://www.w3.org/2000/svg">
<path d="M19.0176 6.10629V16.2983C19.0176 17.7283 19.8236 19.1843 21.0456 19.9383L28.1956 24.3063V21.0823L23.0736 17.9623C22.3716 17.5203 21.8776 16.6883 21.8776 15.8563V12.8143L28.3256 16.8703H33.5516V24.3063H36.4116V14.1143C36.4116 12.6843 35.6056 11.2283 34.3836 10.4743L27.2336 6.10629V9.30429L32.3816 12.4503C33.0836 12.8923 33.5516 13.7243 33.5516 14.5563V16.8703L26.9996 12.7883H21.8776V6.10629H19.0176Z" fill="#F4F4F4"/>
<path d="M40.7741 19.9383L47.9241 24.3063V21.0823L42.8021 17.9623C42.1001 17.5203 41.6061 16.6883 41.6061 15.8563V13.0223L47.9241 16.8963H53.1501V24.3063H56.0101V14.1143C56.0101 12.6843 55.2041 11.2283 53.9821 10.4743L46.8321 6.10629H38.7461V16.2983C38.7461 17.7283 39.5521 19.1843 40.7741 19.9383ZM41.6061 12.9963V6.10629L51.9801 12.4503C52.6821 12.8923 53.1501 13.7243 53.1501 14.5563V16.8963L46.7281 12.9963H41.6061Z" fill="#F4F4F4"/>
<path d="M58.3477 6.10629V17.2603C58.3477 18.6903 59.1537 20.1463 60.3757 20.9003L64.9257 23.7343C65.5757 24.1503 66.3557 24.3843 67.1357 24.3843C68.5917 24.3843 70.0477 23.5783 70.6717 21.7583V24.3063H73.5317V6.10629H70.6717V20.5623C70.6717 21.8623 69.8657 22.4083 68.9297 22.4083C68.4097 22.4083 67.8377 22.2263 67.3697 21.9403L62.4037 18.9243C61.7017 18.4823 61.2077 17.6503 61.2077 16.8183V6.10629H58.3477Z" fill="#F4F4F4"/>
<path d="M76.9234 13.7763L80.9534 16.2463V24.3063H83.8134V14.7643L76.4034 10.2403C75.7014 9.82429 75.3374 8.99229 75.7274 8.29029C75.9874 7.84829 76.4294 7.64029 76.9234 7.64029C77.2354 7.64029 77.5474 7.71829 77.8334 7.90029L83.7614 11.5143H89.0654L81.2134 6.73029C80.4594 6.26229 79.6794 6.02829 78.9254 6.02829C77.5734 6.02829 76.3514 6.78229 75.5454 8.16029C74.2714 10.2143 74.7914 12.5023 76.9234 13.7763Z" fill="#F4F4F4"/>
<path d="M93.7422 24.3063V12.5803L101.568 17.3383C102.322 17.8063 103.102 18.0403 103.856 18.0403C105.208 18.0403 106.43 17.2863 107.236 15.9083C108.51 13.8543 107.99 11.5663 105.858 10.2923L98.9942 6.10629H90.8822V24.3063H93.7422ZM106.378 13.8283C107.08 14.2443 107.444 15.0763 107.054 15.7783C106.794 16.2203 106.352 16.4283 105.858 16.4283C105.546 16.4283 105.234 16.3503 104.948 16.1683L99.0202 12.5543H93.7422V6.10629L106.378 13.8283Z" fill="#F4F4F4"/>
<path d="M111.665 19.9383L118.815 24.3063V21.0823L113.693 17.9623C112.991 17.5203 112.497 16.6883 112.497 15.8563V13.0223L118.815 16.8963H124.041V24.3063H126.901V14.1143C126.901 12.6843 126.095 11.2283 124.873 10.4743L117.723 6.10629H109.637V16.2983C109.637 17.7283 110.443 19.1843 111.665 19.9383ZM112.497 12.9963V6.10629L122.871 12.4503C123.573 12.8923 124.041 13.7243 124.041 14.5563V16.8963L117.619 12.9963H112.497Z" fill="#F4F4F4"/>
<path d="M125.726 6.10629L131.498 9.61629V24.3063H134.358V11.3843L137.868 13.5163C138.752 14.0623 138.882 14.6863 138.882 15.6483H138.986C139.818 13.5423 139.61 11.3323 137.478 10.0583L130.978 6.10629H125.726Z" fill="#F4F4F4"/>
<path d="M141.765 6.10629V24.3063H144.625V18.9243L152.451 23.6823C153.205 24.1503 153.985 24.3843 154.739 24.3843C156.091 24.3843 157.313 23.6303 158.119 22.2523C159.393 20.1983 158.873 17.9103 156.741 16.6363L149.877 12.4503H144.625V6.10629H141.765ZM144.625 18.8983V12.4503L157.261 20.1723C157.963 20.5883 158.327 21.4203 157.937 22.1223C157.677 22.5643 157.235 22.7723 156.741 22.7723C156.429 22.7723 156.117 22.6943 155.831 22.5123L149.903 18.8983H144.625Z" fill="#F4F4F4"/>
<path d="M160.393 6.10629V17.2083L170.923 23.7343C171.651 24.2023 172.483 24.4363 173.263 24.4363C174.667 24.4363 175.941 23.6303 176.383 21.7583H176.253C175.889 22.3303 175.421 22.5383 174.953 22.5383C174.511 22.5383 174.069 22.3563 173.653 22.0963L163.253 15.7523V6.10629L175.395 13.5163C176.279 14.0623 176.409 14.6863 176.409 15.6483H176.513C177.345 13.5423 177.137 11.3323 175.005 10.0583L168.505 6.10629H160.393Z" fill="#F4F4F4"/>
<path d="M180.956 20.0423L187.95 24.3063V21.1083L180.436 16.5063C179.734 16.0903 179.37 15.2583 179.734 14.5303C179.838 14.3223 180.15 13.9063 180.8 13.9063C181.06 13.9063 181.372 13.9583 181.736 14.1403L187.664 17.7543H192.916L180.488 10.1623C179.786 9.74629 179.422 8.91429 179.812 8.21229C180.072 7.77029 180.514 7.56229 181.008 7.56229C181.32 7.56229 181.632 7.64029 181.918 7.82229L187.638 11.3063H192.942V24.3063H195.802V6.10629H192.942V11.3063L185.298 6.65229C184.544 6.18429 183.764 5.95029 183.01 5.95029C181.658 5.95029 180.436 6.70429 179.63 8.08229C178.434 10.0063 178.824 12.1383 180.644 13.4383C180.358 13.6203 179.89 13.9843 179.578 14.4523C178.304 16.5063 178.824 18.7423 180.956 20.0423Z" fill="#F4F4F4"/>
<path d="M2.61523 32.1063V43.2083L13.1452 49.7343C13.8732 50.2023 14.7052 50.4363 15.4852 50.4363C16.8892 50.4363 18.1632 49.6303 18.6052 47.7583H18.4752C18.1112 48.3303 17.6432 48.5383 17.1752 48.5383C16.7332 48.5383 16.2912 48.3563 15.8752 48.0963L5.47523 41.7523V32.1063L17.6172 39.5163C18.5012 40.0623 18.6312 40.6863 18.6312 41.6483H18.7352C19.5672 39.5423 19.3592 37.3323 17.2272 36.0583L10.7272 32.1063H2.61523Z" fill="#F4F4F4"/>
<path d="M21.125 32.1063V43.0783C21.125 44.5083 21.931 45.9643 23.153 46.7183L29.029 50.3063H37.115V39.3343C37.115 37.9043 36.309 36.4483 35.087 35.6943L29.211 32.1063H21.125ZM33.111 37.6963C33.813 38.1123 34.255 38.9443 34.255 39.7503V50.3063L25.129 44.7163C24.427 44.3003 23.985 43.4683 23.985 42.6623V32.1063L33.111 37.6963Z" fill="#F4F4F4"/>
<path d="M46.2109 32.1063V43.6503C46.2109 45.0803 47.0169 46.5623 48.2389 47.3163L52.2689 49.8383C52.9189 50.2543 53.6209 50.4623 54.3489 50.4623C55.7269 50.4623 57.1309 49.6823 57.9369 48.0443L58.8729 46.3283C59.1589 46.7183 59.5229 47.0563 59.9389 47.3163L63.9689 49.8383C64.6189 50.2283 65.3209 50.4363 66.0489 50.4363C67.4269 50.4363 68.8049 49.7083 69.6109 48.0703V50.3063H72.4709V32.1063H69.6109V46.8483C69.6109 48.0183 68.8569 48.5383 67.9729 48.5383C67.5049 48.5383 66.9849 48.4083 66.5429 48.1223L61.9409 45.3143C61.2389 44.8723 60.7709 44.0403 60.7709 43.2083V32.1063H57.9109V46.8483C57.9109 48.0183 57.1569 48.5383 56.2729 48.5383C55.8049 48.5383 55.2849 48.4083 54.8429 48.1223L50.2409 45.3143C49.5389 44.8723 49.0709 44.0403 49.0709 43.2083V32.1063H46.2109Z" fill="#F4F4F4"/>
<path d="M78.457 50.3063V38.5803L86.283 43.3383C87.037 43.8063 87.817 44.0403 88.571 44.0403C89.923 44.0403 91.145 43.2863 91.951 41.9083C93.225 39.8543 92.705 37.5663 90.573 36.2923L83.709 32.1063H75.597V50.3063H78.457ZM91.093 39.8283C91.795 40.2443 92.159 41.0763 91.769 41.7783C91.509 42.2203 91.067 42.4283 90.573 42.4283C90.261 42.4283 89.949 42.3503 89.663 42.1683L83.735 38.5543H78.457V32.1063L91.093 39.8283Z" fill="#F4F4F4"/>
<path d="M94.3516 32.1063V43.2603C94.3516 44.6903 95.1576 46.1463 96.3796 46.9003L100.93 49.7343C101.58 50.1503 102.36 50.3843 103.14 50.3843C104.596 50.3843 106.052 49.5783 106.676 47.7583V50.3063H109.536V32.1063H106.676V46.5623C106.676 47.8623 105.87 48.4083 104.934 48.4083C104.414 48.4083 103.842 48.2263 103.374 47.9403L98.4076 44.9243C97.7056 44.4823 97.2116 43.6503 97.2116 42.8183V32.1063H94.3516Z" fill="#F4F4F4"/>
<path d="M113.447 39.8023L120.311 43.9883H125.537V50.3063H128.397V38.5803L136.223 43.3383C136.977 43.8063 137.757 44.0403 138.511 44.0403C139.863 44.0403 141.085 43.2863 141.891 41.9083C143.165 39.8543 142.645 37.5663 140.513 36.2923L133.649 32.1063H125.537V37.5143L117.737 32.7563C116.983 32.2883 116.203 32.0543 115.449 32.0543C114.097 32.0543 112.875 32.8083 112.069 34.1863C110.795 36.2403 111.315 38.5283 113.447 39.8023ZM128.397 38.5543V32.1063L141.033 39.8283C141.735 40.2443 142.099 41.0763 141.709 41.7783C141.449 42.2203 141.007 42.4283 140.513 42.4283C140.201 42.4283 139.889 42.3503 139.603 42.1683L133.675 38.5543H128.397ZM112.251 34.3163C112.511 33.8743 112.953 33.6663 113.447 33.6663C113.759 33.6663 114.071 33.7443 114.357 33.9263L120.285 37.5403H125.537V43.9623L112.927 36.2663C112.225 35.8503 111.861 35.0183 112.251 34.3163Z" fill="#F4F4F4"/>
<path d="M141.291 32.1063L147.063 35.6163V50.3063H149.923V37.3843L153.433 39.5163C154.317 40.0623 154.447 40.6863 154.447 41.6483H154.551C155.383 39.5423 155.175 37.3323 153.043 36.0583L146.543 32.1063H141.291Z" fill="#F4F4F4"/>
<path d="M158.967 45.9383L166.117 50.3063V47.0823L160.995 43.9623C160.293 43.5203 159.799 42.6883 159.799 41.8563V39.0223L166.117 42.8963H171.343V50.3063H174.203V40.1143C174.203 38.6843 173.397 37.2283 172.175 36.4743L165.025 32.1063H156.939V42.2983C156.939 43.7283 157.745 45.1843 158.967 45.9383ZM159.799 38.9963V32.1063L170.173 38.4503C170.875 38.8923 171.343 39.7243 171.343 40.5563V42.8963L164.921 38.9963H159.799Z" fill="#F4F4F4"/>
<path d="M179.791 50.3063V40.5563L184.211 43.2343C185.017 43.7283 185.901 43.9883 186.785 43.9883C187.045 43.9883 187.305 43.9623 187.565 43.9103V50.3063H190.425V40.6083L194.741 43.2343C195.547 43.7283 196.431 43.9883 197.315 43.9883C197.575 43.9883 197.835 43.9623 198.095 43.9103V50.3063H200.955V41.5443C201.059 41.2323 201.137 40.8943 201.189 40.6083C201.553 38.7103 200.981 37.3843 199.239 36.3183L192.349 32.1063V35.3303L199.889 39.9323C200.617 40.3743 200.981 41.2583 200.513 41.9863C200.279 42.3763 199.889 42.5843 199.447 42.5843C199.161 42.5843 198.823 42.4803 198.459 42.2723L181.819 32.1063V35.3303L189.567 40.0623C190.191 40.4523 190.373 41.3103 189.957 41.9603C189.723 42.3503 189.333 42.5583 188.891 42.5583C188.605 42.5583 188.267 42.4543 187.903 42.2463L176.931 35.5903V50.3063H179.791Z" fill="#F4F4F4"/>
<path d="M203.76 32.1063V43.2603C203.76 44.6903 204.566 46.1463 205.788 46.9003L210.338 49.7343C210.988 50.1503 211.768 50.3843 212.548 50.3843C214.004 50.3843 215.46 49.5783 216.084 47.7583V50.3063H218.944V32.1063H216.084V46.5623C216.084 47.8623 215.278 48.4083 214.342 48.4083C213.822 48.4083 213.25 48.2263 212.782 47.9403L207.816 44.9243C207.114 44.4823 206.62 43.6503 206.62 42.8183V32.1063H203.76Z" fill="#F4F4F4"/>
</svg>
