<svg width="221" height="56" viewBox="0 0 221 56" fill="none" xmlns="http://www.w3.org/2000/svg">
<path d="M40.0725 23.9343L40.6245 23.7903C41.2325 23.6143 41.6405 23.3823 41.8485 23.0943C42.0565 22.8063 42.1605 22.2943 42.1605 21.5583V16.7343H34.3125V21.7263C34.3125 22.4143 34.4085 22.8943 34.6005 23.1663C34.7925 23.4383 35.1845 23.6623 35.7765 23.8383L36.2805 23.9823L36.0165 24.7503H30.1365L29.8485 23.9343L30.4005 23.7903C31.0085 23.6143 31.4165 23.3823 31.6245 23.0943C31.8325 22.8063 31.9365 22.2943 31.9365 21.5583V10.7103C31.9365 9.97427 31.8325 9.46227 31.6245 9.17427C31.4165 8.88627 31.0085 8.65427 30.4005 8.47827L29.8485 8.33427L30.1365 7.51827H35.3925L35.7045 7.90227L35.3925 8.33427C34.9925 8.86227 34.7125 9.42227 34.5525 10.0143C34.3925 10.6063 34.3125 11.3823 34.3125 12.3423V15.2703H42.1605V10.7103C42.1605 9.97427 42.0565 9.46227 41.8485 9.17427C41.6405 8.88627 41.2325 8.65427 40.6245 8.47827L40.0725 8.33427L40.3605 7.51827H45.6165L45.9285 7.90227L45.6165 8.33427C45.2165 8.86227 44.9365 9.42227 44.7765 10.0143C44.6165 10.6063 44.5365 11.3823 44.5365 12.3423V21.7263C44.5365 22.4143 44.6325 22.8943 44.8245 23.1663C45.0165 23.4383 45.4085 23.6623 46.0005 23.8383L46.5045 23.9823L46.2405 24.7503H40.3605L40.0725 23.9343Z" fill="#F4F4F4"/>
<path d="M58.2716 23.9343L58.8236 23.7903C59.2076 23.6943 59.4796 23.5663 59.6396 23.4063C59.8156 23.2463 59.9036 23.0223 59.9036 22.7343C59.9036 22.4783 59.8156 22.0863 59.6396 21.5583L58.4876 18.1983H52.9436L52.3676 19.9503C51.9996 21.0543 51.8156 21.8943 51.8156 22.4703C51.8156 23.0143 51.9276 23.5023 52.1516 23.9343L52.3676 24.3663L51.9116 24.7503H47.4956L47.2076 23.9343L47.7596 23.7903C48.3996 23.6143 48.8636 23.3823 49.1516 23.0943C49.4396 22.8063 49.7116 22.2943 49.9676 21.5583L53.7356 10.7103C53.9116 10.1823 53.9996 9.79027 53.9996 9.53427C53.9996 9.24627 53.9116 9.02227 53.7356 8.86227C53.5756 8.70227 53.3036 8.57427 52.9196 8.47827L52.3676 8.33427L52.6556 7.51827H57.2876L62.1116 21.4383C62.3676 22.1743 62.6476 22.7343 62.9516 23.1183C63.2556 23.5023 63.6956 23.9183 64.2716 24.3663L63.9596 24.7503H58.5596L58.2716 23.9343ZM53.4476 16.7103H57.9836L55.6796 9.99027L53.4476 16.7103Z" fill="#F4F4F4"/>
<path d="M81.721 23.9823L81.481 24.7503H75.601L75.313 23.9343L75.841 23.7903C76.273 23.6783 76.593 23.5503 76.801 23.4063C77.009 23.2623 77.153 23.0543 77.233 22.7823C77.329 22.4943 77.377 22.0863 77.377 21.5583V12.4623L69.289 21.2703V21.7263C69.289 22.4143 69.385 22.8943 69.577 23.1663C69.769 23.4383 70.153 23.6623 70.729 23.8383L71.233 23.9823L70.993 24.7503H65.089L64.801 23.9343L65.377 23.7903C65.809 23.6623 66.129 23.5263 66.337 23.3823C66.545 23.2383 66.689 23.0303 66.769 22.7583C66.865 22.4703 66.913 22.0703 66.913 21.5583V10.7103C66.913 9.97427 66.809 9.46227 66.601 9.17427C66.393 8.88627 65.985 8.65427 65.377 8.47827L64.801 8.33427L65.089 7.51827H70.369L70.681 7.90227L70.369 8.33427C69.969 8.86227 69.689 9.42227 69.529 10.0143C69.369 10.6063 69.289 11.3823 69.289 12.3423V19.3023L77.377 10.5183C77.361 9.86227 77.249 9.39827 77.041 9.12627C76.833 8.83827 76.433 8.62227 75.841 8.47827L75.313 8.33427L75.601 7.51827H80.833L81.193 7.90227L80.833 8.33427C80.417 8.84627 80.129 9.39827 79.969 9.99027C79.809 10.5823 79.729 11.3663 79.729 12.3423V21.7263C79.729 22.4303 79.833 22.9183 80.041 23.1903C80.249 23.4623 80.649 23.6783 81.241 23.8383L81.721 23.9823Z" fill="#F4F4F4"/>
<path d="M90.4436 7.51827C91.7876 7.51827 92.6916 7.35827 93.1556 7.03827L93.6116 6.72627L93.9956 7.03827V11.2863L93.1556 11.5743L93.0356 11.0223C92.9076 10.4303 92.7476 9.98227 92.5556 9.67827C92.3636 9.37427 92.1076 9.16627 91.7876 9.05427C91.4676 8.92627 91.0116 8.86227 90.4196 8.86227H88.3556C87.9236 8.86227 87.5956 8.91827 87.3716 9.03027C87.1636 9.12627 87.0196 9.30227 86.9396 9.55827C86.8596 9.81427 86.8196 10.1983 86.8196 10.7103V21.5583C86.8196 22.0703 86.8596 22.4703 86.9396 22.7583C87.0356 23.0303 87.1876 23.2383 87.3956 23.3823C87.6036 23.5263 87.9236 23.6623 88.3556 23.7903L88.9316 23.9343L88.6436 24.7503H83.3636L83.0516 24.3663L83.3636 23.9343C83.7636 23.3903 84.0436 22.8303 84.2036 22.2543C84.3796 21.6623 84.4676 20.8863 84.4676 19.9263V12.3423C84.4676 11.3983 84.3796 10.6303 84.2036 10.0383C84.0436 9.43027 83.7636 8.86227 83.3636 8.33427L83.0516 7.90227L83.3636 7.51827H90.4436Z" fill="#F4F4F4"/>
<path d="M99.7266 19.9263C99.7266 20.9023 99.8066 21.6863 99.9666 22.2783C100.127 22.8543 100.407 23.4063 100.807 23.9343L101.119 24.3663L100.807 24.7503H95.5506L95.2626 23.9343L95.8146 23.7903C96.4226 23.6303 96.8306 23.3983 97.0386 23.0943C97.2466 22.7903 97.3506 22.2783 97.3506 21.5583V9.70227C97.3506 9.49427 97.3106 9.35027 97.2306 9.27027C97.1506 9.17427 97.0146 9.12627 96.8226 9.12627H95.4306L95.1426 8.23827C95.8306 7.96627 96.7346 7.72627 97.8546 7.51827C98.9906 7.29427 100.079 7.18227 101.119 7.18227C103.487 7.18227 105.247 7.71827 106.399 8.79027C107.551 9.84627 108.127 11.2143 108.127 12.8943C108.127 13.9343 107.919 14.8783 107.503 15.7263C107.087 16.5583 106.447 17.2303 105.583 17.7423C104.719 18.2383 103.647 18.4863 102.367 18.4863C101.775 18.4863 101.271 18.4143 100.855 18.2703C100.455 18.1263 100.255 17.9183 100.255 17.6463C100.255 17.4863 100.287 17.3503 100.351 17.2383C100.415 17.1263 100.511 17.0703 100.639 17.0703C100.703 17.0703 100.831 17.1023 101.023 17.1663C101.231 17.2143 101.495 17.2383 101.815 17.2383C103.015 17.2383 103.951 16.8543 104.623 16.0863C105.295 15.3183 105.631 14.2783 105.631 12.9663C105.631 11.6703 105.271 10.6063 104.551 9.77427C103.847 8.94227 102.847 8.52627 101.551 8.52627C100.335 8.52627 99.7266 8.89427 99.7266 9.63027V19.9263Z" fill="#F4F4F4"/>
<path d="M119.279 23.9343L119.831 23.7903C120.215 23.6943 120.487 23.5663 120.647 23.4063C120.823 23.2463 120.911 23.0223 120.911 22.7343C120.911 22.4783 120.823 22.0863 120.647 21.5583L119.495 18.1983H113.951L113.375 19.9503C113.007 21.0543 112.823 21.8943 112.823 22.4703C112.823 23.0143 112.935 23.5023 113.159 23.9343L113.375 24.3663L112.919 24.7503H108.503L108.215 23.9343L108.767 23.7903C109.407 23.6143 109.871 23.3823 110.159 23.0943C110.447 22.8063 110.719 22.2943 110.975 21.5583L114.743 10.7103C114.919 10.1823 115.007 9.79027 115.007 9.53427C115.007 9.24627 114.919 9.02227 114.743 8.86227C114.583 8.70227 114.311 8.57427 113.927 8.47827L113.375 8.33427L113.663 7.51827H118.295L123.119 21.4383C123.375 22.1743 123.655 22.7343 123.959 23.1183C124.263 23.5023 124.703 23.9183 125.279 24.3663L124.967 24.7503H119.567L119.279 23.9343ZM114.455 16.7103H118.991L116.687 9.99027L114.455 16.7103Z" fill="#F4F4F4"/>
<path d="M138.385 11.0223C138.225 10.4303 138.049 9.99027 137.857 9.70227C137.681 9.39827 137.433 9.19027 137.113 9.07827C136.793 8.95027 136.345 8.88627 135.769 8.88627H134.689C134.353 8.88627 134.129 9.00627 134.017 9.24627C133.921 9.47027 133.873 9.95827 133.873 10.7103V21.5583C133.873 22.2943 133.977 22.8063 134.185 23.0943C134.393 23.3823 134.801 23.6143 135.409 23.7903L135.961 23.9343L135.673 24.7503H130.417L130.105 24.3663L130.417 23.9343C130.817 23.4063 131.097 22.8463 131.257 22.2543C131.417 21.6623 131.497 20.8863 131.497 19.9263V10.7103C131.497 9.95827 131.441 9.47027 131.329 9.24627C131.233 9.00627 131.017 8.88627 130.681 8.88627H129.601C129.025 8.88627 128.577 8.95027 128.257 9.07827C127.937 9.19027 127.681 9.39827 127.489 9.70227C127.313 9.99027 127.145 10.4303 126.985 11.0223L126.841 11.5743L126.025 11.2863V7.01427L126.409 6.70227L126.841 7.01427C127.289 7.35027 128.201 7.51827 129.577 7.51827H135.793C137.169 7.51827 138.081 7.35027 138.529 7.01427L138.961 6.70227L139.345 7.01427V11.2863L138.529 11.5743L138.385 11.0223Z" fill="#F4F4F4"/>
<path d="M145.242 20.3583C145.242 21.6703 145.506 22.5263 146.034 22.9263C146.562 23.3103 147.186 23.5023 147.906 23.5023C149.026 23.5023 149.906 23.1423 150.546 22.4223C151.186 21.7023 151.506 20.7583 151.506 19.5903C151.506 18.9023 151.346 18.2783 151.026 17.7183C150.706 17.1423 150.258 16.6943 149.682 16.3743C149.106 16.0383 148.442 15.8703 147.69 15.8703C147.258 15.8703 146.898 15.9103 146.61 15.9903C146.338 16.0543 146.17 16.0863 146.106 16.0863C145.994 16.0863 145.906 16.0383 145.842 15.9423C145.794 15.8303 145.77 15.6943 145.77 15.5343C145.77 15.2463 145.994 15.0383 146.442 14.9103C146.89 14.7663 147.442 14.6943 148.098 14.6943C149.282 14.6943 150.322 14.9263 151.218 15.3903C152.114 15.8383 152.802 16.4463 153.282 17.2143C153.762 17.9823 154.002 18.8143 154.002 19.7103C154.002 21.2783 153.506 22.5103 152.514 23.4063C151.522 24.3023 149.938 24.7503 147.762 24.7503H141.066L140.778 23.9343L141.354 23.7903C141.946 23.6303 142.346 23.4063 142.554 23.1183C142.762 22.8143 142.866 22.2943 142.866 21.5583V10.7103C142.866 9.99027 142.762 9.47827 142.554 9.17427C142.346 8.87027 141.946 8.63827 141.354 8.47827L140.778 8.33427L141.066 7.51827H146.346L146.658 7.90227L146.346 8.33427C145.946 8.87827 145.658 9.44627 145.482 10.0383C145.322 10.6303 145.242 11.3983 145.242 12.3423V20.3583Z" fill="#F4F4F4"/>
<path d="M163.129 7.18227C164.169 7.18227 165.097 7.33427 165.913 7.63827C166.745 7.92627 167.385 8.34227 167.833 8.88627C168.297 9.41427 168.529 10.0223 168.529 10.7103C168.529 11.5263 168.281 12.1983 167.785 12.7263C167.305 13.2543 166.697 13.5183 165.961 13.5183C165.625 13.5183 165.457 13.4223 165.457 13.2303C165.457 13.1823 165.521 13.0463 165.649 12.8223C165.793 12.5983 165.913 12.3503 166.009 12.0783C166.121 11.7903 166.177 11.4463 166.177 11.0463C166.177 10.2943 165.897 9.68627 165.337 9.22227C164.777 8.75827 164.041 8.52627 163.129 8.52627C161.945 8.52627 160.977 8.89427 160.225 9.63027C159.473 10.3663 158.929 11.3103 158.593 12.4623C158.257 13.6143 158.089 14.8463 158.089 16.1583C158.089 17.5023 158.297 18.7263 158.713 19.8303C159.145 20.9343 159.753 21.8143 160.537 22.4703C161.321 23.1103 162.233 23.4303 163.273 23.4303C164.297 23.4303 165.185 23.2463 165.937 22.8783C166.689 22.4943 167.305 21.9583 167.785 21.2703C167.833 21.2063 167.889 21.1743 167.953 21.1743C168.097 21.1743 168.257 21.2543 168.433 21.4143C168.625 21.5583 168.721 21.7023 168.721 21.8463C168.721 21.8943 168.697 21.9583 168.649 22.0383C167.273 24.0703 165.409 25.0863 163.057 25.0863C161.393 25.0863 159.985 24.6943 158.833 23.9103C157.681 23.1263 156.817 22.0623 156.241 20.7183C155.665 19.3583 155.377 17.8383 155.377 16.1583C155.377 14.4623 155.665 12.9423 156.241 11.5983C156.817 10.2383 157.681 9.16627 158.833 8.38227C160.001 7.58227 161.433 7.18227 163.129 7.18227Z" fill="#F4F4F4"/>
<path d="M169.973 23.4303C170.293 23.6543 170.613 23.7663 170.933 23.7663C171.109 23.7663 171.261 23.7023 171.389 23.5743C171.533 23.4463 171.685 23.2703 171.845 23.0463L174.461 18.4863C174.621 18.1823 174.765 17.9423 174.893 17.7663C175.021 17.5903 175.189 17.4463 175.397 17.3343C174.197 17.0303 173.285 16.4383 172.661 15.5583C172.037 14.6623 171.725 13.6223 171.725 12.4383C171.725 10.8703 172.285 9.60627 173.405 8.64627C174.525 7.68627 176.245 7.20627 178.565 7.20627C179.589 7.20627 180.653 7.31827 181.757 7.54227C182.861 7.75027 183.781 7.99027 184.517 8.26227L184.205 9.17427H182.813C182.621 9.17427 182.485 9.21427 182.405 9.29427C182.325 9.37427 182.285 9.51827 182.285 9.72627V21.5583C182.285 22.2943 182.389 22.8143 182.597 23.1183C182.805 23.4063 183.221 23.6303 183.845 23.7903L184.349 23.9343L184.085 24.7503H178.853L178.565 24.3663L178.853 23.9343C179.237 23.3743 179.509 22.8063 179.669 22.2303C179.845 21.6543 179.933 20.8863 179.933 19.9263V9.63027C179.933 9.34227 179.805 9.08627 179.549 8.86227C179.293 8.63827 178.797 8.52627 178.061 8.52627C176.829 8.52627 175.877 8.90227 175.205 9.65427C174.533 10.4063 174.197 11.3663 174.197 12.5343C174.197 13.6543 174.517 14.5583 175.157 15.2463C175.797 15.9183 176.693 16.2543 177.845 16.2543C178.165 16.2543 178.421 16.2303 178.613 16.1823C178.821 16.1343 178.957 16.1103 179.021 16.1103C179.245 16.1103 179.357 16.2943 179.357 16.6623C179.357 16.9343 179.213 17.1263 178.925 17.2383C178.461 17.4143 178.117 17.5823 177.893 17.7423C177.685 17.8863 177.485 18.1103 177.293 18.4143L175.133 22.2783C174.733 22.9663 174.397 23.5023 174.125 23.8863C173.853 24.2543 173.525 24.5423 173.141 24.7503C172.773 24.9743 172.325 25.0863 171.797 25.0863C170.965 25.0863 170.229 24.7663 169.589 24.1263L169.973 23.4303Z" fill="#F4F4F4"/>
<path d="M25.2696 31.1823C26.3096 31.1823 27.2376 31.3343 28.0536 31.6383C28.8856 31.9263 29.5256 32.3423 29.9736 32.8863C30.4376 33.4143 30.6696 34.0223 30.6696 34.7103C30.6696 35.5263 30.4216 36.1983 29.9256 36.7263C29.4456 37.2543 28.8376 37.5183 28.1016 37.5183C27.7656 37.5183 27.5976 37.4223 27.5976 37.2303C27.5976 37.1823 27.6616 37.0463 27.7896 36.8223C27.9336 36.5983 28.0536 36.3503 28.1496 36.0783C28.2616 35.7903 28.3176 35.4463 28.3176 35.0463C28.3176 34.2943 28.0376 33.6863 27.4776 33.2223C26.9176 32.7583 26.1816 32.5263 25.2696 32.5263C24.0856 32.5263 23.1176 32.8943 22.3656 33.6303C21.6136 34.3663 21.0696 35.3103 20.7336 36.4623C20.3976 37.6143 20.2296 38.8463 20.2296 40.1583C20.2296 41.5023 20.4376 42.7263 20.8536 43.8303C21.2856 44.9343 21.8936 45.8143 22.6776 46.4703C23.4616 47.1103 24.3736 47.4303 25.4136 47.4303C26.4376 47.4303 27.3256 47.2463 28.0776 46.8783C28.8296 46.4943 29.4456 45.9583 29.9256 45.2703C29.9736 45.2063 30.0296 45.1743 30.0936 45.1743C30.2376 45.1743 30.3976 45.2543 30.5736 45.4143C30.7656 45.5583 30.8616 45.7023 30.8616 45.8463C30.8616 45.8943 30.8376 45.9583 30.7896 46.0383C29.4136 48.0703 27.5496 49.0863 25.1976 49.0863C23.5336 49.0863 22.1256 48.6943 20.9736 47.9103C19.8216 47.1263 18.9576 46.0623 18.3816 44.7183C17.8056 43.3583 17.5176 41.8383 17.5176 40.1583C17.5176 38.4623 17.8056 36.9423 18.3816 35.5983C18.9576 34.2383 19.8216 33.1663 20.9736 32.3823C22.1416 31.5823 23.5736 31.1823 25.2696 31.1823Z" fill="#F4F4F4"/>
<path d="M32.3301 40.1583C32.3301 38.4623 32.6261 36.9423 33.2181 35.5983C33.8101 34.2383 34.6981 33.1663 35.8821 32.3823C37.0821 31.5823 38.5461 31.1823 40.2741 31.1823C42.0021 31.1823 43.4581 31.5823 44.6421 32.3823C45.8421 33.1663 46.7381 34.2383 47.3301 35.5983C47.9381 36.9423 48.2421 38.4623 48.2421 40.1583C48.2421 41.8543 47.9381 43.3743 47.3301 44.7183C46.7381 46.0623 45.8421 47.1263 44.6421 47.9103C43.4581 48.6943 42.0021 49.0863 40.2741 49.0863C38.5461 49.0863 37.0821 48.6943 35.8821 47.9103C34.6981 47.1263 33.8101 46.0623 33.2181 44.7183C32.6261 43.3743 32.3301 41.8543 32.3301 40.1583ZM45.6261 40.2303C45.6261 39.0783 45.4581 37.9183 45.1221 36.7503C44.8021 35.5663 44.2501 34.5743 43.4661 33.7743C42.6821 32.9583 41.6581 32.5503 40.3941 32.5503C39.2581 32.5503 38.2741 32.9023 37.4421 33.6063C36.6261 34.2943 36.0021 35.2303 35.5701 36.4143C35.1381 37.5983 34.9221 38.9103 34.9221 40.3503C34.9221 41.7423 35.1221 42.9903 35.5221 44.0943C35.9221 45.1983 36.5141 46.0703 37.2981 46.7103C38.0981 47.3503 39.0581 47.6703 40.1781 47.6703C41.2981 47.6703 42.2661 47.3423 43.0821 46.6863C43.9141 46.0303 44.5461 45.1423 44.9781 44.0223C45.4101 42.8863 45.6261 41.6223 45.6261 40.2303Z" fill="#F4F4F4"/>
<path d="M56.661 47.9343L57.237 47.7903C57.653 47.6623 57.965 47.5263 58.173 47.3823C58.381 47.2383 58.525 47.0303 58.605 46.7583C58.701 46.4703 58.749 46.0703 58.749 45.5583V34.7103C58.749 33.9743 58.645 33.4623 58.437 33.1743C58.229 32.8863 57.829 32.6543 57.237 32.4783L56.661 32.3343L56.949 31.5183H62.229L62.541 31.9023L62.229 32.3343C61.845 32.8943 61.565 33.4703 61.389 34.0623C61.229 34.6543 61.149 35.4143 61.149 36.3423V45.5583C61.149 46.0863 61.189 46.4783 61.269 46.7343C61.349 46.9743 61.493 47.1423 61.701 47.2383C61.909 47.3343 62.229 47.3823 62.661 47.3823H66.165C66.613 47.3823 66.949 47.3343 67.173 47.2383C67.397 47.1423 67.557 46.9663 67.653 46.7103C67.749 46.4543 67.797 46.0703 67.797 45.5583V34.7103C67.797 33.9743 67.693 33.4623 67.485 33.1743C67.293 32.8863 66.885 32.6543 66.261 32.4783L65.685 32.3343L65.997 31.5183H71.181L71.469 31.9023L71.181 32.3343C70.765 32.8623 70.469 33.4303 70.293 34.0383C70.133 34.6303 70.053 35.3983 70.053 36.3423V45.7263C70.053 46.3983 70.133 46.8463 70.293 47.0703C70.453 47.2783 70.781 47.3823 71.277 47.3823H75.213C75.645 47.3823 75.965 47.3343 76.173 47.2383C76.381 47.1423 76.525 46.9743 76.605 46.7343C76.685 46.4783 76.725 46.0863 76.725 45.5583V34.7103C76.725 33.9743 76.621 33.4623 76.413 33.1743C76.221 32.8863 75.821 32.6543 75.213 32.4783L74.637 32.3343L74.901 31.5183H80.181L80.493 31.9023L80.181 32.3343C79.797 32.8943 79.525 33.4703 79.365 34.0623C79.205 34.6383 79.125 35.3983 79.125 36.3423V45.7263C79.125 46.4303 79.221 46.9183 79.413 47.1903C79.605 47.4623 79.989 47.6783 80.565 47.8383L81.069 47.9823L80.805 48.7503H56.949L56.661 47.9343Z" fill="#F4F4F4"/>
<path d="M87.5625 43.9263C87.5625 44.9023 87.6425 45.6863 87.8025 46.2783C87.9625 46.8543 88.2425 47.4063 88.6425 47.9343L88.9545 48.3663L88.6425 48.7503H83.3865L83.0985 47.9343L83.6505 47.7903C84.2585 47.6303 84.6665 47.3983 84.8745 47.0943C85.0825 46.7903 85.1865 46.2783 85.1865 45.5583V33.7023C85.1865 33.4943 85.1465 33.3503 85.0665 33.2703C84.9865 33.1743 84.8505 33.1263 84.6585 33.1263H83.2665L82.9785 32.2383C83.6665 31.9663 84.5705 31.7263 85.6905 31.5183C86.8265 31.2943 87.9145 31.1823 88.9545 31.1823C91.3225 31.1823 93.0825 31.7183 94.2345 32.7903C95.3865 33.8463 95.9625 35.2143 95.9625 36.8943C95.9625 37.9343 95.7545 38.8783 95.3385 39.7263C94.9225 40.5583 94.2825 41.2303 93.4185 41.7423C92.5545 42.2383 91.4825 42.4863 90.2025 42.4863C89.6105 42.4863 89.1065 42.4143 88.6905 42.2703C88.2905 42.1263 88.0905 41.9183 88.0905 41.6463C88.0905 41.4863 88.1225 41.3503 88.1865 41.2383C88.2505 41.1263 88.3465 41.0703 88.4745 41.0703C88.5385 41.0703 88.6665 41.1023 88.8585 41.1663C89.0665 41.2143 89.3305 41.2383 89.6505 41.2383C90.8505 41.2383 91.7865 40.8543 92.4585 40.0863C93.1305 39.3183 93.4665 38.2783 93.4665 36.9663C93.4665 35.6703 93.1065 34.6063 92.3865 33.7743C91.6825 32.9423 90.6825 32.5263 89.3865 32.5263C88.1705 32.5263 87.5625 32.8943 87.5625 33.6303V43.9263Z" fill="#F4F4F4"/>
<path d="M113.619 47.9823L113.379 48.7503H107.499L107.211 47.9343L107.739 47.7903C108.171 47.6783 108.491 47.5503 108.699 47.4063C108.907 47.2623 109.051 47.0543 109.131 46.7823C109.227 46.4943 109.275 46.0863 109.275 45.5583V36.4623L101.187 45.2703V45.7263C101.187 46.4143 101.283 46.8943 101.475 47.1663C101.667 47.4383 102.051 47.6623 102.627 47.8383L103.131 47.9823L102.891 48.7503H96.9874L96.6994 47.9343L97.2754 47.7903C97.7074 47.6623 98.0274 47.5263 98.2354 47.3823C98.4434 47.2383 98.5874 47.0303 98.6674 46.7583C98.7634 46.4703 98.8114 46.0703 98.8114 45.5583V34.7103C98.8114 33.9743 98.7074 33.4623 98.4994 33.1743C98.2914 32.8863 97.8834 32.6543 97.2754 32.4783L96.6994 32.3343L96.9874 31.5183H102.267L102.579 31.9023L102.267 32.3343C101.867 32.8623 101.587 33.4223 101.427 34.0143C101.267 34.6063 101.187 35.3823 101.187 36.3423V43.3023L109.275 34.5183C109.259 33.8623 109.147 33.3983 108.939 33.1263C108.731 32.8383 108.331 32.6223 107.739 32.4783L107.211 32.3343L107.499 31.5183H112.731L113.091 31.9023L112.731 32.3343C112.315 32.8463 112.027 33.3983 111.867 33.9903C111.707 34.5823 111.627 35.3663 111.627 36.3423V45.7263C111.627 46.4303 111.731 46.9183 111.939 47.1903C112.147 47.4623 112.547 47.6783 113.139 47.8383L113.619 47.9823Z" fill="#F4F4F4"/>
<path d="M121.67 44.8143C121.894 44.8463 122.006 44.9823 122.006 45.2223C122.006 45.7183 121.694 45.9663 121.07 45.9663C119.982 45.9663 118.878 45.7423 117.758 45.2943C116.638 44.8303 115.702 44.1183 114.95 43.1583C114.198 42.1983 113.822 41.0143 113.822 39.6063C113.822 38.2143 114.19 37.0143 114.926 36.0063C115.662 34.9823 116.686 34.1983 117.998 33.6543C119.326 33.1103 120.854 32.8223 122.582 32.7903C122.566 31.9903 122.502 31.3903 122.39 30.9903C122.294 30.5743 122.086 30.3183 121.766 30.2223L121.238 30.0783L121.502 29.2383H126.062L126.35 29.6223L126.062 30.0783C125.79 30.5583 125.582 30.9903 125.438 31.3743C125.294 31.7423 125.182 32.2223 125.102 32.8143C126.894 32.8463 128.43 33.1423 129.71 33.7023C131.006 34.2463 131.998 35.0223 132.686 36.0303C133.374 37.0223 133.718 38.1983 133.718 39.5583C133.718 40.9823 133.342 42.1743 132.59 43.1343C131.838 44.0943 130.902 44.8063 129.782 45.2703C128.662 45.7343 127.558 45.9663 126.47 45.9663C126.182 45.9663 125.95 45.9103 125.774 45.7983C125.614 45.6703 125.534 45.4783 125.534 45.2223C125.534 44.9823 125.654 44.8463 125.894 44.8143C127.606 44.5903 128.886 44.0143 129.734 43.0863C130.582 42.1423 131.006 40.9023 131.006 39.3663C131.006 37.6863 130.51 36.3903 129.518 35.4783C128.542 34.5663 127.262 34.1103 125.678 34.1103C125.39 34.1103 125.198 34.1583 125.102 34.2543C125.006 34.3343 124.958 34.4863 124.958 34.7103V46.6863C124.958 47.3743 125.054 47.8543 125.246 48.1263C125.438 48.3983 125.83 48.6223 126.422 48.7983L126.95 48.9423L126.662 49.7103H120.782L120.494 48.8703L121.07 48.7503C121.678 48.5583 122.078 48.3263 122.27 48.0543C122.478 47.7663 122.582 47.2543 122.582 46.5183V34.7103C122.582 34.4703 122.534 34.3103 122.438 34.2303C122.342 34.1343 122.15 34.0943 121.862 34.1103C120.262 34.1903 118.974 34.6783 117.998 35.5743C117.038 36.4703 116.558 37.7663 116.558 39.4623C116.558 40.9503 116.982 42.1583 117.83 43.0863C118.678 44.0143 119.958 44.5903 121.67 44.8143Z" fill="#F4F4F4"/>
<path d="M146.377 35.0223C146.217 34.4303 146.041 33.9903 145.849 33.7023C145.673 33.3983 145.425 33.1903 145.105 33.0783C144.785 32.9503 144.337 32.8863 143.761 32.8863H142.681C142.345 32.8863 142.121 33.0063 142.009 33.2463C141.913 33.4703 141.865 33.9583 141.865 34.7103V45.5583C141.865 46.2943 141.969 46.8063 142.177 47.0943C142.385 47.3823 142.793 47.6143 143.401 47.7903L143.953 47.9343L143.665 48.7503H138.409L138.097 48.3663L138.409 47.9343C138.809 47.4063 139.089 46.8463 139.249 46.2543C139.409 45.6623 139.489 44.8863 139.489 43.9263V34.7103C139.489 33.9583 139.433 33.4703 139.321 33.2463C139.225 33.0063 139.009 32.8863 138.673 32.8863H137.593C137.017 32.8863 136.569 32.9503 136.249 33.0783C135.929 33.1903 135.673 33.3983 135.481 33.7023C135.305 33.9903 135.137 34.4303 134.977 35.0223L134.833 35.5743L134.017 35.2863V31.0143L134.401 30.7023L134.833 31.0143C135.281 31.3503 136.193 31.5183 137.569 31.5183H143.785C145.161 31.5183 146.073 31.3503 146.521 31.0143L146.953 30.7023L147.337 31.0143V35.2863L146.521 35.5743L146.377 35.0223Z" fill="#F4F4F4"/>
<path d="M158.49 47.9343L159.042 47.7903C159.426 47.6943 159.698 47.5663 159.858 47.4063C160.034 47.2463 160.122 47.0223 160.122 46.7343C160.122 46.4783 160.034 46.0863 159.858 45.5583L158.706 42.1983H153.162L152.586 43.9503C152.218 45.0543 152.034 45.8943 152.034 46.4703C152.034 47.0143 152.146 47.5023 152.37 47.9343L152.586 48.3663L152.13 48.7503H147.714L147.426 47.9343L147.978 47.7903C148.618 47.6143 149.082 47.3823 149.37 47.0943C149.658 46.8063 149.93 46.2943 150.186 45.5583L153.954 34.7103C154.13 34.1823 154.218 33.7903 154.218 33.5343C154.218 33.2463 154.13 33.0223 153.954 32.8623C153.794 32.7023 153.522 32.5743 153.138 32.4783L152.586 32.3343L152.874 31.5183H157.506L162.33 45.4383C162.586 46.1743 162.866 46.7343 163.17 47.1183C163.474 47.5023 163.914 47.9183 164.49 48.3663L164.178 48.7503H158.778L158.49 47.9343ZM153.666 40.7103H158.202L155.898 33.9903L153.666 40.7103Z" fill="#F4F4F4"/>
<path d="M184.124 44.0943C184.204 45.0863 184.364 45.9183 184.604 46.5903C184.86 47.2463 185.252 47.8383 185.78 48.3663L185.468 48.7503H180.212L179.924 47.9343L180.476 47.7903C180.988 47.6303 181.34 47.4303 181.532 47.1903C181.74 46.9343 181.844 46.5583 181.844 46.0623L181.796 45.1743L181.1 35.1663L176.084 47.0223H174.788L169.772 35.1663L169.244 42.5583C169.148 43.6783 169.1 44.4623 169.1 44.9103C169.1 45.5663 169.164 46.1263 169.292 46.5903C169.436 47.0383 169.66 47.4863 169.964 47.9343L170.252 48.3663L169.892 48.7503H165.38L165.116 47.9343L165.668 47.7903C166.292 47.5983 166.716 47.3583 166.94 47.0703C167.18 46.7823 167.324 46.2783 167.372 45.5583L168.02 36.0543C168.036 35.8463 168.06 35.5583 168.092 35.1903C168.124 34.8223 168.14 34.4943 168.14 34.2063C168.14 33.6623 168.036 33.2703 167.828 33.0303C167.636 32.7903 167.276 32.6063 166.748 32.4783L166.196 32.3343L166.46 31.5183H170.828L175.772 43.5903L180.86 31.5183H184.316L184.676 31.9023L184.388 32.3343C184.084 32.7823 183.86 33.2383 183.716 33.7023C183.588 34.1503 183.524 34.7023 183.524 35.3583C183.524 35.5983 183.564 36.3183 183.644 37.5183L184.124 44.0943Z" fill="#F4F4F4"/>
<path d="M204.041 47.9823L203.801 48.7503H197.921L197.633 47.9343L198.161 47.7903C198.593 47.6783 198.913 47.5503 199.121 47.4063C199.329 47.2623 199.473 47.0543 199.553 46.7823C199.649 46.4943 199.697 46.0863 199.697 45.5583V36.4623L191.609 45.2703V45.7263C191.609 46.4143 191.705 46.8943 191.897 47.1663C192.089 47.4383 192.473 47.6623 193.049 47.8383L193.553 47.9823L193.313 48.7503H187.409L187.121 47.9343L187.697 47.7903C188.129 47.6623 188.449 47.5263 188.657 47.3823C188.865 47.2383 189.009 47.0303 189.089 46.7583C189.185 46.4703 189.233 46.0703 189.233 45.5583V34.7103C189.233 33.9743 189.129 33.4623 188.921 33.1743C188.713 32.8863 188.305 32.6543 187.697 32.4783L187.121 32.3343L187.409 31.5183H192.689L193.001 31.9023L192.689 32.3343C192.289 32.8623 192.009 33.4223 191.849 34.0143C191.689 34.6063 191.609 35.3823 191.609 36.3423V43.3023L199.697 34.5183C199.681 33.8623 199.569 33.3983 199.361 33.1263C199.153 32.8383 198.753 32.6223 198.161 32.4783L197.633 32.3343L197.921 31.5183H203.153L203.513 31.9023L203.153 32.3343C202.737 32.8463 202.449 33.3983 202.289 33.9903C202.129 34.5823 202.049 35.3663 202.049 36.3423V45.7263C202.049 46.4303 202.153 46.9183 202.361 47.1903C202.569 47.4623 202.969 47.6783 203.561 47.8383L204.041 47.9823Z" fill="#F4F4F4"/>
</svg>
