<svg width="221" height="56" viewBox="0 0 221 56" fill="none" xmlns="http://www.w3.org/2000/svg">
<path d="M29.8018 24.6949V7.24035H32.4353V14.8256H41.137V7.24035H43.779V24.6949H41.137V17.0841H32.4353V24.6949H29.8018Z" fill="#F4F4F4"/>
<path d="M49.0887 24.6949H46.2932L52.5745 7.24035H55.6171L61.8983 24.6949H59.1029L54.1682 10.4108H54.0319L49.0887 24.6949ZM49.5574 17.8597H58.6256V20.0756H49.5574V17.8597Z" fill="#F4F4F4"/>
<path d="M64.4189 7.24035H67.0269V20.0585H67.1888L76.0695 7.24035H78.507V24.6949H75.8735V11.8938H75.7116L66.8479 24.6949H64.4189V7.24035Z" fill="#F4F4F4"/>
<path d="M93.2322 7.24035V9.50739H84.9822V24.6949H82.3486V7.24035H93.2322Z" fill="#F4F4F4"/>
<path d="M96.2002 24.6949V7.24035H102.422C103.78 7.24035 104.905 7.4875 105.797 7.98182C106.689 8.47614 107.356 9.15228 107.8 10.0102C108.243 10.8625 108.464 11.8227 108.464 12.8909C108.464 13.9648 108.24 14.9307 107.791 15.7886C107.348 16.6409 106.677 17.3171 105.78 17.8171C104.888 18.3114 103.766 18.5585 102.413 18.5585H98.1349V16.3256H102.175C103.033 16.3256 103.729 16.1778 104.263 15.8824C104.797 15.5813 105.189 15.1722 105.439 14.6551C105.689 14.1381 105.814 13.55 105.814 12.8909C105.814 12.2318 105.689 11.6466 105.439 11.1352C105.189 10.6239 104.794 10.2233 104.254 9.93353C103.72 9.64375 103.016 9.49887 102.141 9.49887H98.8337V24.6949H96.2002Z" fill="#F4F4F4"/>
<path d="M111.175 24.6949H108.379L114.66 7.24035H117.703L123.984 24.6949H121.189L116.254 10.4108H116.118L111.175 24.6949ZM111.643 17.8597H120.712V20.0756H111.643V17.8597Z" fill="#F4F4F4"/>
<path d="M123.582 9.50739V7.24035H137.09V9.50739H131.644V24.6949H129.019V9.50739H123.582Z" fill="#F4F4F4"/>
<path d="M141.925 14.2801H146.629C147.925 14.2801 149.027 14.4903 149.936 14.9108C150.845 15.3313 151.538 15.925 152.016 16.6921C152.498 17.4591 152.737 18.3625 152.731 19.4023C152.737 20.442 152.498 21.3597 152.016 22.1551C151.538 22.9506 150.845 23.5727 149.936 24.0216C149.027 24.4705 147.925 24.6949 146.629 24.6949H140.092V7.24035H142.734V22.479H146.629C147.385 22.479 148.021 22.3313 148.538 22.0358C149.061 21.7403 149.456 21.3568 149.723 20.8852C149.996 20.4136 150.132 19.908 150.132 19.3682C150.132 18.5841 149.831 17.9108 149.229 17.3483C148.626 16.7801 147.76 16.496 146.629 16.496H141.925V14.2801Z" fill="#F4F4F4"/>
<path d="M170.44 12.9165H167.78C167.678 12.3483 167.488 11.8483 167.209 11.4165C166.931 10.9847 166.59 10.6182 166.187 10.317C165.783 10.0159 165.332 9.78864 164.832 9.63523C164.337 9.48182 163.812 9.40512 163.255 9.40512C162.249 9.40512 161.349 9.65796 160.553 10.1636C159.763 10.6693 159.138 11.4108 158.678 12.3881C158.224 13.3653 157.996 14.5585 157.996 15.9676C157.996 17.3881 158.224 18.5869 158.678 19.5642C159.138 20.5415 159.766 21.2801 160.562 21.7801C161.357 22.2801 162.252 22.5301 163.246 22.5301C163.797 22.5301 164.32 22.4563 164.815 22.3085C165.315 22.1551 165.766 21.9307 166.17 21.6352C166.573 21.3398 166.914 20.979 167.192 20.5528C167.476 20.121 167.672 19.6267 167.78 19.0699L170.44 19.0784C170.297 19.9364 170.022 20.7261 169.613 21.4477C169.209 22.1636 168.69 22.783 168.053 23.3057C167.422 23.8227 166.701 24.2233 165.888 24.5074C165.076 24.7915 164.19 24.9335 163.229 24.9335C161.718 24.9335 160.371 24.5756 159.19 23.8597C158.008 23.1381 157.076 22.1068 156.394 20.7659C155.718 19.425 155.38 17.8256 155.38 15.9676C155.38 14.104 155.721 12.5045 156.403 11.1693C157.084 9.82841 158.016 8.8 159.198 8.0841C160.38 7.3625 161.724 7.00171 163.229 7.00171C164.155 7.00171 165.019 7.13523 165.82 7.40228C166.627 7.66364 167.351 8.05 167.994 8.56137C168.636 9.06705 169.167 9.68637 169.587 10.4193C170.008 11.1466 170.292 11.979 170.44 12.9165Z" fill="#F4F4F4"/>
<path d="M185.966 24.6949H183.324V9.49887H180.017C179.153 9.49887 178.452 9.62955 177.912 9.89091C177.372 10.1466 176.977 10.5159 176.727 10.9989C176.477 11.4818 176.352 12.0528 176.352 12.7119C176.352 13.3653 176.477 13.925 176.727 14.3909C176.977 14.8568 177.369 15.2119 177.903 15.4563C178.437 15.7006 179.133 15.8227 179.991 15.8227H184.466V18.0898H179.744C178.398 18.0898 177.275 17.8653 176.378 17.4165C175.486 16.9676 174.815 16.3398 174.366 15.533C173.923 14.7205 173.702 13.7801 173.702 12.7119C173.702 11.6381 173.923 10.6921 174.366 9.87387C174.81 9.05 175.477 8.40512 176.369 7.93921C177.267 7.4733 178.389 7.24035 179.736 7.24035H185.966V24.6949ZM177.349 16.8199H180.264L176.028 24.6949H173.037L177.349 16.8199Z" fill="#F4F4F4"/>
<path d="M33.4708 36.9165H30.8117C30.7094 36.3483 30.5191 35.8483 30.2407 35.4165C29.9623 34.9847 29.6214 34.6182 29.218 34.317C28.8145 34.0159 28.3628 33.7886 27.8628 33.6352C27.3685 33.4818 26.843 33.4051 26.2861 33.4051C25.2805 33.4051 24.3799 33.658 23.5844 34.1636C22.7947 34.6693 22.1697 35.4108 21.7094 36.3881C21.2549 37.3653 21.0276 38.5585 21.0276 39.9676C21.0276 41.3881 21.2549 42.5869 21.7094 43.5642C22.1697 44.5415 22.7975 45.2801 23.593 45.7801C24.3884 46.2801 25.2833 46.5301 26.2776 46.5301C26.8287 46.5301 27.3515 46.4563 27.8458 46.3085C28.3458 46.1551 28.7975 45.9307 29.2009 45.6352C29.6043 45.3398 29.9452 44.979 30.2236 44.5528C30.5077 44.121 30.7037 43.6267 30.8117 43.0699L33.4708 43.0784C33.3287 43.9364 33.0532 44.7261 32.6441 45.4477C32.2407 46.1636 31.7208 46.783 31.0844 47.3057C30.4537 47.8227 29.7322 48.2233 28.9197 48.5074C28.1072 48.7915 27.2208 48.9335 26.2606 48.9335C24.7492 48.9335 23.4026 48.5756 22.2208 47.8597C21.039 47.1381 20.1072 46.1068 19.4253 44.7659C18.7492 43.425 18.4111 41.8256 18.4111 39.9676C18.4111 38.104 18.752 36.5045 19.4339 35.1693C20.1157 33.8284 21.0475 32.8 22.2293 32.0841C23.4111 31.3625 24.7549 31.0017 26.2606 31.0017C27.1867 31.0017 28.0503 31.1352 28.8515 31.4023C29.6583 31.6636 30.3827 32.05 31.0248 32.5614C31.6668 33.0671 32.1981 33.6864 32.6185 34.4193C33.039 35.1466 33.3231 35.979 33.4708 36.9165Z" fill="#F4F4F4"/>
<path d="M51.784 39.9676C51.784 41.8313 51.4431 43.4335 50.7613 44.7744C50.0795 46.1097 49.1448 47.1381 47.9573 47.8597C46.7755 48.5756 45.4317 48.9335 43.926 48.9335C42.4147 48.9335 41.0653 48.5756 39.8778 47.8597C38.6959 47.1381 37.7641 46.1068 37.0823 44.7659C36.4005 43.425 36.0596 41.8256 36.0596 39.9676C36.0596 38.104 36.4005 36.5045 37.0823 35.1693C37.7641 33.8284 38.6959 32.8 39.8778 32.0841C41.0653 31.3625 42.4147 31.0017 43.926 31.0017C45.4317 31.0017 46.7755 31.3625 47.9573 32.0841C49.1448 32.8 50.0795 33.8284 50.7613 35.1693C51.4431 36.5045 51.784 38.104 51.784 39.9676ZM49.176 39.9676C49.176 38.5472 48.9459 37.3511 48.4857 36.3795C48.0312 35.4023 47.4062 34.6636 46.6107 34.1636C45.8209 33.658 44.926 33.4051 43.926 33.4051C42.9204 33.4051 42.0226 33.658 41.2329 34.1636C40.4431 34.6636 39.8181 35.4023 39.3579 36.3795C38.9033 37.3511 38.676 38.5472 38.676 39.9676C38.676 41.3881 38.9033 42.5869 39.3579 43.5642C39.8181 44.5358 40.4431 45.2744 41.2329 45.7801C42.0226 46.2801 42.9204 46.5301 43.926 46.5301C44.926 46.5301 45.8209 46.2801 46.6107 45.7801C47.4062 45.2744 48.0312 44.5358 48.4857 43.5642C48.9459 42.5869 49.176 41.3881 49.176 39.9676Z" fill="#F4F4F4"/>
<path d="M61.6491 31.2403H64.257V46.4108H70.0184V31.2403H72.6263V46.4108H78.3707V31.2403H80.9701V48.6949H61.6491V31.2403Z" fill="#F4F4F4"/>
<path d="M85.0439 48.6949V31.2403H91.2655C92.6235 31.2403 93.7485 31.4875 94.6405 31.9818C95.5326 32.4761 96.2002 33.1523 96.6434 34.0102C97.0866 34.8625 97.3082 35.8227 97.3082 36.8909C97.3082 37.9648 97.0837 38.9307 96.6349 39.7886C96.1917 40.6409 95.5212 41.3171 94.6235 41.8171C93.7315 42.3114 92.6093 42.5585 91.257 42.5585H86.9786V40.3256H91.0184C91.8763 40.3256 92.5724 40.1778 93.1065 39.8824C93.6405 39.5813 94.0326 39.1722 94.2826 38.6551C94.5326 38.1381 94.6576 37.55 94.6576 36.8909C94.6576 36.2318 94.5326 35.6466 94.2826 35.1352C94.0326 34.6239 93.6377 34.2233 93.0979 33.9335C92.5638 33.6438 91.8593 33.4989 90.9843 33.4989H87.6775V48.6949H85.0439Z" fill="#F4F4F4"/>
<path d="M100.396 31.2403H103.003V44.0585H103.165L112.046 31.2403H114.484V48.6949H111.85V35.8938H111.688L102.824 48.6949H100.396V31.2403Z" fill="#F4F4F4"/>
<path d="M124.623 33.2517H127.768C129.098 33.2517 130.277 33.5443 131.305 34.1295C132.339 34.7091 133.149 35.5244 133.734 36.5756C134.325 37.621 134.621 38.8369 134.621 40.2233C134.621 41.5983 134.325 42.8057 133.734 43.8455C133.149 44.8852 132.339 45.6977 131.305 46.283C130.277 46.8625 129.098 47.1523 127.768 47.1523H124.623C123.294 47.1523 122.112 46.8653 121.078 46.2915C120.044 45.7119 119.231 44.9051 118.641 43.871C118.055 42.8369 117.763 41.6296 117.763 40.2489C117.763 38.8568 118.058 37.6352 118.649 36.5841C119.24 35.533 120.05 34.7148 121.078 34.1295C122.112 33.5443 123.294 33.2517 124.623 33.2517ZM124.623 35.5273C123.714 35.5273 122.939 35.7176 122.297 36.0983C121.655 36.4733 121.163 37.0131 120.822 37.7176C120.481 38.4222 120.311 39.2659 120.311 40.2489C120.311 41.2091 120.481 42.0358 120.822 42.729C121.169 43.4165 121.663 43.9477 122.305 44.3227C122.947 44.6921 123.72 44.8767 124.623 44.8767H127.777C128.68 44.8767 129.45 44.6921 130.087 44.3227C130.729 43.9477 131.217 43.4136 131.552 42.7205C131.893 42.0216 132.064 41.1892 132.064 40.2233C132.064 39.2517 131.893 38.4165 131.552 37.7176C131.217 37.0131 130.729 36.4733 130.087 36.0983C129.45 35.7176 128.68 35.5273 127.777 35.5273H124.623ZM127.496 30.9335V49.4108H124.913V30.9335H127.496Z" fill="#F4F4F4"/>
<path d="M136.285 33.5074V31.2403H149.793V33.5074H144.347V48.6949H141.722V33.5074H136.285Z" fill="#F4F4F4"/>
<path d="M152.19 48.6949H149.395L155.676 31.2403H158.719L165 48.6949H162.204L157.27 34.4108H157.133L152.19 48.6949ZM152.659 41.8597H161.727V44.0756H152.659V41.8597Z" fill="#F4F4F4"/>
<path d="M167.521 31.2403H170.717L176.273 44.8085H176.478L182.035 31.2403H185.231V48.6949H182.725V36.0642H182.563L177.415 48.6693H175.336L170.188 36.0557H170.026V48.6949H167.521V31.2403Z" fill="#F4F4F4"/>
<path d="M189.06 31.2403H191.668V44.0585H191.829L200.71 31.2403H203.148V48.6949H200.514V35.8938H200.352L191.489 48.6949H189.06V31.2403Z" fill="#F4F4F4"/>
</svg>
