<svg width="221" height="56" viewBox="0 0 221 56" fill="none" xmlns="http://www.w3.org/2000/svg">
<path d="M15.7793 23.5383V0.874237H18.4434V10.2102H30.4434V0.874237H33.1074V23.5383H30.4434V12.8742H18.4434V23.5383H15.7793Z" fill="#F4F4F4"/>
<path d="M35.7637 23.5383V3.5383H38.4355V10.2102H47.7637V3.5383H50.4355V23.5383H47.7637V12.8742H38.4355V23.5383H35.7637ZM38.4355 3.5383V0.874237H47.7637V3.5383H38.4355Z" fill="#F4F4F4"/>
<path d="M58.4434 14.2102V11.5383H61.1074V14.2102H58.4434ZM61.1074 11.5383V8.87424H63.7793V11.5383H61.1074ZM53.1074 23.5383V0.874237H55.7793V14.2102H58.4434V16.8742H55.7793V23.5383H53.1074ZM66.4434 23.5383V8.87424H63.7793V6.21017H66.4434V0.874237H69.1074V23.5383H66.4434Z" fill="#F4F4F4"/>
<path d="M71.7637 23.5383V0.874237H85.0996V3.5383H74.4355V23.5383H71.7637Z" fill="#F4F4F4"/>
<path d="M101.1 10.2102V3.5383H103.764V10.2102H101.1ZM87.7637 23.5383V0.874237H101.1V3.5383H90.4355V10.2102H101.1V12.8742H90.4355V23.5383H87.7637Z" fill="#F4F4F4"/>
<path d="M106.42 23.5383V3.5383H109.092V10.2102H118.42V3.5383H121.092V23.5383H118.42V12.8742H109.092V23.5383H106.42ZM109.092 3.5383V0.874237H118.42V3.5383H109.092Z" fill="#F4F4F4"/>
<path d="M129.1 23.5383V3.5383H123.764V0.874237H137.1V3.5383H131.764V23.5383H129.1Z" fill="#F4F4F4"/>
<path d="M153.1 20.8742V12.8742H155.764V20.8742H153.1ZM139.764 23.5383V0.874237H142.436V10.2102H153.1V12.8742H142.436V20.8742H153.1V23.5383H139.764Z" fill="#F4F4F4"/>
<path d="M161.092 23.5383V20.8742H171.756V23.5383H161.092ZM158.42 20.8742V3.5383H161.092V20.8742H158.42ZM161.092 3.5383V0.874237H171.756V3.5383H161.092Z" fill="#F4F4F4"/>
<path d="M174.42 23.5383V20.8742H177.092V23.5383H174.42ZM177.092 20.8742V18.2102H179.756V20.8742H177.092ZM179.756 18.2102V15.5383H182.42V18.2102H179.756ZM174.42 10.2102V3.5383H177.092V10.2102H174.42ZM187.756 23.5383V12.8742H185.092V15.5383H182.42V12.8742H177.092V10.2102H187.756V3.5383H177.092V0.874237H190.42V23.5383H187.756Z" fill="#F4F4F4"/>
<path d="M12.4355 55.5383V52.8742H23.0996V55.5383H12.4355ZM9.76367 52.8742V35.5383H12.4355V52.8742H9.76367ZM12.4355 35.5383V32.8742H23.0996V35.5383H12.4355Z" fill="#F4F4F4"/>
<path d="M28.4355 55.5383V52.8742H39.0996V55.5383H28.4355ZM25.7637 52.8742V35.5383H28.4355V52.8742H25.7637ZM39.0996 52.8742V35.5383H41.7637V52.8742H39.0996ZM28.4355 35.5383V32.8742H39.0996V35.5383H28.4355Z" fill="#F4F4F4"/>
<path d="M58.4512 55.5383V32.8742H61.123V52.8742H67.7871V32.8742H70.4512V52.8742H77.123V32.8742H79.7871V55.5383H58.4512Z" fill="#F4F4F4"/>
<path d="M95.7871 42.2102V35.5383H98.4512V42.2102H95.7871ZM82.4512 55.5383V32.8742H95.7871V35.5383H85.123V42.2102H95.7871V44.8742H85.123V55.5383H82.4512Z" fill="#F4F4F4"/>
<path d="M106.443 46.2102V43.5383H109.107V46.2102H106.443ZM109.107 43.5383V40.8742H111.779V43.5383H109.107ZM101.107 55.5383V32.8742H103.779V46.2102H106.443V48.8742H103.779V55.5383H101.107ZM114.443 55.5383V40.8742H111.779V38.2102H114.443V32.8742H117.107V55.5383H114.443Z" fill="#F4F4F4"/>
<path d="M119.764 50.2102V38.2102H122.436V50.2102H119.764ZM135.764 50.2102V38.2102H138.436V50.2102H135.764ZM127.764 55.5383V52.8742H122.436V50.2102H127.764V38.2102H122.436V35.5383H127.764V32.8742H130.436V35.5383H135.764V38.2102H130.436V50.2102H135.764V52.8742H130.436V55.5383H127.764Z" fill="#F4F4F4"/>
<path d="M146.443 55.5383V35.5383H141.107V32.8742H154.443V35.5383H149.107V55.5383H146.443Z" fill="#F4F4F4"/>
<path d="M157.107 55.5383V35.5383H159.779V42.2102H169.107V35.5383H171.779V55.5383H169.107V44.8742H159.779V55.5383H157.107ZM159.779 35.5383V32.8742H169.107V35.5383H159.779Z" fill="#F4F4F4"/>
<path d="M182.451 43.5383V40.8742H185.123V43.5383H182.451ZM179.787 40.8742V38.2102H182.451V40.8742H179.787ZM185.123 40.8742V38.2102H187.787V40.8742H185.123ZM174.451 55.5383V32.8742H177.123V35.5383H179.787V38.2102H177.123V55.5383H174.451ZM190.451 55.5383V38.2102H187.787V35.5383H190.451V32.8742H193.123V55.5383H190.451Z" fill="#F4F4F4"/>
<path d="M201.131 46.2102V43.5383H203.795V46.2102H201.131ZM203.795 43.5383V40.8742H206.467V43.5383H203.795ZM195.795 55.5383V32.8742H198.467V46.2102H201.131V48.8742H198.467V55.5383H195.795ZM209.131 55.5383V40.8742H206.467V38.2102H209.131V32.8742H211.795V55.5383H209.131Z" fill="#F4F4F4"/>
</svg>
