<svg width="221" height="56" viewBox="0 0 221 56" fill="none" xmlns="http://www.w3.org/2000/svg">
<path d="M33.4508 23.2863V6.48629H31.0508V13.6863H21.9308V6.48629H19.5308V23.2863H21.9308V16.0863H31.0508V23.2863H33.4508Z" fill="#F4F4F4"/>
<path d="M40.878 10.3023C42.15 9.03029 43.662 8.40629 45.462 8.40629C47.262 8.40629 48.774 9.03029 50.046 10.3023C51.318 11.5743 51.942 13.0863 51.942 14.8863C51.942 16.6863 51.318 18.1983 50.046 19.4703C48.774 20.7423 47.262 21.3663 45.462 21.3663C43.662 21.3663 42.15 20.7423 40.878 19.4703C39.606 18.1983 38.982 16.6863 38.982 14.8863C38.982 13.0863 39.606 11.5743 40.878 10.3023ZM45.462 6.00629C43.014 6.00629 40.926 6.87029 39.174 8.62229C37.446 10.3503 36.582 12.4383 36.582 14.8863C36.582 17.3343 37.446 19.4223 39.174 21.1743C40.926 22.9023 43.014 23.7663 45.462 23.7663C48.006 23.7663 50.166 22.8303 51.942 20.9583V23.2863H54.342V6.48629H51.942V8.81429C50.166 6.94229 48.006 6.00629 45.462 6.00629Z" fill="#F4F4F4"/>
<path d="M70.5448 23.2863H72.9448V6.48629H68.5288L60.3448 22.0863V6.48629H57.9448V23.2863H62.3608L70.5448 7.68629V23.2863Z" fill="#F4F4F4"/>
<path d="M76.5542 23.2863H78.9542V8.88629H88.3142V6.48629H76.5542V23.2863Z" fill="#F4F4F4"/>
<path d="M98.6427 16.5663C100.035 16.5663 101.211 16.0863 102.195 15.1023C103.179 14.1183 103.683 12.9183 103.683 11.5263C103.683 10.1343 103.179 8.95829 102.195 7.97429C101.211 6.99029 100.035 6.48629 98.6427 6.48629H91.2027V23.2863H93.6027V16.5663H98.6427ZM98.6427 8.88629C100.107 8.88629 101.283 10.0623 101.283 11.5263C101.283 12.9903 100.107 14.1663 98.6427 14.1663H93.6027V8.88629H98.6427Z" fill="#F4F4F4"/>
<path d="M110.628 10.3023C111.9 9.03029 113.412 8.40629 115.212 8.40629C117.012 8.40629 118.524 9.03029 119.796 10.3023C121.068 11.5743 121.692 13.0863 121.692 14.8863C121.692 16.6863 121.068 18.1983 119.796 19.4703C118.524 20.7423 117.012 21.3663 115.212 21.3663C113.412 21.3663 111.9 20.7423 110.628 19.4703C109.356 18.1983 108.732 16.6863 108.732 14.8863C108.732 13.0863 109.356 11.5743 110.628 10.3023ZM115.212 6.00629C112.764 6.00629 110.676 6.87029 108.924 8.62229C107.196 10.3503 106.332 12.4383 106.332 14.8863C106.332 17.3343 107.196 19.4223 108.924 21.1743C110.676 22.9023 112.764 23.7663 115.212 23.7663C117.756 23.7663 119.916 22.8303 121.692 20.9583V23.2863H124.092V6.48629H121.692V8.81429C119.916 6.94229 117.756 6.00629 115.212 6.00629Z" fill="#F4F4F4"/>
<path d="M127.695 6.48629V23.2863H130.095V8.88629H136.095V23.2863H138.495V8.88629H144.495V23.2863H146.895V6.48629H127.695Z" fill="#F4F4F4"/>
<path d="M158.18 23.2863C159.5 23.2863 160.628 22.8063 161.564 21.8703C162.5 20.9343 162.98 19.8063 162.98 18.4863C162.98 17.1663 162.5 16.0383 161.564 15.1023C160.628 14.1663 159.5 13.6863 158.18 13.6863H152.9V6.48629H150.5V23.2863H158.18ZM152.9 16.0863H158.18C159.5 16.0863 160.58 17.1663 160.58 18.4863C160.58 19.8063 159.5 20.8863 158.18 20.8863H152.9V16.0863Z" fill="#F4F4F4"/>
<path d="M174.509 6.00629C172.061 6.00629 169.973 6.87029 168.221 8.62229C166.493 10.3503 165.629 12.4383 165.629 14.8863C165.629 17.3343 166.493 19.4223 168.221 21.1743C169.973 22.9023 172.061 23.7663 174.509 23.7663C176.957 23.7663 179.045 22.9023 180.773 21.1743L179.093 19.4703C177.821 20.7423 176.309 21.3663 174.509 21.3663C172.709 21.3663 171.197 20.7423 169.925 19.4703C168.653 18.1983 168.029 16.6863 168.029 14.8863C168.029 13.0863 168.653 11.5743 169.925 10.3023C171.197 9.03029 172.709 8.40629 174.509 8.40629C176.309 8.40629 177.821 9.03029 179.093 10.3023L180.773 8.62229C179.021 6.87029 176.933 6.00629 174.509 6.00629Z" fill="#F4F4F4"/>
<path d="M193.381 23.2863H195.781V6.48629H188.341C186.949 6.48629 185.749 6.99029 184.765 7.97429C183.781 8.95829 183.301 10.1343 183.301 11.5263C183.301 12.9183 183.781 14.1183 184.765 15.1023C185.749 16.0863 186.949 16.5663 188.341 16.5663H190.021L184.981 23.2863H187.981L193.381 16.0863V23.2863ZM193.381 14.1663H188.341C186.877 14.1663 185.701 12.9903 185.701 11.5263C185.701 10.0623 186.877 8.88629 188.341 8.88629H193.381V14.1663Z" fill="#F4F4F4"/>
<path d="M18.1105 30.0063C15.6625 30.0063 13.5745 30.8703 11.8225 32.6223C10.0945 34.3503 9.23047 36.4383 9.23047 38.8863C9.23047 41.3343 10.0945 43.4223 11.8225 45.1743C13.5745 46.9023 15.6625 47.7663 18.1105 47.7663C20.5585 47.7663 22.6465 46.9023 24.3745 45.1743L22.6945 43.4703C21.4225 44.7423 19.9105 45.3663 18.1105 45.3663C16.3105 45.3663 14.7985 44.7423 13.5265 43.4703C12.2545 42.1983 11.6305 40.6863 11.6305 38.8863C11.6305 37.0863 12.2545 35.5743 13.5265 34.3023C14.7985 33.0303 16.3105 32.4063 18.1105 32.4063C19.9105 32.4063 21.4225 33.0303 22.6945 34.3023L24.3745 32.6223C22.6225 30.8703 20.5345 30.0063 18.1105 30.0063Z" fill="#F4F4F4"/>
<path d="M30.4718 34.3023C31.7438 33.0303 33.2558 32.4063 35.0558 32.4063C36.8558 32.4063 38.3678 33.0303 39.6398 34.3023C40.9118 35.5743 41.5358 37.0863 41.5358 38.8863C41.5358 40.6863 40.9118 42.1983 39.6398 43.4703C38.3678 44.7423 36.8558 45.3663 35.0558 45.3663C33.2558 45.3663 31.7438 44.7423 30.4718 43.4703C29.1998 42.1983 28.5758 40.6863 28.5758 38.8863C28.5758 37.0863 29.1998 35.5743 30.4718 34.3023ZM28.7678 45.1743C30.5198 46.9023 32.6078 47.7663 35.0558 47.7663C37.5038 47.7663 39.5918 46.9023 41.3198 45.1743C43.0718 43.4223 43.9358 41.3343 43.9358 38.8863C43.9358 36.4383 43.0718 34.3503 41.3198 32.6223C39.5918 30.8703 37.5038 30.0063 35.0558 30.0063C32.6078 30.0063 30.5198 30.8703 28.7678 32.6223C27.0398 34.3503 26.1758 36.4383 26.1758 38.8863C26.1758 41.3343 27.0398 43.4223 28.7678 45.1743Z" fill="#F4F4F4"/>
<path d="M72.973 47.2863V30.4863H70.573V44.8863H64.573V30.4863H62.173V44.8863H56.173V30.4863H53.773V47.2863H72.973Z" fill="#F4F4F4"/>
<path d="M84.0177 40.5663C85.4097 40.5663 86.5857 40.0863 87.5697 39.1023C88.5537 38.1183 89.0577 36.9183 89.0577 35.5263C89.0577 34.1343 88.5537 32.9583 87.5697 31.9743C86.5857 30.9903 85.4097 30.4863 84.0177 30.4863H76.5777V47.2863H78.9777V40.5663H84.0177ZM84.0177 32.8863C85.4817 32.8863 86.6577 34.0623 86.6577 35.5263C86.6577 36.9903 85.4817 38.1663 84.0177 38.1663H78.9777V32.8863H84.0177Z" fill="#F4F4F4"/>
<path d="M104.787 47.2863H107.187V30.4863H102.771L94.587 46.0863V30.4863H92.187V47.2863H96.603L104.787 31.6863V47.2863Z" fill="#F4F4F4"/>
<path d="M121.116 50.4063V47.7423C123.468 47.6223 125.46 46.7103 127.068 45.0063C128.7 43.3023 129.516 41.2623 129.516 38.8863C129.516 36.5103 128.7 34.4943 127.068 32.7903C125.436 31.0863 123.444 30.1503 121.116 30.0303V27.1263H118.716V30.0303C116.388 30.1503 114.396 31.0863 112.764 32.7903C111.132 34.4943 110.316 36.5103 110.316 38.8863C110.316 41.2623 111.132 43.3023 112.74 45.0063C114.372 46.7103 116.364 47.6223 118.716 47.7423V50.4063H121.116ZM121.116 32.4303C122.796 32.5503 124.212 33.2463 125.364 34.4943C126.54 35.7183 127.116 37.1823 127.116 38.8863C127.116 40.5903 126.54 42.0543 125.364 43.3023C124.212 44.5263 122.796 45.2223 121.116 45.3423V32.4303ZM118.716 45.3423C117.036 45.2223 115.62 44.5263 114.444 43.3023C113.292 42.0543 112.716 40.5903 112.716 38.8863C112.716 37.1823 113.292 35.7183 114.444 34.4943C115.62 33.2463 117.036 32.5503 118.716 32.4303V45.3423Z" fill="#F4F4F4"/>
<path d="M132.64 30.4863V47.2863H135.04V32.8863H141.04V47.2863H143.44V32.8863H149.44V47.2863H151.84V30.4863H132.64Z" fill="#F4F4F4"/>
<path d="M159.261 34.3023C160.533 33.0303 162.045 32.4063 163.845 32.4063C165.645 32.4063 167.157 33.0303 168.429 34.3023C169.701 35.5743 170.325 37.0863 170.325 38.8863C170.325 40.6863 169.701 42.1983 168.429 43.4703C167.157 44.7423 165.645 45.3663 163.845 45.3663C162.045 45.3663 160.533 44.7423 159.261 43.4703C157.989 42.1983 157.365 40.6863 157.365 38.8863C157.365 37.0863 157.989 35.5743 159.261 34.3023ZM163.845 30.0063C161.397 30.0063 159.309 30.8703 157.557 32.6223C155.829 34.3503 154.965 36.4383 154.965 38.8863C154.965 41.3343 155.829 43.4223 157.557 45.1743C159.309 46.9023 161.397 47.7663 163.845 47.7663C166.389 47.7663 168.549 46.8303 170.325 44.9583V47.2863H172.725V30.4863H170.325V32.8143C168.549 30.9423 166.389 30.0063 163.845 30.0063Z" fill="#F4F4F4"/>
<path d="M191.328 32.1663V47.2863H193.728V30.4863H189.528L185.016 39.8463L180.528 30.4863H176.328V47.2863H178.728V32.1663L182.952 41.0463H187.104L191.328 32.1663Z" fill="#F4F4F4"/>
<path d="M209.928 47.2863H212.328V30.4863H207.912L199.728 46.0863V30.4863H197.328V47.2863H201.744L209.928 31.6863V47.2863Z" fill="#F4F4F4"/>
</svg>
