<svg width="221" height="56" viewBox="0 0 221 56" fill="none" xmlns="http://www.w3.org/2000/svg">
<path d="M44.3112 4.3783V11.8823H34.5113V4.3783H30.5913V23.9783H34.5113V15.8023H44.3112V23.9783H48.2313V4.3783H44.3112Z" fill="#F4F4F4"/>
<path d="M59.9473 4.3783L52.6673 14.1783H56.0273L48.8033 23.9783H53.5633L57.9313 18.0703H63.7833V23.9783H67.7033V4.3783H59.9473ZM63.7833 5.6383V14.1503H57.4553L63.7833 5.6383Z" fill="#F4F4F4"/>
<path d="M86.8509 4.3783L73.8589 22.0743V4.3783H69.9389V23.9783H77.2189L90.0989 6.4503V23.9783H94.0189V4.3783H86.8509Z" fill="#F4F4F4"/>
<path d="M100.191 23.9783V8.2983H106.071V4.3783H96.2709V23.9783H100.191Z" fill="#F4F4F4"/>
<path d="M116.687 9.5583C116.687 6.6183 114.727 4.4063 111.955 4.3783H107.755V23.9783H111.675V14.7383H111.955C114.727 14.7103 116.687 12.4983 116.687 9.5583ZM111.927 11.3783H111.675V7.7383H111.927C112.767 7.7383 113.327 8.5783 113.327 9.5583C113.327 10.5383 112.767 11.3783 111.927 11.3783Z" fill="#F4F4F4"/>
<path d="M124.479 4.3783L117.199 14.1783H120.559L113.335 23.9783H118.095L122.463 18.0703H128.315V23.9783H132.235V4.3783H124.479ZM128.315 5.6383V14.1503H121.987L128.315 5.6383Z" fill="#F4F4F4"/>
<path d="M143.71 4.3783H133.91V8.2983H136.878V23.9783H140.798V8.2983H143.71V4.3783Z" fill="#F4F4F4"/>
<path d="M153.836 14.1783H149.3V4.3783H145.38V23.9783H161.06L153.836 14.1783ZM149.3 20.6183V14.4863L153.836 20.6183H149.3Z" fill="#F4F4F4"/>
<path d="M168.32 23.9783V20.0583C164.4 20.0583 162.44 17.8183 162.44 14.1783C162.44 10.5383 164.4 8.2983 168.32 8.2983V4.3783C162.44 4.3783 158.52 8.2983 158.52 14.1783C158.52 20.0583 162.44 23.9783 168.32 23.9783Z" fill="#F4F4F4"/>
<path d="M184.55 4.3783H180.434C177.662 4.4063 175.702 6.6183 175.702 9.5583C175.702 11.6303 176.654 13.3383 178.194 14.1783H175.31C175.31 17.9583 173.21 20.0583 169.43 20.0583V23.9783C175.17 23.9783 179.034 20.2263 179.23 14.5703C179.594 14.6823 180.014 14.7383 180.434 14.7383H180.63V23.9783H184.55V4.3783ZM180.63 11.3783H180.462C179.622 11.3783 179.062 10.5383 179.062 9.5583C179.062 8.5783 179.622 7.7383 180.462 7.7383H180.63V11.3783Z" fill="#F4F4F4"/>
<path d="M18.3117 51.9783V48.0583C14.3917 48.0583 12.4317 45.8183 12.4317 42.1783C12.4317 38.5383 14.3917 36.2983 18.3117 36.2983V32.3783C12.4317 32.3783 8.51172 36.2983 8.51172 42.1783C8.51172 48.0583 12.4317 51.9783 18.3117 51.9783Z" fill="#F4F4F4"/>
<path d="M27.8273 32.3783C21.9473 32.3783 18.0273 36.2983 18.0273 42.1783C18.0273 48.0583 21.9473 51.9783 27.8273 51.9783C33.7073 51.9783 37.6273 48.0583 37.6273 42.1783C37.6273 36.2983 33.7073 32.3783 27.8273 32.3783ZM27.8273 48.0583C23.9073 48.0583 21.9473 45.8183 21.9473 42.1783C21.9473 38.5383 23.9073 36.2983 27.8273 36.2983C31.7473 36.2983 33.7073 38.5383 33.7073 42.1783C33.7073 45.8183 31.7473 48.0583 27.8273 48.0583Z" fill="#F4F4F4"/>
<path d="M63.9539 32.3783V48.0583H59.0539V32.3783H55.1339V48.0583H50.2339V32.3783H46.3139V51.9783H67.8739V32.3783H63.9539Z" fill="#F4F4F4"/>
<path d="M79.035 37.5583C79.035 34.6183 77.075 32.4063 74.303 32.3783H70.103V51.9783H74.023V42.7383H74.303C77.075 42.7103 79.035 40.4983 79.035 37.5583ZM74.275 39.3783H74.023V35.7383H74.275C75.115 35.7383 75.675 36.5783 75.675 37.5583C75.675 38.5383 75.115 39.3783 74.275 39.3783Z" fill="#F4F4F4"/>
<path d="M97.6243 32.3783L84.6323 50.0743V32.3783H80.7123V51.9783H87.9923L100.872 34.4503V51.9783H104.792V32.3783H97.6243Z" fill="#F4F4F4"/>
<path d="M129.444 42.1783C129.444 36.9703 125.916 33.8623 119.924 33.7783V32.3783H116.004V33.7783C110.012 33.8623 106.484 36.9703 106.484 42.1783C106.484 47.1903 110.012 50.2143 116.004 50.2983V51.9783H119.924V50.2983C125.916 50.2143 129.444 47.1903 129.444 42.1783ZM110.404 42.1783C110.404 38.9863 112.168 37.5023 116.004 37.4183V46.6583C112.168 46.6023 110.404 45.1743 110.404 42.1783ZM119.924 46.6583V37.4183C123.76 37.5023 125.524 38.9863 125.524 42.1783C125.524 45.1743 123.76 46.6023 119.924 46.6583Z" fill="#F4F4F4"/>
<path d="M139.253 32.3783H129.453V36.2983H132.421V51.9783H136.341V36.2983H139.253V32.3783Z" fill="#F4F4F4"/>
<path d="M148.158 32.3783L140.878 42.1783H144.238L137.014 51.9783H141.774L146.142 46.0703H151.994V51.9783H155.914V32.3783H148.158ZM151.994 33.6383V42.1503H145.666L151.994 33.6383Z" fill="#F4F4F4"/>
<path d="M178.967 32.4343L175.243 37.4463V32.4343H167.487L160.207 42.2343H163.707L156.483 52.0343H161.243L168.467 42.2343H164.967L171.323 33.6943V42.2343H175.271L168.047 52.0343H172.807L180.031 42.2343H176.447L182.803 33.6943V52.0343H186.723V32.4343H178.967Z" fill="#F4F4F4"/>
<path d="M205.878 32.3783L192.886 50.0743V32.3783H188.966V51.9783H196.246L209.126 34.4503V51.9783H213.046V32.3783H205.878Z" fill="#F4F4F4"/>
</svg>
