<svg width="90" height="91" viewBox="0 0 90 91" fill="none" xmlns="http://www.w3.org/2000/svg">
<path fill-rule="evenodd" clip-rule="evenodd" d="M10.4742 0H0V10.3474V20.6947V25.8684H5.23708V31.0421V33.6289V38.8026V56.9104H0V64.6709H5.23708V56.9104H15.7112V38.8026H18.3298V36.2157H23.5669V31.0421H34.041V36.2157H39.2781V54.3236H34.041V69.8446H39.2781V75.0183H44.5152H49.7522V69.8446H54.9893V54.3236H49.7522V36.2157H54.9893V31.0421H65.4635V36.2157H70.7006V38.8026H73.3191V56.9104H83.7933V64.6709H89.0303V56.9104H83.7933V38.8026V33.6289V31.0421V25.8684H89.0303V20.6947V10.3474V0H78.5562V5.17368H70.7006V10.3474H65.4635V15.521H54.9893V20.6947H44.5152H34.041V15.521H23.5669V10.3474H18.3298V5.17368H10.4742V0ZM23.5669 15.521V20.6947V25.8684H13.0927V31.0421H10.4742V25.8684V20.6947H5.23708V10.3474H10.4742H15.7112V15.521H23.5669ZM65.4635 15.521V20.6947V25.8684H75.9376V31.0421H78.5562V25.8684V20.6947H83.7933V10.3474H78.5562H73.3191V15.521H65.4635ZM23.5669 41.3894H34.041V51.7368H23.5669V41.3894ZM23.5669 75.0183H28.8039V80.192H23.5669V75.0183ZM44.5152 80.192H28.8039V85.3656H34.041V90.5393H44.5152H54.9893V85.3656H60.2264V80.192H65.4635V75.0183H60.2264V80.192H44.5152ZM10.4742 64.6709H23.5669V69.8446H10.4742V64.6709ZM65.4635 41.3894H54.9893V51.7368H65.4635V41.3894ZM78.5562 64.6709H65.4635V69.8446H78.5562V64.6709Z" fill="#252525"/>
</svg>
