<svg width="72" height="73" viewBox="0 0 72 73" fill="none" xmlns="http://www.w3.org/2000/svg">
<path fill-rule="evenodd" clip-rule="evenodd" d="M8.72999 0H0.396484V8.23261V16.4652V20.5815H4.56323V24.6978V26.756V30.8723V45.2794H0.396484V51.4538H4.56323V45.2794H12.8967V30.8723H14.9801V28.8141H19.1469V24.6978H27.4804V28.8141H31.6471V43.2212H27.4804V55.5701H31.6471V59.6864H35.8139H39.9806V55.5701H44.1474V43.2212H39.9806V28.8141H44.1474V24.6978H52.4809V28.8141H56.6476V30.8723H58.731V45.2794H67.0645V51.4538H71.2312V45.2794H67.0645V30.8723V26.756V24.6978V20.5815H71.2312V16.4652V8.23261V0H62.8977V4.1163H56.6476V8.23261H52.4809V12.3489H44.1474V16.4652H35.8139H27.4804V12.3489H19.1469V8.23261H14.9801V4.1163H8.72999V0ZM19.1469 12.3489V16.4652V20.5815H10.8134V24.6978H8.72999V20.5815V16.4652H4.56323V8.23261H8.72999H12.8967V12.3489H19.1469ZM52.4809 12.3489V16.4652V20.5815H60.8144V24.6978H62.8977V20.5815V16.4652H67.0645V8.23261H62.8977H58.731V12.3489H52.4809ZM19.1469 32.9304H27.4804V41.163H19.1469V32.9304ZM19.1469 59.6864H23.3136V63.8027H19.1469V59.6864ZM35.8139 63.8027H23.3136V67.919H27.4804V72.0353H35.8139H44.1474V67.919H48.3141V63.8027H52.4809V59.6864H48.3141V63.8027H35.8139ZM8.72999 51.4538H19.1469V55.5701H8.72999V51.4538ZM52.4809 32.9304H44.1474V41.163H52.4809V32.9304ZM62.8977 51.4538H52.4809V55.5701H62.8977V51.4538Z" fill="#252525"/>
</svg>
