<svg width="89" height="91" viewBox="0 0 89 91" fill="none" xmlns="http://www.w3.org/2000/svg">
<path fill-rule="evenodd" clip-rule="evenodd" d="M10.8806 0H0.583984V10.3474V20.6947V25.8684H5.7323V31.0421V33.6289V38.8026V56.9104H0.583984V64.6709H5.7323V56.9104H16.0289V38.8026H18.6031V36.2157H23.7514V31.0421H34.048V36.2157H39.1963V54.3236H34.048V69.8446H39.1963V75.0183H44.3447H49.493V69.8446H54.6413V54.3236H49.493V36.2157H54.6413V31.0421H64.9379V36.2157H70.0862V38.8026H72.6604V56.9104H82.957V64.6709H88.1053V56.9104H82.957V38.8026V33.6289V31.0421V25.8684H88.1053V20.6947V10.3474V0H77.8087V5.17368H70.0862V10.3474H64.9379V15.521H54.6413V20.6947H44.3447H34.048V15.521H23.7514V10.3474H18.6031V5.17368H10.8806V0ZM23.7514 15.521V20.6947V25.8684H13.4548V31.0421H10.8806V25.8684V20.6947H5.7323V10.3474H10.8806H16.0289V15.521H23.7514ZM64.9379 15.521V20.6947V25.8684H75.2345V31.0421H77.8087V25.8684V20.6947H82.957V10.3474H77.8087H72.6604V15.521H64.9379ZM23.7514 41.3894H34.048V51.7368H23.7514V41.3894ZM23.7514 75.0183H28.8997V80.192H23.7514V75.0183ZM44.3447 80.192H28.8997V85.3656H34.048V90.5393H44.3447H54.6413V85.3656H59.7896V80.192H64.9379V75.0183H59.7896V80.192H44.3447ZM10.8806 64.6709H23.7514V69.8446H10.8806V64.6709ZM64.9379 41.3894H54.6413V51.7368H64.9379V41.3894ZM77.8087 64.6709H64.9379V69.8446H77.8087V64.6709Z" fill="#FBE44E"/>
</svg>
