<svg width="404" height="651" viewBox="0 0 404 651" fill="none" xmlns="http://www.w3.org/2000/svg">
<g clip-path="url(#clip0_255_2392)">
<path d="M-37.1424 -12.1886C-69.2187 17.7214 17.7801 69.6269 -9.87193 95.4114C-29.7814 113.976 -87.329 76.6537 -123.461 110.345C-143.37 128.91 -146.045 174.828 -111.666 211.698C-96.8829 227.552 -96.9078 228.264 -110.918 241.328C-135.252 264.018 -179.979 288.493 -188.827 296.744C-201.363 308.433 -199.185 327.77 -188.528 339.199C-177.87 350.629 -159.077 353.782 -146.541 342.093C-138.061 334.186 -110.399 287.714 -87.5403 266.399C-73.5299 253.335 -73.1612 252.991 -56.3154 271.057C-21.9361 307.927 23.688 308.808 43.9661 289.899C80.0981 256.208 46.8844 196.195 66.7939 177.63C94.4459 151.846 136.464 245.694 172.227 212.346C189.187 196.532 192.366 177.025 169.676 152.692C144.235 125.408 100.997 117.477 72.2391 144.293C35.0011 179.016 49.1865 211.969 13.7919 244.973C-9.06714 266.288 -50.1223 267.35 -78.3133 237.117C-106.848 206.516 -103.61 164.898 -80.7511 143.583C-45.3565 110.578 -13.4737 127.03 23.7644 92.3068C52.5225 65.491 47.6291 21.8052 22.1884 -5.47819C-0.501904 -29.812 -20.1824 -28.0031 -37.1424 -12.1886Z" fill="#9FA49F"/>
<path d="M-51.907 388.924C-83.9834 418.834 3.01546 470.739 -24.6366 496.524C-44.5461 515.088 -102.094 477.766 -138.226 511.458C-158.135 530.023 -160.81 575.941 -126.431 612.81C-111.648 628.664 -111.672 629.376 -125.683 642.44C-150.017 665.131 -194.743 689.605 -203.592 697.856C-216.128 709.545 -213.95 728.882 -203.293 740.311C-192.635 751.741 -173.841 754.894 -161.306 743.205C-152.826 735.298 -125.164 688.827 -102.305 667.512C-88.2946 654.447 -87.9259 654.104 -71.08 672.17C-36.7007 709.039 8.9233 709.92 29.2015 691.012C65.3335 657.32 32.1197 597.307 52.0292 578.742C79.6812 552.958 121.699 646.806 157.463 613.458C174.423 597.644 177.601 578.138 154.911 553.804C129.47 526.52 86.2326 518.589 57.4745 545.405C20.2364 580.128 34.4219 613.082 -0.972763 646.086C-23.8318 667.401 -64.8869 668.463 -93.0779 638.23C-121.613 607.628 -118.375 566.01 -95.5158 544.695C-60.1212 511.691 -28.2384 528.142 8.99972 493.419C37.7578 466.603 32.8644 422.917 7.42377 395.634C-15.2666 371.3 -34.9471 373.109 -51.907 388.924Z" fill="#9FA49F"/>
<path d="M158.474 484.429C168.956 527.016 256.683 476.35 265.719 513.062C272.226 539.495 211.588 571.553 223.396 619.524C229.902 645.957 268.693 670.674 317.643 658.625C338.691 653.444 339.301 653.813 343.88 672.414C351.832 704.721 351.402 755.704 354.294 767.452C358.391 784.095 376.337 791.619 391.511 787.884C406.686 784.148 418.599 769.275 414.503 752.632C411.732 741.374 384.636 694.57 377.166 664.221C372.587 645.62 372.467 645.13 396.452 639.226C445.403 627.177 468.409 587.769 461.783 560.847C449.975 512.875 381.384 512.626 374.878 486.193C365.841 449.481 468.267 458.534 456.58 411.052C451.038 388.535 435.554 376.252 403.247 384.204C367.024 393.12 339.025 427.009 348.423 465.19C360.592 514.629 396.28 518.305 407.847 565.297C415.317 595.646 396.234 632.012 356.095 641.892C315.466 651.892 280.705 628.78 273.234 598.431C261.667 551.439 291.572 531.618 279.403 482.179C270.005 443.998 229.474 426.978 193.251 435.894C160.944 443.846 152.931 461.912 158.474 484.429Z" fill="#9FA49F"/>
<path d="M93.8906 62.9469C116.922 100.271 184.896 25.1546 204.75 57.3304C219.045 80.497 171.152 129.598 197.095 171.641C211.39 194.807 255.889 206.445 298.79 179.972C317.238 168.589 317.932 168.753 327.991 185.056C345.463 213.37 360.68 262.032 367.034 272.328C376.034 286.914 395.422 288.575 408.722 280.369C422.021 272.162 428.803 254.353 419.802 239.767C413.713 229.9 373.577 193.653 357.164 167.055C347.104 150.752 346.84 150.323 367.861 137.352C410.762 110.879 420.583 66.3161 406.023 42.7205C380.08 0.677445 314.715 21.4636 300.42 -1.70297C280.565 -33.8788 380.836 -56.6557 355.158 -98.2698C342.981 -118.004 324.478 -124.95 296.163 -107.478C264.417 -87.8889 248.151 -47.0497 268.8 -13.5869C295.537 29.7432 330.634 22.303 356.048 63.488C372.46 90.0867 365.442 130.551 330.263 152.259C294.655 174.231 254.482 162.886 238.07 136.287C212.656 95.102 235.046 67.0692 208.309 23.7391C187.661 -9.72366 143.865 -13.5016 112.118 6.08796C83.8031 23.5597 81.7133 43.2124 93.8906 62.9469Z" fill="#9FA49F"/>
</g>
<defs>
<clipPath id="clip0_255_2392">
<rect width="402.589" height="649.394" fill="white" transform="translate(0.677734 0.833008)"/>
</clipPath>
</defs>
</svg>
