<svg width="404" height="651" viewBox="0 0 404 651" fill="none" xmlns="http://www.w3.org/2000/svg">
<g clip-path="url(#clip0_255_2023)">
<path d="M-37.3182 -12.1886C-69.3945 17.7214 17.6043 69.6269 -10.0477 95.4114C-29.9572 113.976 -87.5047 76.6537 -123.637 110.345C-143.546 128.91 -146.221 174.828 -111.842 211.698C-97.0587 227.552 -97.0836 228.264 -111.094 241.328C-135.428 264.018 -180.155 288.493 -189.003 296.744C-201.539 308.433 -199.361 327.77 -188.704 339.199C-178.046 350.629 -159.252 353.782 -146.717 342.093C-138.237 334.186 -110.575 287.714 -87.7161 266.399C-73.7057 253.335 -73.337 252.991 -56.4912 271.057C-22.1119 307.927 23.5122 308.808 43.7903 289.899C79.9223 256.208 46.7086 196.195 66.6181 177.63C94.2701 151.846 136.288 245.694 172.052 212.346C189.012 196.532 192.19 177.025 169.5 152.692C144.059 125.408 100.821 117.477 72.0634 144.293C34.8253 179.016 49.0107 211.969 13.6161 244.973C-9.24292 266.288 -50.2981 267.35 -78.4891 237.117C-107.024 206.516 -103.786 164.898 -80.9269 143.583C-45.5323 110.578 -13.6495 127.03 23.5886 92.3068C52.3467 65.491 47.4533 21.8052 22.0126 -5.47819C-0.677685 -29.812 -20.3582 -28.0031 -37.3182 -12.1886Z" fill="#D7B47F"/>
<path d="M-52.0828 388.924C-84.1592 418.834 2.83968 470.739 -24.8124 496.524C-44.7218 515.088 -102.269 477.766 -138.401 511.458C-158.311 530.023 -160.986 575.941 -126.606 612.81C-111.823 628.664 -111.848 629.376 -125.859 642.44C-150.192 665.131 -194.919 689.605 -203.768 697.856C-216.303 709.545 -214.126 728.882 -203.468 740.311C-192.811 751.741 -174.017 754.894 -161.481 743.205C-153.001 735.298 -125.34 688.827 -102.481 667.512C-88.4703 654.447 -88.1017 654.104 -71.2558 672.17C-36.8765 709.039 8.74752 709.92 29.0257 691.012C65.1577 657.32 31.9439 597.307 51.8534 578.742C79.5055 552.958 121.524 646.806 157.287 613.458C174.247 597.644 177.425 578.138 154.735 553.804C129.294 526.52 86.0568 518.589 57.2987 545.405C20.0606 580.128 34.2461 613.082 -1.14854 646.086C-24.0076 667.401 -65.0627 668.463 -93.2537 638.23C-121.789 607.628 -118.551 566.01 -95.6915 544.695C-60.2969 511.691 -28.4142 528.142 8.82393 493.419C37.582 466.603 32.6887 422.917 7.24799 395.634C-15.4423 371.3 -35.1229 373.109 -52.0828 388.924Z" fill="#D7B47F"/>
<path d="M158.298 484.429C168.781 527.016 256.507 476.35 265.544 513.062C272.05 539.495 211.412 571.553 223.22 619.524C229.726 645.957 268.517 670.674 317.467 658.625C338.516 653.444 339.126 653.813 343.704 672.414C351.656 704.721 351.227 755.704 354.118 767.452C358.215 784.095 376.161 791.619 391.335 787.884C406.51 784.148 418.424 769.275 414.327 752.632C411.556 741.374 384.46 694.57 376.99 664.221C372.412 645.62 372.291 645.13 396.277 639.226C445.227 627.177 468.234 587.769 461.607 560.847C449.799 512.875 381.209 512.626 374.702 486.193C365.666 449.481 468.092 458.534 456.404 411.052C450.862 388.535 435.379 376.252 403.072 384.204C366.848 393.12 338.849 427.009 348.247 465.19C360.416 514.629 396.104 518.305 407.671 565.297C415.142 595.646 396.058 632.012 355.919 641.892C315.291 651.892 280.529 628.78 273.059 598.431C261.492 551.439 291.397 531.618 279.227 482.179C269.829 443.998 229.299 426.978 193.076 435.894C160.769 443.846 152.756 461.912 158.298 484.429Z" fill="#D7B47F"/>
<path d="M93.7138 62.9469C116.745 100.271 184.719 25.1546 204.574 57.3304C218.869 80.497 170.975 129.598 196.918 171.641C211.213 194.807 255.713 206.445 298.614 179.972C317.061 168.589 317.755 168.753 327.814 185.056C345.286 213.37 360.504 262.032 366.857 272.328C375.858 286.914 395.246 288.575 408.545 280.369C421.844 272.162 428.626 254.353 419.625 239.767C413.537 229.9 373.4 193.653 356.987 167.055C346.927 150.752 346.663 150.323 367.684 137.352C410.585 110.879 420.406 66.3161 405.846 42.7205C379.903 0.677445 314.538 21.4636 300.243 -1.70297C280.389 -33.8788 380.659 -56.6557 354.981 -98.2698C342.804 -118.004 324.301 -124.95 295.987 -107.478C264.24 -87.8889 247.975 -47.0497 268.623 -13.5869C295.36 29.7432 330.457 22.303 355.871 63.488C372.284 90.0867 365.265 130.551 330.086 152.259C294.478 174.231 254.306 162.886 237.893 136.287C212.479 95.102 234.87 67.0692 208.133 23.7391C187.484 -9.72366 143.688 -13.5016 111.941 6.08796C83.6263 23.5597 81.5365 43.2124 93.7138 62.9469Z" fill="#D7B47F"/>
</g>
<defs>
<clipPath id="clip0_255_2023">
<rect width="402.589" height="649.394" fill="white" transform="translate(0.5 0.833008)"/>
</clipPath>
</defs>
</svg>
