<svg width="403" height="651" viewBox="0 0 403 651" fill="none" xmlns="http://www.w3.org/2000/svg">
<g clip-path="url(#clip0_255_2359)">
<path d="M-37.7312 -12.1886C-69.8076 17.7214 17.1912 69.6269 -10.4608 95.4114C-30.3703 113.976 -87.9178 76.6537 -124.05 110.345C-143.959 128.91 -146.634 174.828 -112.255 211.698C-97.4718 227.552 -97.4967 228.264 -111.507 241.328C-135.841 264.018 -180.568 288.493 -189.416 296.744C-201.952 308.433 -199.774 327.77 -189.117 339.199C-178.459 350.629 -159.665 353.782 -147.13 342.093C-138.65 334.186 -110.988 287.714 -88.1292 266.399C-74.1188 253.335 -73.7501 252.991 -56.9042 271.057C-22.525 307.927 23.0991 308.808 43.3773 289.899C79.5093 256.208 46.2955 196.195 66.205 177.63C93.857 151.846 135.875 245.694 171.639 212.346C188.598 196.532 191.777 177.025 169.087 152.692C143.646 125.408 100.408 117.477 71.6503 144.293C34.4122 179.016 48.5976 211.969 13.203 244.973C-9.65601 266.288 -50.7112 267.35 -78.9022 237.117C-107.437 206.516 -104.199 164.898 -81.34 143.583C-45.9454 110.578 -14.0626 127.03 23.1755 92.3068C51.9336 65.491 47.0402 21.8052 21.5996 -5.47819C-1.09077 -29.812 -20.7713 -28.0031 -37.7312 -12.1886Z" fill="#222222"/>
<path d="M-52.4959 388.924C-84.5723 418.834 2.4266 470.739 -25.2254 496.524C-45.1349 515.088 -102.682 477.766 -138.814 511.458C-158.724 530.023 -161.399 575.941 -127.02 612.81C-112.236 628.664 -112.261 629.376 -126.272 642.44C-150.605 665.131 -195.332 689.605 -204.181 697.856C-216.717 709.545 -214.539 728.882 -203.881 740.311C-193.224 751.741 -174.43 754.894 -161.894 743.205C-153.415 735.298 -125.753 688.827 -102.894 667.512C-88.8834 654.447 -88.5147 654.104 -71.6689 672.17C-37.2896 709.039 8.33444 709.92 28.6126 691.012C64.7446 657.32 31.5309 597.307 51.4403 578.742C79.0924 552.958 121.111 646.806 156.874 613.458C173.834 597.644 177.012 578.138 154.322 553.804C128.881 526.52 85.6437 518.589 56.8856 545.405C19.6475 580.128 33.833 613.082 -1.56163 646.086C-24.4207 667.401 -65.4758 668.463 -93.6668 638.23C-122.202 607.628 -118.964 566.01 -96.1046 544.695C-60.71 511.691 -28.8272 528.142 8.41085 493.419C37.169 466.603 32.2756 422.917 6.8349 395.634C-15.8554 371.3 -35.536 373.109 -52.4959 388.924Z" fill="#222222"/>
<path d="M157.887 484.429C168.369 527.016 256.096 476.35 265.132 513.062C271.639 539.495 211.001 571.553 222.809 619.524C229.315 645.957 268.106 670.674 317.056 658.625C338.104 653.444 338.714 653.813 343.293 672.414C351.245 704.721 350.816 755.704 353.707 767.452C357.804 784.095 375.75 791.619 390.924 787.884C406.099 784.148 418.013 769.275 413.916 752.632C411.145 741.374 384.049 694.57 376.579 664.221C372.001 645.62 371.88 645.13 395.866 639.226C444.816 627.177 467.822 587.769 461.196 560.847C449.388 512.875 380.798 512.626 374.291 486.193C365.255 449.481 467.68 458.534 455.993 411.052C450.451 388.535 434.967 376.252 402.66 384.204C366.437 393.12 338.438 427.009 347.836 465.19C360.005 514.629 395.693 518.305 407.26 565.297C414.731 595.646 395.647 632.012 355.508 641.892C314.88 651.892 280.118 628.78 272.647 598.431C261.081 551.439 290.985 531.618 278.816 482.179C269.418 443.998 228.888 426.978 192.664 435.894C160.357 443.846 152.345 461.912 157.887 484.429Z" fill="#222222"/>
<path d="M93.3017 62.9469C116.333 100.271 184.307 25.1546 204.161 57.3304C218.457 80.497 170.563 129.598 196.506 171.641C210.801 194.807 255.3 206.445 298.201 179.972C316.649 168.589 317.343 168.753 327.402 185.056C344.874 213.37 360.092 262.032 366.445 272.328C375.446 286.914 394.833 288.575 408.133 280.369C421.432 272.162 428.214 254.353 419.213 239.767C413.125 229.9 372.988 193.653 356.575 167.055C346.515 150.752 346.251 150.323 367.272 137.352C410.173 110.879 419.994 66.3161 405.434 42.7205C379.491 0.677445 314.126 21.4636 299.831 -1.70297C279.977 -33.8788 380.247 -56.6557 354.569 -98.2698C342.392 -118.004 323.889 -124.95 295.574 -107.478C263.828 -87.8889 247.563 -47.0497 268.211 -13.5869C294.948 29.7432 330.045 22.303 355.459 63.488C371.872 90.0867 364.853 130.551 329.674 152.259C294.066 174.231 253.894 162.886 237.481 136.287C212.067 95.102 234.458 67.0692 207.721 23.7391C187.072 -9.72366 143.276 -13.5016 111.529 6.08796C83.2142 23.5597 81.1244 43.2124 93.3017 62.9469Z" fill="#222222"/>
</g>
<defs>
<clipPath id="clip0_255_2359">
<rect width="402.589" height="649.394" fill="white" transform="translate(0.0888672 0.833008)"/>
</clipPath>
</defs>
</svg>
