<svg width="403" height="651" viewBox="0 0 403 651" fill="none" xmlns="http://www.w3.org/2000/svg">
<g clip-path="url(#clip0_255_2425)">
<path d="M1.21167 278.49C46.6116 285.783 95.0358 288.189 139.279 246.934C174.674 213.93 175.53 169.018 141.494 132.517C105.052 93.4359 68.2522 85.0162 47.2366 104.612C26.5897 123.865 39.9631 159.643 67.4167 190.564L68.5228 189.532C66.101 166.977 72.3487 151.502 81.5661 142.907C98.8947 126.748 124.445 130.495 141.634 148.93C161.918 170.683 165.954 208.275 132.403 239.56C91.8469 277.377 44.9722 271.459 -1.85273 264.115C-7.19919 243.598 -15.6647 220.475 -29.018 194.327C7.31323 154.935 31.6318 112.271 38.9952 75.0767C71.1567 73.3473 105.062 72.7489 132.566 102.244L133.303 101.557C103.737 69.8492 70.2747 67.9663 39.9069 69.4017C43.6533 43.8518 38.3815 21.1968 22.9109 4.60557C1.59572 -18.2535 -26.535 -19.5933 -48.288 0.690481C-64.5105 15.8174 -63.4888 37.6105 -46.643 55.6765C-32.8912 70.4242 -15.941 75.2968 2.21501 76.288C-6.4441 99.5261 -27.9777 123.741 -58.6492 144.07C-67.1444 132.003 -75.6148 119.223 -85.8538 106.024L-87.6973 107.743C-78.1956 121.629 -69.7253 134.409 -62.6551 146.427C-75.4349 154.897 -90.3272 162.58 -105.882 168.813L-56.7198 221.536C-49.346 214.661 -42.3408 208.129 -35.3107 200.884C-26.1327 224.032 -20.7613 243.837 -18.8777 261.38C-62.5089 254.505 -105.183 250.874 -141.315 284.565C-174.867 315.851 -177.243 353.219 -148.364 384.189C-116.047 418.846 -62.2423 420.37 -25.3729 385.991C-5.46343 367.426 10.719 333.037 1.21167 278.49ZM-34.8745 55.7311C-46.5634 43.1955 -46.0156 27.5208 -37.9043 19.9573C-28.3183 11.0187 -16.5498 11.0734 -7.2674 21.0281C5.79673 35.0385 9.10533 52.6313 3.83919 70.6379C-11.123 70.115 -24.5607 66.7919 -34.8745 55.7311ZM-135.306 357.538C-151.808 339.841 -155.136 312.617 -130.065 289.239C-100.201 261.392 -60.8446 268.117 -17.9508 275.68C-16.7395 312.46 -30.0671 336.605 -45.1835 350.701C-77.9973 381.298 -116.397 377.816 -135.306 357.538Z" fill="#D7B47F"/>
<path d="M-13.5549 679.602C31.845 686.896 80.2692 689.301 124.512 648.046C159.907 615.042 160.763 570.13 126.728 533.63C90.2859 494.548 53.4856 486.128 32.47 505.725C11.8231 524.977 25.1965 560.756 52.6501 591.676L53.7562 590.645C51.3344 568.089 57.5821 552.614 66.7995 544.019C84.1281 527.861 109.678 531.607 126.868 550.042C147.151 571.795 151.188 609.387 117.637 640.672C77.0803 678.489 30.2056 672.571 -16.6193 665.228C-21.9658 644.71 -30.4313 621.587 -43.7846 595.439C-7.45337 556.048 16.8652 513.383 24.2286 476.189C56.3901 474.46 90.2955 473.861 117.799 503.357L118.536 502.669C88.9701 470.961 55.5081 469.079 25.1403 470.514C28.8867 444.964 23.6149 422.309 8.14427 405.718C-13.1709 382.859 -41.3016 381.519 -63.0546 401.803C-79.2771 416.93 -78.2554 438.723 -61.4096 456.789C-47.6578 471.537 -30.7076 476.409 -12.5516 477.4C-21.2107 500.638 -42.7444 524.853 -73.4158 545.182C-81.911 533.115 -90.3814 520.335 -100.62 507.137L-102.464 508.856C-92.9622 522.742 -84.4919 535.521 -77.4217 547.539C-90.2015 556.009 -105.094 563.692 -120.649 569.926L-71.4864 622.649C-64.1126 615.773 -57.1074 609.241 -50.0773 601.996C-40.8993 625.144 -35.5279 644.95 -33.6443 662.493C-77.2755 655.618 -119.95 651.986 -156.082 685.678C-189.633 716.963 -192.009 754.331 -163.131 785.301C-130.814 819.959 -77.0089 821.482 -40.1395 787.103C-20.23 768.538 -4.04763 734.149 -13.5549 679.602ZM-49.6411 456.843C-61.33 444.308 -60.7822 428.633 -52.6709 421.07C-43.0849 412.131 -31.3164 412.186 -22.034 422.14C-8.96987 436.151 -5.66127 453.744 -10.9274 471.75C-25.8896 471.227 -39.3273 467.904 -49.6411 456.843ZM-150.072 758.65C-166.574 740.953 -169.903 713.729 -144.832 690.351C-114.967 662.504 -75.6112 669.229 -32.7174 676.792C-31.5061 713.572 -44.8337 737.717 -59.9502 751.813C-92.7639 782.41 -131.164 778.928 -150.072 758.65Z" fill="#D7B47F"/>
<path d="M430.771 592.26C459.268 556.173 484.971 515.063 470.512 456.323C458.945 409.331 420.147 386.693 371.687 398.621C319.799 411.393 294.511 439.422 301.379 467.324C308.126 494.736 345.885 500.497 386.265 491.596L385.904 490.128C365.029 481.249 354.561 468.251 351.549 456.013C345.886 433.007 361.61 412.523 386.085 406.499C414.966 399.39 449.758 414.188 460.722 458.733C473.976 512.578 445.961 550.623 416.727 587.93C396.205 582.598 371.888 578.72 342.548 577.635C325.861 526.712 300.46 484.682 271.572 460.124C285.738 431.199 301.741 401.302 340.901 391.663L340.66 390.684C298.563 401.046 280.609 429.346 267.061 456.562C246.577 440.838 224.226 434.399 202.199 439.821C171.85 447.291 156.969 471.201 164.077 500.082C169.379 521.62 188.906 531.35 212.892 525.446C232.472 520.626 244.988 508.2 254.703 492.83C270.773 511.718 281.422 542.323 284.223 579.013C269.545 580.549 254.258 581.716 237.743 584.224L238.345 586.671C255.101 585.142 270.389 583.975 284.328 583.659C285.495 598.947 284.945 615.695 282.806 632.315L352.805 615.086C350.395 605.296 348.106 595.995 345.207 586.325C369.893 589.594 389.804 594.557 406.04 601.463C378.771 636.21 354.8 671.702 366.608 719.673C377.573 764.218 409.044 784.506 450.162 774.385C496.175 763.059 523.73 716.82 511.681 667.87C505.175 641.437 483.035 610.546 430.771 592.26ZM218.675 515.196C202.032 519.293 188.613 511.175 185.962 500.406C182.829 487.679 188.613 477.429 201.829 474.176C220.43 469.598 237.405 475.283 250.561 488.658C242.812 501.468 233.36 511.582 218.675 515.196ZM433.255 749.992C409.759 755.776 384.366 745.413 376.172 712.127C366.413 672.478 391.468 641.391 418.978 607.623C451.684 624.492 466.271 647.898 471.211 667.968C481.934 711.533 460.178 743.366 433.255 749.992Z" fill="#D7B47F"/>
<path d="M386.113 82.002C402.177 38.9173 414.042 -8.09229 382.275 -59.5736C356.862 -100.759 312.992 -110.415 270.52 -84.2073C225.045 -56.1466 209.565 -21.7153 224.654 2.73832C239.479 26.7629 277.186 20.6736 312.895 -0.175759L312.101 -1.46277C289.509 -3.51602 275.561 -12.6802 268.943 -23.4055C256.501 -43.569 265.19 -67.8863 286.64 -81.1224C311.952 -96.7411 349.605 -93.3191 373.695 -54.2791C402.815 -7.08793 387.809 37.7128 371.417 82.1849C350.249 83.3995 325.913 87.1609 297.653 95.1212C266.161 51.7639 229.1 19.5429 194.075 5.02107C198.693 -26.8541 204.763 -60.2172 239.083 -81.3951L238.554 -82.2531C201.659 -59.4869 193.244 -27.0456 188.69 3.01304C164.372 -5.67621 141.123 -4.95451 121.818 6.95805C95.2192 23.3709 88.383 50.6913 104.002 76.0029C115.65 94.8794 137.219 98.1558 158.241 85.1843C175.401 74.5954 183.506 58.9315 188.043 41.3234C209.129 54.376 228.645 80.2443 242.557 114.31C229.057 120.271 214.863 126.067 199.911 133.516L201.235 135.661C216.716 129.07 230.91 123.274 244.082 118.7C249.878 132.894 254.488 149.005 257.547 165.481L318.895 127.626C313.601 119.045 308.571 110.894 302.847 102.579C327.347 98.1236 347.821 96.7447 365.392 98.3417C350.086 139.774 338.147 180.905 364.09 222.948C388.18 261.988 424.355 271.654 460.392 249.417C500.719 224.533 512.775 172.074 486.303 129.173C472.008 106.007 441.465 83.3881 386.113 82.002ZM160.605 73.6556C146.018 82.6562 130.756 79.0418 124.932 69.6036C118.049 58.4493 120.413 46.9206 131.996 39.773C148.299 29.7135 166.199 29.923 182.821 38.6216C179.371 53.1901 173.475 65.7139 160.605 73.6556ZM436.823 231.381C416.23 244.088 388.883 242.007 370.881 212.834C349.439 178.085 363.76 140.814 379.596 100.24C415.898 106.273 436.957 124.081 447.811 141.67C471.371 179.852 460.418 216.821 436.823 231.381Z" fill="#D7B47F"/>
</g>
<defs>
<clipPath id="clip0_255_2425">
<rect width="402.589" height="649.394" fill="white" transform="translate(0.266602 0.833008)"/>
</clipPath>
</defs>
</svg>
