<svg width="404" height="651" viewBox="0 0 404 651" fill="none" xmlns="http://www.w3.org/2000/svg">
<g clip-path="url(#clip0_255_2761)">
<path d="M1.79858 278.49C47.1985 285.783 95.6227 288.189 139.866 246.934C175.261 213.93 176.117 169.018 142.081 132.517C105.639 93.4359 68.8391 85.0162 47.8235 104.612C27.1766 123.865 40.55 159.643 68.0036 190.564L69.1097 189.532C66.6879 166.977 72.9357 151.502 82.153 142.907C99.4816 126.748 125.032 130.495 142.221 148.93C162.505 170.683 166.541 208.275 132.99 239.56C92.4338 277.377 45.5591 271.459 -1.26582 264.115C-6.61228 243.598 -15.0778 220.475 -28.4311 194.327C7.90015 154.935 32.2187 112.271 39.5821 75.0767C71.7436 73.3473 105.649 72.7489 133.152 102.244L133.89 101.557C104.324 69.8492 70.8617 67.9663 40.4938 69.4017C44.2402 43.8518 38.9685 21.1968 23.4978 4.60557C2.18264 -18.2535 -25.9481 -19.5933 -47.7011 0.690481C-63.9236 15.8174 -62.9019 37.6105 -46.056 55.6765C-32.3043 70.4242 -15.3541 75.2968 2.80192 76.288C-5.85718 99.5261 -27.3908 123.741 -58.0623 144.07C-66.5575 132.003 -75.0278 119.223 -85.2669 106.024L-87.1104 107.743C-77.6087 121.629 -69.1384 134.409 -62.0682 146.427C-74.8479 154.897 -89.7403 162.58 -105.295 168.813L-56.1329 221.536C-48.759 214.661 -41.7539 208.129 -34.7238 200.884C-25.5458 224.032 -20.1744 243.837 -18.2908 261.38C-61.922 254.505 -104.596 250.874 -140.729 284.565C-174.28 315.851 -176.656 353.219 -147.777 384.189C-115.461 418.846 -61.6554 420.37 -24.786 385.991C-4.87652 367.426 11.3059 333.037 1.79858 278.49ZM-34.2875 55.7311C-45.9765 43.1955 -45.4287 27.5208 -37.3174 19.9573C-27.7314 11.0187 -15.9629 11.0734 -6.68048 21.0281C6.38365 35.0385 9.69225 52.6313 4.4261 70.6379C-10.5361 70.115 -23.9738 66.7919 -34.2875 55.7311ZM-134.719 357.538C-151.221 339.841 -154.549 312.617 -129.478 289.239C-99.6139 261.392 -60.2577 268.117 -17.3639 275.68C-16.1526 312.46 -29.4802 336.605 -44.5966 350.701C-77.4104 381.298 -115.81 377.816 -134.719 357.538Z" fill="#222222"/>
<path d="M-12.9661 679.602C32.4339 686.896 80.8581 689.301 125.101 648.046C160.496 615.042 161.352 570.13 127.317 533.63C90.8747 494.548 54.0744 486.128 33.0589 505.725C12.412 524.977 25.7854 560.756 53.239 591.676L54.3451 590.645C51.9233 568.089 58.171 552.614 67.3883 544.019C84.717 527.861 110.267 531.607 127.457 550.042C147.74 571.795 151.777 609.387 118.225 640.672C77.6691 678.489 30.7944 672.571 -16.0305 665.228C-21.3769 644.71 -29.8424 621.587 -43.1957 595.439C-6.8645 556.048 17.454 513.383 24.8175 476.189C56.979 474.46 90.8844 473.861 118.388 503.357L119.125 502.669C89.559 470.961 56.097 469.079 25.7292 470.514C29.4756 444.964 24.2038 422.309 8.73314 405.718C-12.582 382.859 -40.7128 381.519 -62.4657 401.803C-78.6883 416.93 -77.6665 438.723 -60.8207 456.789C-47.069 471.537 -30.1187 476.409 -11.9627 477.4C-20.6218 500.638 -42.1555 524.853 -72.827 545.182C-81.3222 533.115 -89.7925 520.335 -100.032 507.137L-101.875 508.856C-92.3734 522.742 -83.903 535.521 -76.8328 547.539C-89.6126 556.009 -104.505 563.692 -120.06 569.926L-70.8976 622.649C-63.5237 615.773 -56.5185 609.241 -49.4884 601.996C-40.3104 625.144 -34.9391 644.95 -33.0555 662.493C-76.6866 655.618 -119.361 651.986 -155.493 685.678C-189.044 716.963 -191.42 754.331 -162.542 785.301C-130.225 819.959 -76.42 821.482 -39.5506 787.103C-19.6412 768.538 -3.45877 734.149 -12.9661 679.602ZM-49.0522 456.843C-60.7411 444.308 -60.1933 428.633 -52.082 421.07C-42.496 412.131 -30.7275 412.186 -21.4451 422.14C-8.381 436.151 -5.0724 453.744 -10.3385 471.75C-25.3008 471.227 -38.7384 467.904 -49.0522 456.843ZM-149.483 758.65C-165.985 740.953 -169.314 713.729 -144.243 690.351C-114.379 662.504 -75.0223 669.229 -32.1285 676.792C-30.9172 713.572 -44.2448 737.717 -59.3613 751.813C-92.175 782.41 -130.575 778.928 -149.483 758.65Z" fill="#222222"/>
<path d="M431.36 592.26C459.857 556.173 485.56 515.063 471.101 456.323C459.534 409.331 420.736 386.693 372.275 398.621C320.388 411.393 295.1 439.422 301.968 467.324C308.715 494.736 346.474 500.497 386.854 491.596L386.493 490.128C365.618 481.249 355.15 468.251 352.138 456.013C346.475 433.007 362.199 412.523 386.674 406.499C415.555 399.39 450.347 414.188 461.311 458.733C474.565 512.578 446.55 550.623 417.315 587.93C396.794 582.598 372.477 578.72 343.137 577.635C326.45 526.712 301.049 484.682 272.161 460.124C286.326 431.199 302.33 401.302 341.49 391.663L341.249 390.684C299.152 401.046 281.198 429.346 267.65 456.562C247.166 440.838 224.815 434.399 202.788 439.821C172.438 447.291 157.557 471.201 164.666 500.082C169.968 521.62 189.495 531.35 213.481 525.446C233.061 520.626 245.577 508.2 255.292 492.83C271.362 511.718 282.01 542.323 284.812 579.013C270.134 580.549 254.847 581.716 238.332 584.224L238.934 586.671C255.69 585.142 270.977 583.975 284.917 583.659C286.084 598.947 285.534 615.695 283.395 632.315L353.394 615.086C350.984 605.296 348.695 595.995 345.796 586.325C370.481 589.594 390.393 594.557 406.629 601.463C379.36 636.21 355.389 671.702 367.197 719.673C378.161 764.218 409.632 784.506 450.75 774.385C496.764 763.059 524.319 716.82 512.27 667.87C505.764 641.437 483.624 610.546 431.36 592.26ZM219.264 515.196C202.621 519.293 189.201 511.175 186.551 500.406C183.418 487.679 189.202 477.429 202.418 474.176C221.019 469.598 237.994 475.283 251.15 488.658C243.4 501.468 233.949 511.582 219.264 515.196ZM433.844 749.992C410.348 755.776 384.954 745.413 376.761 712.127C367.002 672.478 392.057 641.391 419.567 607.623C452.273 624.492 466.86 647.898 471.8 667.968C482.523 711.533 460.767 743.366 433.844 749.992Z" fill="#222222"/>
<path d="M386.7 82.002C402.764 38.9173 414.629 -8.09229 382.862 -59.5736C357.449 -100.759 313.579 -110.415 271.107 -84.2073C225.632 -56.1466 210.152 -21.7153 225.241 2.73832C240.066 26.7629 277.773 20.6736 313.482 -0.175759L312.687 -1.46277C290.096 -3.51602 276.148 -12.6802 269.53 -23.4055C257.088 -43.569 265.777 -67.8863 287.227 -81.1224C312.539 -96.7411 350.192 -93.3191 374.282 -54.2791C403.402 -7.08793 388.396 37.7128 372.003 82.1849C350.836 83.3995 326.5 87.1609 298.24 95.1212C266.747 51.7639 229.687 19.5429 194.662 5.02107C199.28 -26.8541 205.35 -60.2172 239.67 -81.3951L239.141 -82.2531C202.246 -59.4869 193.831 -27.0456 189.277 3.01304C164.959 -5.67621 141.71 -4.95451 122.405 6.95805C95.8062 23.3709 88.9699 50.6913 104.589 76.0029C116.236 94.8794 137.806 98.1558 158.828 85.1843C175.988 74.5954 184.093 58.9315 188.63 41.3234C209.716 54.376 229.232 80.2443 243.144 114.31C229.644 120.271 215.45 126.067 200.498 133.516L201.822 135.661C217.303 129.07 231.497 123.274 244.668 118.7C250.465 132.894 255.075 149.005 258.133 165.481L319.482 127.626C314.187 119.045 309.158 110.894 303.434 102.579C327.934 98.1236 348.408 96.7447 365.979 98.3417C350.673 139.774 338.734 180.905 364.677 222.948C388.767 261.988 424.942 271.654 460.979 249.417C501.306 224.533 513.362 172.074 486.89 129.173C472.595 106.007 442.052 83.3881 386.7 82.002ZM161.191 73.6556C146.605 82.6562 131.343 79.0418 125.519 69.6036C118.636 58.4493 121 46.9206 132.583 39.773C148.886 29.7135 166.786 29.923 183.408 38.6216C179.958 53.1901 174.062 65.7139 161.191 73.6556ZM437.41 231.381C416.817 244.088 389.469 242.007 371.468 212.834C350.026 178.085 364.347 140.814 380.183 100.24C416.485 106.273 437.544 124.081 448.397 141.67C471.958 179.852 461.005 216.821 437.41 231.381Z" fill="#222222"/>
</g>
<defs>
<clipPath id="clip0_255_2761">
<rect width="402.589" height="649.394" fill="white" transform="translate(0.855469 0.833008)"/>
</clipPath>
</defs>
</svg>
