<svg width="404" height="651" viewBox="0 0 404 651" fill="none" xmlns="http://www.w3.org/2000/svg">
<g clip-path="url(#clip0_255_2794)">
<path d="M1.38745 278.49C46.7874 285.783 95.2116 288.189 139.455 246.934C174.849 213.93 175.706 169.018 141.67 132.517C105.228 93.4359 68.4279 85.0162 47.4124 104.612C26.7655 123.865 40.1389 159.643 67.5925 190.564L68.6986 189.532C66.2768 166.977 72.5245 151.502 81.7419 142.907C99.0705 126.748 124.62 130.495 141.81 148.93C162.094 170.683 166.13 208.275 132.579 239.56C92.0227 277.377 45.148 271.459 -1.67695 264.115C-7.02341 243.598 -15.4889 220.475 -28.8422 194.327C7.48901 154.935 31.8075 112.271 39.171 75.0767C71.3325 73.3473 105.238 72.7489 132.741 102.244L133.479 101.557C103.913 69.8492 70.4505 67.9663 40.0827 69.4017C43.8291 43.8518 38.5573 21.1968 23.0867 4.60557C1.77151 -18.2535 -26.3593 -19.5933 -48.1122 0.690481C-64.3348 15.8174 -63.313 37.6105 -46.4672 55.6765C-32.7155 70.4242 -15.7652 75.2968 2.39079 76.288C-6.26832 99.5261 -27.802 123.741 -58.4734 144.07C-66.9687 132.003 -75.439 119.223 -85.6781 106.024L-87.5215 107.743C-78.0198 121.629 -69.5495 134.409 -62.4793 146.427C-75.2591 154.897 -90.1514 162.58 -105.706 168.813L-56.5441 221.536C-49.1702 214.661 -42.165 208.129 -35.1349 200.884C-25.9569 224.032 -20.5856 243.837 -18.7019 261.38C-62.3331 254.505 -105.008 250.874 -141.14 284.565C-174.691 315.851 -177.067 353.219 -148.188 384.189C-115.872 418.846 -62.0665 420.37 -25.1971 385.991C-5.28765 367.426 10.8947 333.037 1.38745 278.49ZM-34.6987 55.7311C-46.3876 43.1955 -45.8398 27.5208 -37.7285 19.9573C-28.1425 11.0187 -16.374 11.0734 -7.09162 21.0281C5.97251 35.0385 9.28111 52.6313 4.01497 70.6379C-10.9473 70.115 -24.3849 66.7919 -34.6987 55.7311ZM-135.13 357.538C-151.632 339.841 -154.96 312.617 -129.889 289.239C-100.025 261.392 -60.6688 268.117 -17.775 275.68C-16.5637 312.46 -29.8913 336.605 -45.0078 350.701C-77.8215 381.298 -116.221 377.816 -135.13 357.538Z" fill="#9FA49F"/>
<path d="M-13.3772 679.602C32.0227 686.896 80.4469 689.301 124.69 648.046C160.085 615.042 160.941 570.13 126.906 533.63C90.4636 494.548 53.6633 486.128 32.6477 505.725C12.0009 524.977 25.3742 560.756 52.8279 591.676L53.9339 590.645C51.5121 568.089 57.7599 552.614 66.9772 544.019C84.3058 527.861 109.856 531.607 127.045 550.042C147.329 571.795 151.365 609.387 117.814 640.672C77.258 678.489 30.3833 672.571 -16.4416 665.228C-21.7881 644.71 -30.2536 621.587 -43.6069 595.439C-7.27563 556.048 17.0429 513.383 24.4064 476.189C56.5679 474.46 90.4732 473.861 117.977 503.357L118.714 502.669C89.1479 470.961 55.6859 469.079 25.3181 470.514C29.0644 444.964 23.7927 422.309 8.32201 405.718C-12.9931 382.859 -41.1239 381.519 -62.8769 401.803C-79.0994 416.93 -78.0777 438.723 -61.2318 456.789C-47.4801 471.537 -30.5298 476.409 -12.3739 477.4C-21.033 500.638 -42.5666 524.853 -73.2381 545.182C-81.7333 533.115 -90.2036 520.335 -100.443 507.137L-102.286 508.856C-92.7845 522.742 -84.3142 535.521 -77.2439 547.539C-90.0237 556.009 -104.916 563.692 -120.471 569.926L-71.3087 622.649C-63.9348 615.773 -56.9296 609.241 -49.8995 601.996C-40.7216 625.144 -35.3502 644.95 -33.4666 662.493C-77.0978 655.618 -119.772 651.986 -155.904 685.678C-189.455 716.963 -191.831 754.331 -162.953 785.301C-130.636 819.959 -76.8312 821.482 -39.9618 787.103C-20.0523 768.538 -3.8699 734.149 -13.3772 679.602ZM-49.4633 456.843C-61.1523 444.308 -60.6045 428.633 -52.4932 421.07C-42.9072 412.131 -31.1387 412.186 -21.8563 422.14C-8.79214 436.151 -5.48353 453.744 -10.7497 471.75C-25.7119 471.227 -39.1495 467.904 -49.4633 456.843ZM-149.894 758.65C-166.396 740.953 -169.725 713.729 -144.654 690.351C-114.79 662.504 -75.4334 669.229 -32.5396 676.792C-31.3284 713.572 -44.656 737.717 -59.7724 751.813C-92.5862 782.41 -130.986 778.928 -149.894 758.65Z" fill="#9FA49F"/>
<path d="M430.948 592.26C459.445 556.173 485.148 515.063 470.689 456.323C459.122 409.331 420.324 386.693 371.863 398.621C319.976 411.393 294.688 439.422 301.555 467.324C308.303 494.736 346.062 500.497 386.442 491.596L386.081 490.128C365.205 481.249 354.738 468.251 351.726 456.013C346.063 433.007 361.787 412.523 386.262 406.499C415.143 399.39 449.935 414.188 460.899 458.733C474.153 512.578 446.138 550.623 416.903 587.93C396.382 582.598 372.065 578.72 342.725 577.635C326.037 526.712 300.637 484.682 271.749 460.124C285.914 431.199 301.917 401.302 341.078 391.663L340.837 390.684C298.739 401.046 280.786 429.346 267.238 456.562C246.754 440.838 224.403 434.399 202.375 439.821C172.026 447.291 157.145 471.201 164.254 500.082C169.556 521.62 189.083 531.35 213.068 525.446C232.648 520.626 245.165 508.2 254.88 492.83C270.95 511.718 281.598 542.323 284.399 579.013C269.722 580.549 254.434 581.716 237.919 584.224L238.522 586.671C255.278 585.142 270.565 583.975 284.505 583.659C285.672 598.947 285.122 615.695 282.983 632.315L352.982 615.086C350.572 605.296 348.283 595.995 345.384 586.325C370.069 589.594 389.981 594.557 406.217 601.463C378.948 636.21 354.977 671.702 366.785 719.673C377.749 764.218 409.22 784.506 450.338 774.385C496.351 763.059 523.907 716.82 511.858 667.87C505.352 641.437 483.211 610.546 430.948 592.26ZM218.852 515.196C202.209 519.293 188.789 511.175 186.139 500.406C183.006 487.679 188.79 477.429 202.006 474.176C220.607 469.598 237.581 475.283 250.738 488.658C242.988 501.468 233.537 511.582 218.852 515.196ZM433.432 749.992C409.936 755.776 384.542 745.413 376.349 712.127C366.589 672.478 391.645 641.391 419.155 607.623C451.861 624.492 466.448 647.898 471.388 667.968C482.111 711.533 460.355 743.366 433.432 749.992Z" fill="#9FA49F"/>
<path d="M386.288 82.002C402.353 38.9173 414.218 -8.09229 382.451 -59.5736C357.038 -100.759 313.168 -110.415 270.696 -84.2073C225.221 -56.1466 209.741 -21.7153 224.83 2.73832C239.654 26.7629 277.362 20.6736 313.07 -0.175759L312.276 -1.46277C289.684 -3.51602 275.737 -12.6802 269.118 -23.4055C256.676 -43.569 265.366 -67.8863 286.816 -81.1224C312.128 -96.7411 349.781 -93.3191 373.871 -54.2791C402.991 -7.08793 387.985 37.7128 371.592 82.1849C350.425 83.3995 326.089 87.1609 297.829 95.1212C266.336 51.7639 229.276 19.5429 194.251 5.02107C198.869 -26.8541 204.938 -60.2172 239.259 -81.3951L238.73 -82.2531C201.835 -59.4869 193.42 -27.0456 188.865 3.01304C164.548 -5.67621 141.299 -4.95451 121.994 6.95805C95.395 23.3709 88.5588 50.6913 104.178 76.0029C115.825 94.8794 137.395 98.1558 158.416 85.1843C175.577 74.5954 183.682 58.9315 188.218 41.3234C209.304 54.376 228.821 80.2443 242.733 114.31C229.233 120.271 215.039 126.067 200.087 133.516L201.411 135.661C216.892 129.07 231.086 123.274 244.257 118.7C250.054 132.894 254.664 149.005 257.722 165.481L319.071 127.626C313.776 119.045 308.747 110.894 303.023 102.579C327.523 98.1236 347.997 96.7447 365.568 98.3417C350.262 139.774 338.323 180.905 364.266 222.948C388.356 261.988 424.531 271.654 460.567 249.417C500.894 224.533 512.951 172.074 486.479 129.173C472.184 106.007 441.641 83.3881 386.288 82.002ZM160.78 73.6556C146.194 82.6562 130.932 79.0418 125.108 69.6036C118.225 58.4493 120.589 46.9206 132.172 39.773C148.475 29.7135 166.375 29.923 182.997 38.6216C179.547 53.1901 173.651 65.7139 160.78 73.6556ZM436.998 231.381C416.406 244.088 389.058 242.007 371.057 212.834C349.614 178.085 363.935 140.814 379.772 100.24C416.074 106.273 437.133 124.081 447.986 141.67C471.547 179.852 460.594 216.821 436.998 231.381Z" fill="#9FA49F"/>
</g>
<defs>
<clipPath id="clip0_255_2794">
<rect width="402.589" height="649.394" fill="white" transform="translate(0.444336 0.833008)"/>
</clipPath>
</defs>
</svg>
